<?xml version="1.0" encoding="utf-8" standalone="no"?>
<!DOCTYPE svg PUBLIC "-//W3C//DTD SVG 1.1//EN"
  "http://www.w3.org/Graphics/SVG/1.1/DTD/svg11.dtd">
<svg xmlns:xlink="http://www.w3.org/1999/xlink" width="460.8pt" height="345.6pt" viewBox="0 0 460.8 345.6" xmlns="http://www.w3.org/2000/svg" version="1.1">
 <metadata>
  <rdf:RDF xmlns:dc="http://purl.org/dc/elements/1.1/" xmlns:cc="http://creativecommons.org/ns#" xmlns:rdf="http://www.w3.org/1999/02/22-rdf-syntax-ns#">
   <cc:Work>
    <dc:type rdf:resource="http://purl.org/dc/dcmitype/StillImage"/>
    <dc:date>2025-11-09T12:03:55.085820</dc:date>
    <dc:format>image/svg+xml</dc:format>
    <dc:creator>
     <cc:Agent>
      <dc:title>Matplotlib v3.9.2, https://matplotlib.org/</dc:title>
     </cc:Agent>
    </dc:creator>
   </cc:Work>
  </rdf:RDF>
 </metadata>
 <defs>
  <style type="text/css">*{stroke-linejoin: round; stroke-linecap: butt}</style>
 </defs>
 <g id="figure_1">
  <g id="patch_1">
   <path d="M 0 345.6 
L 460.8 345.6 
L 460.8 0 
L 0 0 
z
" style="fill: #ffffff"/>
  </g>
  <g id="axes_1">
   <g id="patch_2">
    <path d="M 57.6 307.584 
L 414.72 307.584 
L 414.72 41.472 
L 57.6 41.472 
z
" style="fill: #ffffff"/>
   </g>
   <g id="patch_3">
    <path d="M 0 0 
z
" clip-path="url(#p13bbc1ffdc)" style="fill: #ff0000"/>
   </g>
   <g id="patch_4">
    <path d="M 76.311006 307.584 
L 78.789285 307.584 
L 78.789285 307.584 
L 76.311006 307.584 
z
" clip-path="url(#p13bbc1ffdc)" style="fill: #ff0000"/>
   </g>
   <g id="patch_5">
    <path d="M 78.789285 307.584 
L 81.267564 307.584 
L 81.267564 307.584 
L 78.789285 307.584 
z
" clip-path="url(#p13bbc1ffdc)" style="fill: #ff0000"/>
   </g>
   <g id="patch_6">
    <path d="M 81.267564 307.584 
L 83.745843 307.584 
L 83.745843 307.584 
L 81.267564 307.584 
z
" clip-path="url(#p13bbc1ffdc)" style="fill: #ff0000"/>
   </g>
   <g id="patch_7">
    <path d="M 83.745843 307.584 
L 86.224122 307.584 
L 86.224122 307.584 
L 83.745843 307.584 
z
" clip-path="url(#p13bbc1ffdc)" style="fill: #ff0000"/>
   </g>
   <g id="patch_8">
    <path d="M 86.224122 307.584 
L 88.702401 307.584 
L 88.702401 307.584 
L 86.224122 307.584 
z
" clip-path="url(#p13bbc1ffdc)" style="fill: #ff0000"/>
   </g>
   <g id="patch_9">
    <path d="M 88.702401 307.584 
L 91.18068 307.584 
L 91.18068 307.584 
L 88.702401 307.584 
z
" clip-path="url(#p13bbc1ffdc)" style="fill: #ff0000"/>
   </g>
   <g id="patch_10">
    <path d="M 91.18068 307.584 
L 93.658959 307.584 
L 93.658959 307.584 
L 91.18068 307.584 
z
" clip-path="url(#p13bbc1ffdc)" style="fill: #ff0000"/>
   </g>
   <g id="patch_11">
    <path d="M 93.658959 307.584 
L 96.137238 307.584 
L 96.137238 307.584 
L 93.658959 307.584 
z
" clip-path="url(#p13bbc1ffdc)" style="fill: #ff0000"/>
   </g>
   <g id="patch_12">
    <path d="M 96.137238 307.584 
L 98.615517 307.584 
L 98.615517 241.968814 
L 96.137238 241.968814 
z
" clip-path="url(#p13bbc1ffdc)" style="fill: #ff0000"/>
   </g>
   <g id="patch_13">
    <path d="M 98.615517 307.584 
L 101.093796 307.584 
L 101.093796 249.25939 
L 98.615517 249.25939 
z
" clip-path="url(#p13bbc1ffdc)" style="fill: #ff0000"/>
   </g>
   <g id="patch_14">
    <path d="M 101.093796 307.584 
L 103.572075 307.584 
L 103.572075 307.584 
L 101.093796 307.584 
z
" clip-path="url(#p13bbc1ffdc)" style="fill: #ff0000"/>
   </g>
   <g id="patch_15">
    <path d="M 103.572075 307.584 
L 106.050354 307.584 
L 106.050354 307.584 
L 103.572075 307.584 
z
" clip-path="url(#p13bbc1ffdc)" style="fill: #ff0000"/>
   </g>
   <g id="patch_16">
    <path d="M 106.050354 307.584 
L 108.528633 307.584 
L 108.528633 307.584 
L 106.050354 307.584 
z
" clip-path="url(#p13bbc1ffdc)" style="fill: #ff0000"/>
   </g>
   <g id="patch_17">
    <path d="M 108.528633 307.584 
L 111.006912 307.584 
L 111.006912 307.584 
L 108.528633 307.584 
z
" clip-path="url(#p13bbc1ffdc)" style="fill: #ff0000"/>
   </g>
   <g id="patch_18">
    <path d="M 111.006912 307.584 
L 113.485191 307.584 
L 113.485191 235.347097 
L 111.006912 235.347097 
z
" clip-path="url(#p13bbc1ffdc)" style="fill: #ff0000"/>
   </g>
   <g id="patch_19">
    <path d="M 113.485191 307.584 
L 115.96347 307.584 
L 115.96347 307.584 
L 113.485191 307.584 
z
" clip-path="url(#p13bbc1ffdc)" style="fill: #ff0000"/>
   </g>
   <g id="patch_20">
    <path d="M 115.96347 307.584 
L 118.441749 307.584 
L 118.441749 307.584 
L 115.96347 307.584 
z
" clip-path="url(#p13bbc1ffdc)" style="fill: #ff0000"/>
   </g>
   <g id="patch_21">
    <path d="M 118.441749 307.584 
L 120.920028 307.584 
L 120.920028 307.584 
L 118.441749 307.584 
z
" clip-path="url(#p13bbc1ffdc)" style="fill: #ff0000"/>
   </g>
   <g id="patch_22">
    <path d="M 120.920028 307.584 
L 123.398307 307.584 
L 123.398307 307.584 
L 120.920028 307.584 
z
" clip-path="url(#p13bbc1ffdc)" style="fill: #ff0000"/>
   </g>
   <g id="patch_23">
    <path d="M 123.398307 307.584 
L 125.876586 307.584 
L 125.876586 307.584 
L 123.398307 307.584 
z
" clip-path="url(#p13bbc1ffdc)" style="fill: #ff0000"/>
   </g>
   <g id="patch_24">
    <path d="M 125.876586 307.584 
L 128.354865 307.584 
L 128.354865 307.584 
L 125.876586 307.584 
z
" clip-path="url(#p13bbc1ffdc)" style="fill: #ff0000"/>
   </g>
   <g id="patch_25">
    <path d="M 128.354865 307.584 
L 130.833144 307.584 
L 130.833144 263.840542 
L 128.354865 263.840542 
z
" clip-path="url(#p13bbc1ffdc)" style="fill: #ff0000"/>
   </g>
   <g id="patch_26">
    <path d="M 130.833144 307.584 
L 133.311423 307.584 
L 133.311423 307.584 
L 130.833144 307.584 
z
" clip-path="url(#p13bbc1ffdc)" style="fill: #ff0000"/>
   </g>
   <g id="patch_27">
    <path d="M 133.311423 307.584 
L 135.789702 307.584 
L 135.789702 307.584 
L 133.311423 307.584 
z
" clip-path="url(#p13bbc1ffdc)" style="fill: #ff0000"/>
   </g>
   <g id="patch_28">
    <path d="M 135.789702 307.584 
L 138.267981 307.584 
L 138.267981 307.584 
L 135.789702 307.584 
z
" clip-path="url(#p13bbc1ffdc)" style="fill: #ff0000"/>
   </g>
   <g id="patch_29">
    <path d="M 138.267981 307.584 
L 140.74626 307.584 
L 140.74626 307.584 
L 138.267981 307.584 
z
" clip-path="url(#p13bbc1ffdc)" style="fill: #ff0000"/>
   </g>
   <g id="patch_30">
    <path d="M 140.74626 307.584 
L 143.224539 307.584 
L 143.224539 307.584 
L 140.74626 307.584 
z
" clip-path="url(#p13bbc1ffdc)" style="fill: #ff0000"/>
   </g>
   <g id="patch_31">
    <path d="M 143.224539 307.584 
L 145.702817 307.584 
L 145.702817 273.498189 
L 143.224539 273.498189 
z
" clip-path="url(#p13bbc1ffdc)" style="fill: #ff0000"/>
   </g>
   <g id="patch_32">
    <path d="M 145.702817 307.584 
L 148.181096 307.584 
L 148.181096 262.973108 
L 145.702817 262.973108 
z
" clip-path="url(#p13bbc1ffdc)" style="fill: #ff0000"/>
   </g>
   <g id="patch_33">
    <path d="M 148.181096 307.584 
L 150.659375 307.584 
L 150.659375 307.584 
L 148.181096 307.584 
z
" clip-path="url(#p13bbc1ffdc)" style="fill: #ff0000"/>
   </g>
   <g id="patch_34">
    <path d="M 150.659375 307.584 
L 153.137654 307.584 
L 153.137654 275.445949 
L 150.659375 275.445949 
z
" clip-path="url(#p13bbc1ffdc)" style="fill: #ff0000"/>
   </g>
   <g id="patch_35">
    <path d="M 153.137654 307.584 
L 155.615933 307.584 
L 155.615933 283.723932 
L 153.137654 283.723932 
z
" clip-path="url(#p13bbc1ffdc)" style="fill: #ff0000"/>
   </g>
   <g id="patch_36">
    <path d="M 155.615933 307.584 
L 158.094212 307.584 
L 158.094212 307.584 
L 155.615933 307.584 
z
" clip-path="url(#p13bbc1ffdc)" style="fill: #ff0000"/>
   </g>
   <g id="patch_37">
    <path d="M 158.094212 307.584 
L 160.572491 307.584 
L 160.572491 281.072814 
L 158.094212 281.072814 
z
" clip-path="url(#p13bbc1ffdc)" style="fill: #ff0000"/>
   </g>
   <g id="patch_38">
    <path d="M 160.572491 307.584 
L 163.05077 307.584 
L 163.05077 307.584 
L 160.572491 307.584 
z
" clip-path="url(#p13bbc1ffdc)" style="fill: #ff0000"/>
   </g>
   <g id="patch_39">
    <path d="M 163.05077 307.584 
L 165.529049 307.584 
L 165.529049 254.020582 
L 163.05077 254.020582 
z
" clip-path="url(#p13bbc1ffdc)" style="fill: #ff0000"/>
   </g>
   <g id="patch_40">
    <path d="M 165.529049 307.584 
L 168.007328 307.584 
L 168.007328 280.053153 
L 165.529049 280.053153 
z
" clip-path="url(#p13bbc1ffdc)" style="fill: #ff0000"/>
   </g>
   <g id="patch_41">
    <path d="M 168.007328 307.584 
L 170.485607 307.584 
L 170.485607 196.161985 
L 168.007328 196.161985 
z
" clip-path="url(#p13bbc1ffdc)" style="fill: #ff0000"/>
   </g>
   <g id="patch_42">
    <path d="M 170.485607 307.584 
L 172.963886 307.584 
L 172.963886 219.771855 
L 170.485607 219.771855 
z
" clip-path="url(#p13bbc1ffdc)" style="fill: #ff0000"/>
   </g>
   <g id="patch_43">
    <path d="M 172.963886 307.584 
L 175.442165 307.584 
L 175.442165 280.149079 
L 172.963886 280.149079 
z
" clip-path="url(#p13bbc1ffdc)" style="fill: #ff0000"/>
   </g>
   <g id="patch_44">
    <path d="M 175.442165 307.584 
L 177.920444 307.584 
L 177.920444 197.844315 
L 175.442165 197.844315 
z
" clip-path="url(#p13bbc1ffdc)" style="fill: #ff0000"/>
   </g>
   <g id="patch_45">
    <path d="M 177.920444 307.584 
L 180.398723 307.584 
L 180.398723 219.114086 
L 177.920444 219.114086 
z
" clip-path="url(#p13bbc1ffdc)" style="fill: #ff0000"/>
   </g>
   <g id="patch_46">
    <path d="M 180.398723 307.584 
L 182.877002 307.584 
L 182.877002 307.584 
L 180.398723 307.584 
z
" clip-path="url(#p13bbc1ffdc)" style="fill: #ff0000"/>
   </g>
   <g id="patch_47">
    <path d="M 182.877002 307.584 
L 185.355281 307.584 
L 185.355281 263.718694 
L 182.877002 263.718694 
z
" clip-path="url(#p13bbc1ffdc)" style="fill: #ff0000"/>
   </g>
   <g id="patch_48">
    <path d="M 185.355281 307.584 
L 187.83356 307.584 
L 187.83356 225.565017 
L 185.355281 225.565017 
z
" clip-path="url(#p13bbc1ffdc)" style="fill: #ff0000"/>
   </g>
   <g id="patch_49">
    <path d="M 187.83356 307.584 
L 190.311839 307.584 
L 190.311839 239.706221 
L 187.83356 239.706221 
z
" clip-path="url(#p13bbc1ffdc)" style="fill: #ff0000"/>
   </g>
   <g id="patch_50">
    <path d="M 190.311839 307.584 
L 192.790118 307.584 
L 192.790118 307.584 
L 190.311839 307.584 
z
" clip-path="url(#p13bbc1ffdc)" style="fill: #ff0000"/>
   </g>
   <g id="patch_51">
    <path d="M 192.790118 307.584 
L 195.268397 307.584 
L 195.268397 250.527316 
L 192.790118 250.527316 
z
" clip-path="url(#p13bbc1ffdc)" style="fill: #ff0000"/>
   </g>
   <g id="patch_52">
    <path d="M 195.268397 307.584 
L 197.746676 307.584 
L 197.746676 307.584 
L 195.268397 307.584 
z
" clip-path="url(#p13bbc1ffdc)" style="fill: #ff0000"/>
   </g>
   <g id="patch_53">
    <path d="M 197.746676 307.584 
L 200.224955 307.584 
L 200.224955 282.34739 
L 197.746676 282.34739 
z
" clip-path="url(#p13bbc1ffdc)" style="fill: #ff0000"/>
   </g>
   <g id="patch_54">
    <path d="M 200.224955 307.584 
L 202.703234 307.584 
L 202.703234 307.584 
L 200.224955 307.584 
z
" clip-path="url(#p13bbc1ffdc)" style="fill: #ff0000"/>
   </g>
   <g id="patch_55">
    <path d="M 202.703234 307.584 
L 205.181513 307.584 
L 205.181513 286.9719 
L 202.703234 286.9719 
z
" clip-path="url(#p13bbc1ffdc)" style="fill: #ff0000"/>
   </g>
   <g id="patch_56">
    <path d="M 205.181513 307.584 
L 207.659792 307.584 
L 207.659792 307.584 
L 205.181513 307.584 
z
" clip-path="url(#p13bbc1ffdc)" style="fill: #ff0000"/>
   </g>
   <g id="patch_57">
    <path d="M 207.659792 307.584 
L 210.138071 307.584 
L 210.138071 204.252998 
L 207.659792 204.252998 
z
" clip-path="url(#p13bbc1ffdc)" style="fill: #ff0000"/>
   </g>
   <g id="patch_58">
    <path d="M 210.138071 307.584 
L 212.61635 307.584 
L 212.61635 287.800527 
L 210.138071 287.800527 
z
" clip-path="url(#p13bbc1ffdc)" style="fill: #ff0000"/>
   </g>
   <g id="patch_59">
    <path d="M 212.61635 307.584 
L 215.094629 307.584 
L 215.094629 289.144135 
L 212.61635 289.144135 
z
" clip-path="url(#p13bbc1ffdc)" style="fill: #ff0000"/>
   </g>
   <g id="patch_60">
    <path d="M 215.094629 307.584 
L 217.572908 307.584 
L 217.572908 307.584 
L 215.094629 307.584 
z
" clip-path="url(#p13bbc1ffdc)" style="fill: #ff0000"/>
   </g>
   <g id="patch_61">
    <path d="M 217.572908 307.584 
L 220.051187 307.584 
L 220.051187 307.584 
L 217.572908 307.584 
z
" clip-path="url(#p13bbc1ffdc)" style="fill: #ff0000"/>
   </g>
   <g id="patch_62">
    <path d="M 220.051187 307.584 
L 222.529466 307.584 
L 222.529466 289.92969 
L 220.051187 289.92969 
z
" clip-path="url(#p13bbc1ffdc)" style="fill: #ff0000"/>
   </g>
   <g id="patch_63">
    <path d="M 222.529466 307.584 
L 225.007745 307.584 
L 225.007745 245.909151 
L 222.529466 245.909151 
z
" clip-path="url(#p13bbc1ffdc)" style="fill: #ff0000"/>
   </g>
   <g id="patch_64">
    <path d="M 225.007745 307.584 
L 227.486024 307.584 
L 227.486024 269.17511 
L 225.007745 269.17511 
z
" clip-path="url(#p13bbc1ffdc)" style="fill: #ff0000"/>
   </g>
   <g id="patch_65">
    <path d="M 227.486024 307.584 
L 229.964303 307.584 
L 229.964303 277.983164 
L 227.486024 277.983164 
z
" clip-path="url(#p13bbc1ffdc)" style="fill: #ff0000"/>
   </g>
   <g id="patch_66">
    <path d="M 229.964303 307.584 
L 232.442582 307.584 
L 232.442582 258.829682 
L 229.964303 258.829682 
z
" clip-path="url(#p13bbc1ffdc)" style="fill: #ff0000"/>
   </g>
   <g id="patch_67">
    <path d="M 232.442582 307.584 
L 234.920861 307.584 
L 234.920861 272.275379 
L 232.442582 272.275379 
z
" clip-path="url(#p13bbc1ffdc)" style="fill: #ff0000"/>
   </g>
   <g id="patch_68">
    <path d="M 234.920861 307.584 
L 237.399139 307.584 
L 237.399139 174.129384 
L 234.920861 174.129384 
z
" clip-path="url(#p13bbc1ffdc)" style="fill: #ff0000"/>
   </g>
   <g id="patch_69">
    <path d="M 237.399139 307.584 
L 239.877418 307.584 
L 239.877418 290.047647 
L 237.399139 290.047647 
z
" clip-path="url(#p13bbc1ffdc)" style="fill: #ff0000"/>
   </g>
   <g id="patch_70">
    <path d="M 239.877418 307.584 
L 242.355697 307.584 
L 242.355697 250.250342 
L 239.877418 250.250342 
z
" clip-path="url(#p13bbc1ffdc)" style="fill: #ff0000"/>
   </g>
   <g id="patch_71">
    <path d="M 242.355697 307.584 
L 244.833976 307.584 
L 244.833976 290.577904 
L 242.355697 290.577904 
z
" clip-path="url(#p13bbc1ffdc)" style="fill: #ff0000"/>
   </g>
   <g id="patch_72">
    <path d="M 244.833976 307.584 
L 247.312255 307.584 
L 247.312255 251.741288 
L 244.833976 251.741288 
z
" clip-path="url(#p13bbc1ffdc)" style="fill: #ff0000"/>
   </g>
   <g id="patch_73">
    <path d="M 247.312255 307.584 
L 249.790534 307.584 
L 249.790534 245.747699 
L 247.312255 245.747699 
z
" clip-path="url(#p13bbc1ffdc)" style="fill: #ff0000"/>
   </g>
   <g id="patch_74">
    <path d="M 249.790534 307.584 
L 252.268813 307.584 
L 252.268813 275.576592 
L 249.790534 275.576592 
z
" clip-path="url(#p13bbc1ffdc)" style="fill: #ff0000"/>
   </g>
   <g id="patch_75">
    <path d="M 252.268813 307.584 
L 254.747092 307.584 
L 254.747092 276.21419 
L 252.268813 276.21419 
z
" clip-path="url(#p13bbc1ffdc)" style="fill: #ff0000"/>
   </g>
   <g id="patch_76">
    <path d="M 254.747092 307.584 
L 257.225371 307.584 
L 257.225371 252.522305 
L 254.747092 252.522305 
z
" clip-path="url(#p13bbc1ffdc)" style="fill: #ff0000"/>
   </g>
   <g id="patch_77">
    <path d="M 257.225371 307.584 
L 259.70365 307.584 
L 259.70365 243.044472 
L 257.225371 243.044472 
z
" clip-path="url(#p13bbc1ffdc)" style="fill: #ff0000"/>
   </g>
   <g id="patch_78">
    <path d="M 259.70365 307.584 
L 262.181929 307.584 
L 262.181929 207.28053 
L 259.70365 207.28053 
z
" clip-path="url(#p13bbc1ffdc)" style="fill: #ff0000"/>
   </g>
   <g id="patch_79">
    <path d="M 262.181929 307.584 
L 264.660208 307.584 
L 264.660208 291.077035 
L 262.181929 291.077035 
z
" clip-path="url(#p13bbc1ffdc)" style="fill: #ff0000"/>
   </g>
   <g id="patch_80">
    <path d="M 264.660208 307.584 
L 267.138487 307.584 
L 267.138487 211.169848 
L 264.660208 211.169848 
z
" clip-path="url(#p13bbc1ffdc)" style="fill: #ff0000"/>
   </g>
   <g id="patch_81">
    <path d="M 267.138487 307.584 
L 269.616766 307.584 
L 269.616766 252.904678 
L 267.138487 252.904678 
z
" clip-path="url(#p13bbc1ffdc)" style="fill: #ff0000"/>
   </g>
   <g id="patch_82">
    <path d="M 269.616766 307.584 
L 272.095045 307.584 
L 272.095045 204.523498 
L 269.616766 204.523498 
z
" clip-path="url(#p13bbc1ffdc)" style="fill: #ff0000"/>
   </g>
   <g id="patch_83">
    <path d="M 272.095045 307.584 
L 274.573324 307.584 
L 274.573324 206.637559 
L 272.095045 206.637559 
z
" clip-path="url(#p13bbc1ffdc)" style="fill: #ff0000"/>
   </g>
   <g id="patch_84">
    <path d="M 274.573324 307.584 
L 277.051603 307.584 
L 277.051603 209.511479 
L 274.573324 209.511479 
z
" clip-path="url(#p13bbc1ffdc)" style="fill: #ff0000"/>
   </g>
   <g id="patch_85">
    <path d="M 277.051603 307.584 
L 279.529882 307.584 
L 279.529882 245.38951 
L 277.051603 245.38951 
z
" clip-path="url(#p13bbc1ffdc)" style="fill: #ff0000"/>
   </g>
   <g id="patch_86">
    <path d="M 279.529882 307.584 
L 282.008161 307.584 
L 282.008161 256.719514 
L 279.529882 256.719514 
z
" clip-path="url(#p13bbc1ffdc)" style="fill: #ff0000"/>
   </g>
   <g id="patch_87">
    <path d="M 282.008161 307.584 
L 284.48644 307.584 
L 284.48644 199.129146 
L 282.008161 199.129146 
z
" clip-path="url(#p13bbc1ffdc)" style="fill: #ff0000"/>
   </g>
   <g id="patch_88">
    <path d="M 284.48644 307.584 
L 286.964719 307.584 
L 286.964719 161.772475 
L 284.48644 161.772475 
z
" clip-path="url(#p13bbc1ffdc)" style="fill: #ff0000"/>
   </g>
   <g id="patch_89">
    <path d="M 286.964719 307.584 
L 289.442998 307.584 
L 289.442998 275.919835 
L 286.964719 275.919835 
z
" clip-path="url(#p13bbc1ffdc)" style="fill: #ff0000"/>
   </g>
   <g id="patch_90">
    <path d="M 289.442998 307.584 
L 291.921277 307.584 
L 291.921277 216.498651 
L 289.442998 216.498651 
z
" clip-path="url(#p13bbc1ffdc)" style="fill: #ff0000"/>
   </g>
   <g id="patch_91">
    <path d="M 291.921277 307.584 
L 294.399556 307.584 
L 294.399556 187.302342 
L 291.921277 187.302342 
z
" clip-path="url(#p13bbc1ffdc)" style="fill: #ff0000"/>
   </g>
   <g id="patch_92">
    <path d="M 294.399556 307.584 
L 296.877835 307.584 
L 296.877835 236.085045 
L 294.399556 236.085045 
z
" clip-path="url(#p13bbc1ffdc)" style="fill: #ff0000"/>
   </g>
   <g id="patch_93">
    <path d="M 296.877835 307.584 
L 299.356114 307.584 
L 299.356114 123.166572 
L 296.877835 123.166572 
z
" clip-path="url(#p13bbc1ffdc)" style="fill: #ff0000"/>
   </g>
   <g id="patch_94">
    <path d="M 299.356114 307.584 
L 301.834393 307.584 
L 301.834393 84.158512 
L 299.356114 84.158512 
z
" clip-path="url(#p13bbc1ffdc)" style="fill: #ff0000"/>
   </g>
   <g id="patch_95">
    <path d="M 301.834393 307.584 
L 304.312672 307.584 
L 304.312672 174.237008 
L 301.834393 174.237008 
z
" clip-path="url(#p13bbc1ffdc)" style="fill: #ff0000"/>
   </g>
   <g id="patch_96">
    <path d="M 304.312672 307.584 
L 306.790951 307.584 
L 306.790951 158.262788 
L 304.312672 158.262788 
z
" clip-path="url(#p13bbc1ffdc)" style="fill: #ff0000"/>
   </g>
   <g id="patch_97">
    <path d="M 306.790951 307.584 
L 309.26923 307.584 
L 309.26923 94.929238 
L 306.790951 94.929238 
z
" clip-path="url(#p13bbc1ffdc)" style="fill: #ff0000"/>
   </g>
   <g id="patch_98">
    <path d="M 309.26923 307.584 
L 311.747509 307.584 
L 311.747509 134.743997 
L 309.26923 134.743997 
z
" clip-path="url(#p13bbc1ffdc)" style="fill: #ff0000"/>
   </g>
   <g id="patch_99">
    <path d="M 311.747509 307.584 
L 314.225788 307.584 
L 314.225788 101.025262 
L 311.747509 101.025262 
z
" clip-path="url(#p13bbc1ffdc)" style="fill: #ff0000"/>
   </g>
   <g id="patch_100">
    <path d="M 314.225788 307.584 
L 316.704067 307.584 
L 316.704067 172.335371 
L 314.225788 172.335371 
z
" clip-path="url(#p13bbc1ffdc)" style="fill: #ff0000"/>
   </g>
   <g id="patch_101">
    <path d="M 316.704067 307.584 
L 319.182346 307.584 
L 319.182346 115.539552 
L 316.704067 115.539552 
z
" clip-path="url(#p13bbc1ffdc)" style="fill: #ff0000"/>
   </g>
   <g id="patch_102">
    <path d="M 319.182346 307.584 
L 321.660625 307.584 
L 321.660625 54.144 
L 319.182346 54.144 
z
" clip-path="url(#p13bbc1ffdc)" style="fill: #ff0000"/>
   </g>
   <g id="patch_103">
    <path d="M 321.660625 307.584 
L 324.138904 307.584 
L 324.138904 194.580068 
L 321.660625 194.580068 
z
" clip-path="url(#p13bbc1ffdc)" style="fill: #ff0000"/>
   </g>
   <g id="patch_104">
    <path d="M 324.138904 307.584 
L 326.617183 307.584 
L 326.617183 177.652938 
L 324.138904 177.652938 
z
" clip-path="url(#p13bbc1ffdc)" style="fill: #ff0000"/>
   </g>
   <g id="patch_105">
    <path d="M 326.617183 307.584 
L 329.095461 307.584 
L 329.095461 161.44444 
L 326.617183 161.44444 
z
" clip-path="url(#p13bbc1ffdc)" style="fill: #ff0000"/>
   </g>
   <g id="patch_106">
    <path d="M 329.095461 307.584 
L 331.57374 307.584 
L 331.57374 158.441961 
L 329.095461 158.441961 
z
" clip-path="url(#p13bbc1ffdc)" style="fill: #ff0000"/>
   </g>
   <g id="patch_107">
    <path d="M 331.57374 307.584 
L 334.052019 307.584 
L 334.052019 186.37368 
L 331.57374 186.37368 
z
" clip-path="url(#p13bbc1ffdc)" style="fill: #ff0000"/>
   </g>
   <g id="patch_108">
    <path d="M 334.052019 307.584 
L 336.530298 307.584 
L 336.530298 96.064259 
L 334.052019 96.064259 
z
" clip-path="url(#p13bbc1ffdc)" style="fill: #ff0000"/>
   </g>
   <g id="patch_109">
    <path d="M 336.530298 307.584 
L 339.008577 307.584 
L 339.008577 136.984515 
L 336.530298 136.984515 
z
" clip-path="url(#p13bbc1ffdc)" style="fill: #ff0000"/>
   </g>
   <g id="patch_110">
    <path d="M 339.008577 307.584 
L 341.486856 307.584 
L 341.486856 98.880274 
L 339.008577 98.880274 
z
" clip-path="url(#p13bbc1ffdc)" style="fill: #ff0000"/>
   </g>
   <g id="patch_111">
    <path d="M 341.486856 307.584 
L 343.965135 307.584 
L 343.965135 209.031546 
L 341.486856 209.031546 
z
" clip-path="url(#p13bbc1ffdc)" style="fill: #ff0000"/>
   </g>
   <g id="patch_112">
    <path d="M 343.965135 307.584 
L 346.443414 307.584 
L 346.443414 173.561492 
L 343.965135 173.561492 
z
" clip-path="url(#p13bbc1ffdc)" style="fill: #ff0000"/>
   </g>
   <g id="patch_113">
    <path d="M 346.443414 307.584 
L 348.921693 307.584 
L 348.921693 129.876203 
L 346.443414 129.876203 
z
" clip-path="url(#p13bbc1ffdc)" style="fill: #ff0000"/>
   </g>
   <g id="patch_114">
    <path d="M 348.921693 307.584 
L 351.399972 307.584 
L 351.399972 131.871438 
L 348.921693 131.871438 
z
" clip-path="url(#p13bbc1ffdc)" style="fill: #ff0000"/>
   </g>
   <g id="patch_115">
    <path d="M 351.399972 307.584 
L 353.878251 307.584 
L 353.878251 138.673619 
L 351.399972 138.673619 
z
" clip-path="url(#p13bbc1ffdc)" style="fill: #ff0000"/>
   </g>
   <g id="patch_116">
    <path d="M 353.878251 307.584 
L 356.35653 307.584 
L 356.35653 189.112136 
L 353.878251 189.112136 
z
" clip-path="url(#p13bbc1ffdc)" style="fill: #ff0000"/>
   </g>
   <g id="patch_117">
    <path d="M 356.35653 307.584 
L 358.834809 307.584 
L 358.834809 109.749267 
L 356.35653 109.749267 
z
" clip-path="url(#p13bbc1ffdc)" style="fill: #ff0000"/>
   </g>
   <g id="patch_118">
    <path d="M 358.834809 307.584 
L 361.313088 307.584 
L 361.313088 99.411402 
L 358.834809 99.411402 
z
" clip-path="url(#p13bbc1ffdc)" style="fill: #ff0000"/>
   </g>
   <g id="patch_119">
    <path d="M 361.313088 307.584 
L 363.791367 307.584 
L 363.791367 96.16787 
L 361.313088 96.16787 
z
" clip-path="url(#p13bbc1ffdc)" style="fill: #ff0000"/>
   </g>
   <g id="patch_120">
    <path d="M 363.791367 307.584 
L 366.269646 307.584 
L 366.269646 143.432039 
L 363.791367 143.432039 
z
" clip-path="url(#p13bbc1ffdc)" style="fill: #ff0000"/>
   </g>
   <g id="patch_121">
    <path d="M 366.269646 307.584 
L 368.747925 307.584 
L 368.747925 141.749493 
L 366.269646 141.749493 
z
" clip-path="url(#p13bbc1ffdc)" style="fill: #ff0000"/>
   </g>
   <g id="patch_122">
    <path d="M 368.747925 307.584 
L 371.226204 307.584 
L 371.226204 260.309549 
L 368.747925 260.309549 
z
" clip-path="url(#p13bbc1ffdc)" style="fill: #ff0000"/>
   </g>
   <g id="patch_123">
    <path d="M 371.226204 307.584 
L 373.704483 307.584 
L 373.704483 161.009063 
L 371.226204 161.009063 
z
" clip-path="url(#p13bbc1ffdc)" style="fill: #ff0000"/>
   </g>
   <g id="patch_124">
    <path d="M 373.704483 307.584 
L 376.182762 307.584 
L 376.182762 152.745541 
L 373.704483 152.745541 
z
" clip-path="url(#p13bbc1ffdc)" style="fill: #ff0000"/>
   </g>
   <g id="patch_125">
    <path d="M 376.182762 307.584 
L 378.661041 307.584 
L 378.661041 127.395409 
L 376.182762 127.395409 
z
" clip-path="url(#p13bbc1ffdc)" style="fill: #ff0000"/>
   </g>
   <g id="patch_126">
    <path d="M 378.661041 307.584 
L 381.13932 307.584 
L 381.13932 120.112039 
L 378.661041 120.112039 
z
" clip-path="url(#p13bbc1ffdc)" style="fill: #ff0000"/>
   </g>
   <g id="patch_127">
    <path d="M 381.13932 307.584 
L 383.617599 307.584 
L 383.617599 200.457165 
L 381.13932 200.457165 
z
" clip-path="url(#p13bbc1ffdc)" style="fill: #ff0000"/>
   </g>
   <g id="PolyCollection_1">
    <defs>
     <path id="m98897ae8d6" d="M 73.832727 -135.651397 
L 73.832727 -86.833699 
L 77.112066 -86.833699 
L 80.391405 -86.833699 
L 83.670744 -86.833699 
L 86.950083 -86.833699 
L 90.229421 -86.833699 
L 93.50876 -86.833699 
L 96.788099 -86.833699 
L 100.067438 -86.833699 
L 103.346777 -86.833699 
L 106.626116 -86.833699 
L 109.905455 -86.833699 
L 113.184793 -86.833699 
L 116.464132 -86.833699 
L 119.743471 -86.833699 
L 123.02281 -86.833699 
L 126.302149 -86.833699 
L 129.581488 -86.833699 
L 132.860826 -86.833699 
L 136.140165 -86.833699 
L 139.419504 -86.833699 
L 142.698843 -86.833699 
L 145.978182 -86.833699 
L 149.257521 -86.833699 
L 152.53686 -86.833699 
L 155.816198 -86.833699 
L 159.095537 -86.833699 
L 162.374876 -86.833699 
L 165.654215 -86.833699 
L 168.933554 -86.833699 
L 172.212893 -86.833699 
L 175.492231 -86.833699 
L 178.77157 -86.833699 
L 182.050909 -86.833699 
L 185.330248 -86.833699 
L 188.609587 -86.833699 
L 191.888926 -86.833699 
L 195.168264 -86.833699 
L 198.447603 -86.833699 
L 201.726942 -86.833699 
L 205.006281 -86.833699 
L 208.28562 -86.833699 
L 211.564959 -86.833699 
L 214.844298 -86.833699 
L 218.123636 -86.833699 
L 221.402975 -86.833699 
L 224.682314 -86.833699 
L 227.961653 -86.833699 
L 231.240992 -86.833699 
L 234.520331 -86.833699 
L 237.799669 -86.833699 
L 241.079008 -86.833699 
L 244.358347 -86.833699 
L 247.637686 -86.833699 
L 250.917025 -86.833699 
L 254.196364 -86.833699 
L 257.475702 -86.833699 
L 260.755041 -86.833699 
L 264.03438 -86.833699 
L 267.313719 -86.833699 
L 270.593058 -86.833699 
L 273.872397 -86.833699 
L 277.151736 -86.833699 
L 280.431074 -86.833699 
L 283.710413 -86.833699 
L 286.989752 -86.833699 
L 290.269091 -86.833699 
L 293.54843 -86.833699 
L 296.827769 -86.833699 
L 300.107107 -86.833699 
L 303.386446 -86.833699 
L 306.665785 -86.833699 
L 309.945124 -86.833699 
L 313.224463 -86.833699 
L 316.503802 -86.833699 
L 319.78314 -86.833699 
L 323.062479 -86.833699 
L 326.341818 -86.833699 
L 329.621157 -86.833699 
L 332.900496 -86.833699 
L 336.179835 -86.833699 
L 339.459174 -86.833699 
L 342.738512 -86.833699 
L 346.017851 -86.833699 
L 349.29719 -86.833699 
L 352.576529 -86.833699 
L 355.855868 -86.833699 
L 359.135207 -86.833699 
L 362.414545 -86.833699 
L 365.693884 -86.833699 
L 368.973223 -86.833699 
L 372.252562 -86.833699 
L 375.531901 -86.833699 
L 378.81124 -86.833699 
L 382.090579 -86.833699 
L 385.369917 -86.833699 
L 388.649256 -86.833699 
L 391.928595 -86.833699 
L 395.207934 -86.833699 
L 398.487273 -86.833699 
L 398.487273 -135.651397 
L 398.487273 -135.651397 
L 395.207934 -135.651397 
L 391.928595 -135.651397 
L 388.649256 -135.651397 
L 385.369917 -135.651397 
L 382.090579 -135.651397 
L 378.81124 -135.651397 
L 375.531901 -135.651397 
L 372.252562 -135.651397 
L 368.973223 -135.651397 
L 365.693884 -135.651397 
L 362.414545 -135.651397 
L 359.135207 -135.651397 
L 355.855868 -135.651397 
L 352.576529 -135.651397 
L 349.29719 -135.651397 
L 346.017851 -135.651397 
L 342.738512 -135.651397 
L 339.459174 -135.651397 
L 336.179835 -135.651397 
L 332.900496 -135.651397 
L 329.621157 -135.651397 
L 326.341818 -135.651397 
L 323.062479 -135.651397 
L 319.78314 -135.651397 
L 316.503802 -135.651397 
L 313.224463 -135.651397 
L 309.945124 -135.651397 
L 306.665785 -135.651397 
L 303.386446 -135.651397 
L 300.107107 -135.651397 
L 296.827769 -135.651397 
L 293.54843 -135.651397 
L 290.269091 -135.651397 
L 286.989752 -135.651397 
L 283.710413 -135.651397 
L 280.431074 -135.651397 
L 277.151736 -135.651397 
L 273.872397 -135.651397 
L 270.593058 -135.651397 
L 267.313719 -135.651397 
L 264.03438 -135.651397 
L 260.755041 -135.651397 
L 257.475702 -135.651397 
L 254.196364 -135.651397 
L 250.917025 -135.651397 
L 247.637686 -135.651397 
L 244.358347 -135.651397 
L 241.079008 -135.651397 
L 237.799669 -135.651397 
L 234.520331 -135.651397 
L 231.240992 -135.651397 
L 227.961653 -135.651397 
L 224.682314 -135.651397 
L 221.402975 -135.651397 
L 218.123636 -135.651397 
L 214.844298 -135.651397 
L 211.564959 -135.651397 
L 208.28562 -135.651397 
L 205.006281 -135.651397 
L 201.726942 -135.651397 
L 198.447603 -135.651397 
L 195.168264 -135.651397 
L 191.888926 -135.651397 
L 188.609587 -135.651397 
L 185.330248 -135.651397 
L 182.050909 -135.651397 
L 178.77157 -135.651397 
L 175.492231 -135.651397 
L 172.212893 -135.651397 
L 168.933554 -135.651397 
L 165.654215 -135.651397 
L 162.374876 -135.651397 
L 159.095537 -135.651397 
L 155.816198 -135.651397 
L 152.53686 -135.651397 
L 149.257521 -135.651397 
L 145.978182 -135.651397 
L 142.698843 -135.651397 
L 139.419504 -135.651397 
L 136.140165 -135.651397 
L 132.860826 -135.651397 
L 129.581488 -135.651397 
L 126.302149 -135.651397 
L 123.02281 -135.651397 
L 119.743471 -135.651397 
L 116.464132 -135.651397 
L 113.184793 -135.651397 
L 109.905455 -135.651397 
L 106.626116 -135.651397 
L 103.346777 -135.651397 
L 100.067438 -135.651397 
L 96.788099 -135.651397 
L 93.50876 -135.651397 
L 90.229421 -135.651397 
L 86.950083 -135.651397 
L 83.670744 -135.651397 
L 80.391405 -135.651397 
L 77.112066 -135.651397 
L 73.832727 -135.651397 
z
" style="stroke: #808080; stroke-opacity: 0.3"/>
    </defs>
    <g clip-path="url(#p13bbc1ffdc)">
     <use xlink:href="#m98897ae8d6" x="0" y="345.6" style="fill: #808080; fill-opacity: 0.3; stroke: #808080; stroke-opacity: 0.3"/>
    </g>
   </g>
   <g id="matplotlib.axis_1">
    <g id="xtick_1">
     <g id="line2d_1">
      <defs>
       <path id="m9051276818" d="M 0 0 
L 0 3.5 
" style="stroke: #000000; stroke-width: 0.8"/>
      </defs>
      <g>
       <use xlink:href="#m9051276818" x="73.832727" y="307.584" style="stroke: #000000; stroke-width: 0.8"/>
      </g>
     </g>
     <g id="text_1">
      <!-- 1800 -->
      <g transform="translate(61.107727 322.182437) scale(0.1 -0.1)">
       <defs>
        <path id="DejaVuSans-31" d="M 794 531 
L 1825 531 
L 1825 4091 
L 703 3866 
L 703 4441 
L 1819 4666 
L 2450 4666 
L 2450 531 
L 3481 531 
L 3481 0 
L 794 0 
L 794 531 
z
" transform="scale(0.015625)"/>
        <path id="DejaVuSans-38" d="M 2034 2216 
Q 1584 2216 1326 1975 
Q 1069 1734 1069 1313 
Q 1069 891 1326 650 
Q 1584 409 2034 409 
Q 2484 409 2743 651 
Q 3003 894 3003 1313 
Q 3003 1734 2745 1975 
Q 2488 2216 2034 2216 
z
M 1403 2484 
Q 997 2584 770 2862 
Q 544 3141 544 3541 
Q 544 4100 942 4425 
Q 1341 4750 2034 4750 
Q 2731 4750 3128 4425 
Q 3525 4100 3525 3541 
Q 3525 3141 3298 2862 
Q 3072 2584 2669 2484 
Q 3125 2378 3379 2068 
Q 3634 1759 3634 1313 
Q 3634 634 3220 271 
Q 2806 -91 2034 -91 
Q 1263 -91 848 271 
Q 434 634 434 1313 
Q 434 1759 690 2068 
Q 947 2378 1403 2484 
z
M 1172 3481 
Q 1172 3119 1398 2916 
Q 1625 2713 2034 2713 
Q 2441 2713 2670 2916 
Q 2900 3119 2900 3481 
Q 2900 3844 2670 4047 
Q 2441 4250 2034 4250 
Q 1625 4250 1398 4047 
Q 1172 3844 1172 3481 
z
" transform="scale(0.015625)"/>
        <path id="DejaVuSans-30" d="M 2034 4250 
Q 1547 4250 1301 3770 
Q 1056 3291 1056 2328 
Q 1056 1369 1301 889 
Q 1547 409 2034 409 
Q 2525 409 2770 889 
Q 3016 1369 3016 2328 
Q 3016 3291 2770 3770 
Q 2525 4250 2034 4250 
z
M 2034 4750 
Q 2819 4750 3233 4129 
Q 3647 3509 3647 2328 
Q 3647 1150 3233 529 
Q 2819 -91 2034 -91 
Q 1250 -91 836 529 
Q 422 1150 422 2328 
Q 422 3509 836 4129 
Q 1250 4750 2034 4750 
z
" transform="scale(0.015625)"/>
       </defs>
       <use xlink:href="#DejaVuSans-31"/>
       <use xlink:href="#DejaVuSans-38" x="63.623047"/>
       <use xlink:href="#DejaVuSans-30" x="127.246094"/>
       <use xlink:href="#DejaVuSans-30" x="190.869141"/>
      </g>
     </g>
    </g>
    <g id="xtick_2">
     <g id="line2d_2">
      <g>
       <use xlink:href="#m9051276818" x="123.398307" y="307.584" style="stroke: #000000; stroke-width: 0.8"/>
      </g>
     </g>
     <g id="text_2">
      <!-- 1820 -->
      <g transform="translate(110.673307 322.182437) scale(0.1 -0.1)">
       <defs>
        <path id="DejaVuSans-32" d="M 1228 531 
L 3431 531 
L 3431 0 
L 469 0 
L 469 531 
Q 828 903 1448 1529 
Q 2069 2156 2228 2338 
Q 2531 2678 2651 2914 
Q 2772 3150 2772 3378 
Q 2772 3750 2511 3984 
Q 2250 4219 1831 4219 
Q 1534 4219 1204 4116 
Q 875 4013 500 3803 
L 500 4441 
Q 881 4594 1212 4672 
Q 1544 4750 1819 4750 
Q 2544 4750 2975 4387 
Q 3406 4025 3406 3419 
Q 3406 3131 3298 2873 
Q 3191 2616 2906 2266 
Q 2828 2175 2409 1742 
Q 1991 1309 1228 531 
z
" transform="scale(0.015625)"/>
       </defs>
       <use xlink:href="#DejaVuSans-31"/>
       <use xlink:href="#DejaVuSans-38" x="63.623047"/>
       <use xlink:href="#DejaVuSans-32" x="127.246094"/>
       <use xlink:href="#DejaVuSans-30" x="190.869141"/>
      </g>
     </g>
    </g>
    <g id="xtick_3">
     <g id="line2d_3">
      <g>
       <use xlink:href="#m9051276818" x="172.963886" y="307.584" style="stroke: #000000; stroke-width: 0.8"/>
      </g>
     </g>
     <g id="text_3">
      <!-- 1840 -->
      <g transform="translate(160.238886 322.182437) scale(0.1 -0.1)">
       <defs>
        <path id="DejaVuSans-34" d="M 2419 4116 
L 825 1625 
L 2419 1625 
L 2419 4116 
z
M 2253 4666 
L 3047 4666 
L 3047 1625 
L 3713 1625 
L 3713 1100 
L 3047 1100 
L 3047 0 
L 2419 0 
L 2419 1100 
L 313 1100 
L 313 1709 
L 2253 4666 
z
" transform="scale(0.015625)"/>
       </defs>
       <use xlink:href="#DejaVuSans-31"/>
       <use xlink:href="#DejaVuSans-38" x="63.623047"/>
       <use xlink:href="#DejaVuSans-34" x="127.246094"/>
       <use xlink:href="#DejaVuSans-30" x="190.869141"/>
      </g>
     </g>
    </g>
    <g id="xtick_4">
     <g id="line2d_4">
      <g>
       <use xlink:href="#m9051276818" x="222.529466" y="307.584" style="stroke: #000000; stroke-width: 0.8"/>
      </g>
     </g>
     <g id="text_4">
      <!-- 1860 -->
      <g transform="translate(209.804466 322.182437) scale(0.1 -0.1)">
       <defs>
        <path id="DejaVuSans-36" d="M 2113 2584 
Q 1688 2584 1439 2293 
Q 1191 2003 1191 1497 
Q 1191 994 1439 701 
Q 1688 409 2113 409 
Q 2538 409 2786 701 
Q 3034 994 3034 1497 
Q 3034 2003 2786 2293 
Q 2538 2584 2113 2584 
z
M 3366 4563 
L 3366 3988 
Q 3128 4100 2886 4159 
Q 2644 4219 2406 4219 
Q 1781 4219 1451 3797 
Q 1122 3375 1075 2522 
Q 1259 2794 1537 2939 
Q 1816 3084 2150 3084 
Q 2853 3084 3261 2657 
Q 3669 2231 3669 1497 
Q 3669 778 3244 343 
Q 2819 -91 2113 -91 
Q 1303 -91 875 529 
Q 447 1150 447 2328 
Q 447 3434 972 4092 
Q 1497 4750 2381 4750 
Q 2619 4750 2861 4703 
Q 3103 4656 3366 4563 
z
" transform="scale(0.015625)"/>
       </defs>
       <use xlink:href="#DejaVuSans-31"/>
       <use xlink:href="#DejaVuSans-38" x="63.623047"/>
       <use xlink:href="#DejaVuSans-36" x="127.246094"/>
       <use xlink:href="#DejaVuSans-30" x="190.869141"/>
      </g>
     </g>
    </g>
    <g id="xtick_5">
     <g id="line2d_5">
      <g>
       <use xlink:href="#m9051276818" x="272.095045" y="307.584" style="stroke: #000000; stroke-width: 0.8"/>
      </g>
     </g>
     <g id="text_5">
      <!-- 1880 -->
      <g transform="translate(259.370045 322.182437) scale(0.1 -0.1)">
       <use xlink:href="#DejaVuSans-31"/>
       <use xlink:href="#DejaVuSans-38" x="63.623047"/>
       <use xlink:href="#DejaVuSans-38" x="127.246094"/>
       <use xlink:href="#DejaVuSans-30" x="190.869141"/>
      </g>
     </g>
    </g>
    <g id="xtick_6">
     <g id="line2d_6">
      <g>
       <use xlink:href="#m9051276818" x="321.660625" y="307.584" style="stroke: #000000; stroke-width: 0.8"/>
      </g>
     </g>
     <g id="text_6">
      <!-- 1900 -->
      <g transform="translate(308.935625 322.182437) scale(0.1 -0.1)">
       <defs>
        <path id="DejaVuSans-39" d="M 703 97 
L 703 672 
Q 941 559 1184 500 
Q 1428 441 1663 441 
Q 2288 441 2617 861 
Q 2947 1281 2994 2138 
Q 2813 1869 2534 1725 
Q 2256 1581 1919 1581 
Q 1219 1581 811 2004 
Q 403 2428 403 3163 
Q 403 3881 828 4315 
Q 1253 4750 1959 4750 
Q 2769 4750 3195 4129 
Q 3622 3509 3622 2328 
Q 3622 1225 3098 567 
Q 2575 -91 1691 -91 
Q 1453 -91 1209 -44 
Q 966 3 703 97 
z
M 1959 2075 
Q 2384 2075 2632 2365 
Q 2881 2656 2881 3163 
Q 2881 3666 2632 3958 
Q 2384 4250 1959 4250 
Q 1534 4250 1286 3958 
Q 1038 3666 1038 3163 
Q 1038 2656 1286 2365 
Q 1534 2075 1959 2075 
z
" transform="scale(0.015625)"/>
       </defs>
       <use xlink:href="#DejaVuSans-31"/>
       <use xlink:href="#DejaVuSans-39" x="63.623047"/>
       <use xlink:href="#DejaVuSans-30" x="127.246094"/>
       <use xlink:href="#DejaVuSans-30" x="190.869141"/>
      </g>
     </g>
    </g>
    <g id="xtick_7">
     <g id="line2d_7">
      <g>
       <use xlink:href="#m9051276818" x="371.226204" y="307.584" style="stroke: #000000; stroke-width: 0.8"/>
      </g>
     </g>
     <g id="text_7">
      <!-- 1920 -->
      <g transform="translate(358.501204 322.182437) scale(0.1 -0.1)">
       <use xlink:href="#DejaVuSans-31"/>
       <use xlink:href="#DejaVuSans-39" x="63.623047"/>
       <use xlink:href="#DejaVuSans-32" x="127.246094"/>
       <use xlink:href="#DejaVuSans-30" x="190.869141"/>
      </g>
     </g>
    </g>
    <g id="xtick_8">
     <g id="line2d_8">
      <defs>
       <path id="m6aa5509b81" d="M 0 0 
L 0 2 
" style="stroke: #000000; stroke-width: 0.6"/>
      </defs>
      <g>
       <use xlink:href="#m6aa5509b81" x="98.615517" y="307.584" style="stroke: #000000; stroke-width: 0.6"/>
      </g>
     </g>
    </g>
    <g id="xtick_9">
     <g id="line2d_9">
      <g>
       <use xlink:href="#m6aa5509b81" x="148.181096" y="307.584" style="stroke: #000000; stroke-width: 0.6"/>
      </g>
     </g>
    </g>
    <g id="xtick_10">
     <g id="line2d_10">
      <g>
       <use xlink:href="#m6aa5509b81" x="197.746676" y="307.584" style="stroke: #000000; stroke-width: 0.6"/>
      </g>
     </g>
    </g>
    <g id="xtick_11">
     <g id="line2d_11">
      <g>
       <use xlink:href="#m6aa5509b81" x="247.312255" y="307.584" style="stroke: #000000; stroke-width: 0.6"/>
      </g>
     </g>
    </g>
    <g id="xtick_12">
     <g id="line2d_12">
      <g>
       <use xlink:href="#m6aa5509b81" x="296.877835" y="307.584" style="stroke: #000000; stroke-width: 0.6"/>
      </g>
     </g>
    </g>
    <g id="xtick_13">
     <g id="line2d_13">
      <g>
       <use xlink:href="#m6aa5509b81" x="346.443414" y="307.584" style="stroke: #000000; stroke-width: 0.6"/>
      </g>
     </g>
    </g>
    <g id="xtick_14">
     <g id="line2d_14">
      <g>
       <use xlink:href="#m6aa5509b81" x="396.008994" y="307.584" style="stroke: #000000; stroke-width: 0.6"/>
      </g>
     </g>
    </g>
    <g id="text_8">
     <!-- Years -->
     <g transform="translate(222.967813 335.860562) scale(0.1 -0.1)">
      <defs>
       <path id="DejaVuSans-59" d="M -13 4666 
L 666 4666 
L 1959 2747 
L 3244 4666 
L 3922 4666 
L 2272 2222 
L 2272 0 
L 1638 0 
L 1638 2222 
L -13 4666 
z
" transform="scale(0.015625)"/>
       <path id="DejaVuSans-65" d="M 3597 1894 
L 3597 1613 
L 953 1613 
Q 991 1019 1311 708 
Q 1631 397 2203 397 
Q 2534 397 2845 478 
Q 3156 559 3463 722 
L 3463 178 
Q 3153 47 2828 -22 
Q 2503 -91 2169 -91 
Q 1331 -91 842 396 
Q 353 884 353 1716 
Q 353 2575 817 3079 
Q 1281 3584 2069 3584 
Q 2775 3584 3186 3129 
Q 3597 2675 3597 1894 
z
M 3022 2063 
Q 3016 2534 2758 2815 
Q 2500 3097 2075 3097 
Q 1594 3097 1305 2825 
Q 1016 2553 972 2059 
L 3022 2063 
z
" transform="scale(0.015625)"/>
       <path id="DejaVuSans-61" d="M 2194 1759 
Q 1497 1759 1228 1600 
Q 959 1441 959 1056 
Q 959 750 1161 570 
Q 1363 391 1709 391 
Q 2188 391 2477 730 
Q 2766 1069 2766 1631 
L 2766 1759 
L 2194 1759 
z
M 3341 1997 
L 3341 0 
L 2766 0 
L 2766 531 
Q 2569 213 2275 61 
Q 1981 -91 1556 -91 
Q 1019 -91 701 211 
Q 384 513 384 1019 
Q 384 1609 779 1909 
Q 1175 2209 1959 2209 
L 2766 2209 
L 2766 2266 
Q 2766 2663 2505 2880 
Q 2244 3097 1772 3097 
Q 1472 3097 1187 3025 
Q 903 2953 641 2809 
L 641 3341 
Q 956 3463 1253 3523 
Q 1550 3584 1831 3584 
Q 2591 3584 2966 3190 
Q 3341 2797 3341 1997 
z
" transform="scale(0.015625)"/>
       <path id="DejaVuSans-72" d="M 2631 2963 
Q 2534 3019 2420 3045 
Q 2306 3072 2169 3072 
Q 1681 3072 1420 2755 
Q 1159 2438 1159 1844 
L 1159 0 
L 581 0 
L 581 3500 
L 1159 3500 
L 1159 2956 
Q 1341 3275 1631 3429 
Q 1922 3584 2338 3584 
Q 2397 3584 2469 3576 
Q 2541 3569 2628 3553 
L 2631 2963 
z
" transform="scale(0.015625)"/>
       <path id="DejaVuSans-73" d="M 2834 3397 
L 2834 2853 
Q 2591 2978 2328 3040 
Q 2066 3103 1784 3103 
Q 1356 3103 1142 2972 
Q 928 2841 928 2578 
Q 928 2378 1081 2264 
Q 1234 2150 1697 2047 
L 1894 2003 
Q 2506 1872 2764 1633 
Q 3022 1394 3022 966 
Q 3022 478 2636 193 
Q 2250 -91 1575 -91 
Q 1294 -91 989 -36 
Q 684 19 347 128 
L 347 722 
Q 666 556 975 473 
Q 1284 391 1588 391 
Q 1994 391 2212 530 
Q 2431 669 2431 922 
Q 2431 1156 2273 1281 
Q 2116 1406 1581 1522 
L 1381 1569 
Q 847 1681 609 1914 
Q 372 2147 372 2553 
Q 372 3047 722 3315 
Q 1072 3584 1716 3584 
Q 2034 3584 2315 3537 
Q 2597 3491 2834 3397 
z
" transform="scale(0.015625)"/>
      </defs>
      <use xlink:href="#DejaVuSans-59"/>
      <use xlink:href="#DejaVuSans-65" x="47.833984"/>
      <use xlink:href="#DejaVuSans-61" x="109.357422"/>
      <use xlink:href="#DejaVuSans-72" x="170.636719"/>
      <use xlink:href="#DejaVuSans-73" x="211.75"/>
     </g>
    </g>
   </g>
   <g id="matplotlib.axis_2">
    <g id="ytick_1">
     <g id="line2d_15">
      <defs>
       <path id="m2e67831353" d="M 0 0 
L -3.5 0 
" style="stroke: #000000; stroke-width: 0.8"/>
      </defs>
      <g>
       <use xlink:href="#m2e67831353" x="57.6" y="307.584" style="stroke: #000000; stroke-width: 0.8"/>
      </g>
     </g>
     <g id="text_9">
      <!-- 0.0 -->
      <g transform="translate(34.696875 311.383219) scale(0.1 -0.1)">
       <defs>
        <path id="DejaVuSans-2e" d="M 684 794 
L 1344 794 
L 1344 0 
L 684 0 
L 684 794 
z
" transform="scale(0.015625)"/>
       </defs>
       <use xlink:href="#DejaVuSans-30"/>
       <use xlink:href="#DejaVuSans-2e" x="63.623047"/>
       <use xlink:href="#DejaVuSans-30" x="95.410156"/>
      </g>
     </g>
    </g>
    <g id="ytick_2">
     <g id="line2d_16">
      <g>
       <use xlink:href="#m2e67831353" x="57.6" y="268.214888" style="stroke: #000000; stroke-width: 0.8"/>
      </g>
     </g>
     <g id="text_10">
      <!-- 0.5 -->
      <g transform="translate(34.696875 272.014107) scale(0.1 -0.1)">
       <defs>
        <path id="DejaVuSans-35" d="M 691 4666 
L 3169 4666 
L 3169 4134 
L 1269 4134 
L 1269 2991 
Q 1406 3038 1543 3061 
Q 1681 3084 1819 3084 
Q 2600 3084 3056 2656 
Q 3513 2228 3513 1497 
Q 3513 744 3044 326 
Q 2575 -91 1722 -91 
Q 1428 -91 1123 -41 
Q 819 9 494 109 
L 494 744 
Q 775 591 1075 516 
Q 1375 441 1709 441 
Q 2250 441 2565 725 
Q 2881 1009 2881 1497 
Q 2881 1984 2565 2268 
Q 2250 2553 1709 2553 
Q 1456 2553 1204 2497 
Q 953 2441 691 2322 
L 691 4666 
z
" transform="scale(0.015625)"/>
       </defs>
       <use xlink:href="#DejaVuSans-30"/>
       <use xlink:href="#DejaVuSans-2e" x="63.623047"/>
       <use xlink:href="#DejaVuSans-35" x="95.410156"/>
      </g>
     </g>
    </g>
    <g id="ytick_3">
     <g id="line2d_17">
      <g>
       <use xlink:href="#m2e67831353" x="57.6" y="228.845776" style="stroke: #000000; stroke-width: 0.8"/>
      </g>
     </g>
     <g id="text_11">
      <!-- 1.0 -->
      <g transform="translate(34.696875 232.644995) scale(0.1 -0.1)">
       <use xlink:href="#DejaVuSans-31"/>
       <use xlink:href="#DejaVuSans-2e" x="63.623047"/>
       <use xlink:href="#DejaVuSans-30" x="95.410156"/>
      </g>
     </g>
    </g>
    <g id="ytick_4">
     <g id="line2d_18">
      <g>
       <use xlink:href="#m2e67831353" x="57.6" y="189.476664" style="stroke: #000000; stroke-width: 0.8"/>
      </g>
     </g>
     <g id="text_12">
      <!-- 1.5 -->
      <g transform="translate(34.696875 193.275883) scale(0.1 -0.1)">
       <use xlink:href="#DejaVuSans-31"/>
       <use xlink:href="#DejaVuSans-2e" x="63.623047"/>
       <use xlink:href="#DejaVuSans-35" x="95.410156"/>
      </g>
     </g>
    </g>
    <g id="ytick_5">
     <g id="line2d_19">
      <g>
       <use xlink:href="#m2e67831353" x="57.6" y="150.107553" style="stroke: #000000; stroke-width: 0.8"/>
      </g>
     </g>
     <g id="text_13">
      <!-- 2.0 -->
      <g transform="translate(34.696875 153.906771) scale(0.1 -0.1)">
       <use xlink:href="#DejaVuSans-32"/>
       <use xlink:href="#DejaVuSans-2e" x="63.623047"/>
       <use xlink:href="#DejaVuSans-30" x="95.410156"/>
      </g>
     </g>
    </g>
    <g id="ytick_6">
     <g id="line2d_20">
      <g>
       <use xlink:href="#m2e67831353" x="57.6" y="110.738441" style="stroke: #000000; stroke-width: 0.8"/>
      </g>
     </g>
     <g id="text_14">
      <!-- 2.5 -->
      <g transform="translate(34.696875 114.537659) scale(0.1 -0.1)">
       <use xlink:href="#DejaVuSans-32"/>
       <use xlink:href="#DejaVuSans-2e" x="63.623047"/>
       <use xlink:href="#DejaVuSans-35" x="95.410156"/>
      </g>
     </g>
    </g>
    <g id="ytick_7">
     <g id="line2d_21">
      <g>
       <use xlink:href="#m2e67831353" x="57.6" y="71.369329" style="stroke: #000000; stroke-width: 0.8"/>
      </g>
     </g>
     <g id="text_15">
      <!-- 3.0 -->
      <g transform="translate(34.696875 75.168548) scale(0.1 -0.1)">
       <defs>
        <path id="DejaVuSans-33" d="M 2597 2516 
Q 3050 2419 3304 2112 
Q 3559 1806 3559 1356 
Q 3559 666 3084 287 
Q 2609 -91 1734 -91 
Q 1441 -91 1130 -33 
Q 819 25 488 141 
L 488 750 
Q 750 597 1062 519 
Q 1375 441 1716 441 
Q 2309 441 2620 675 
Q 2931 909 2931 1356 
Q 2931 1769 2642 2001 
Q 2353 2234 1838 2234 
L 1294 2234 
L 1294 2753 
L 1863 2753 
Q 2328 2753 2575 2939 
Q 2822 3125 2822 3475 
Q 2822 3834 2567 4026 
Q 2313 4219 1838 4219 
Q 1578 4219 1281 4162 
Q 984 4106 628 3988 
L 628 4550 
Q 988 4650 1302 4700 
Q 1616 4750 1894 4750 
Q 2613 4750 3031 4423 
Q 3450 4097 3450 3541 
Q 3450 3153 3228 2886 
Q 3006 2619 2597 2516 
z
" transform="scale(0.015625)"/>
       </defs>
       <use xlink:href="#DejaVuSans-33"/>
       <use xlink:href="#DejaVuSans-2e" x="63.623047"/>
       <use xlink:href="#DejaVuSans-30" x="95.410156"/>
      </g>
     </g>
    </g>
    <g id="text_16">
     <!-- Normalized Counts -->
     <g transform="translate(28.617187 221.925656) rotate(-90) scale(0.1 -0.1)">
      <defs>
       <path id="DejaVuSans-4e" d="M 628 4666 
L 1478 4666 
L 3547 763 
L 3547 4666 
L 4159 4666 
L 4159 0 
L 3309 0 
L 1241 3903 
L 1241 0 
L 628 0 
L 628 4666 
z
" transform="scale(0.015625)"/>
       <path id="DejaVuSans-6f" d="M 1959 3097 
Q 1497 3097 1228 2736 
Q 959 2375 959 1747 
Q 959 1119 1226 758 
Q 1494 397 1959 397 
Q 2419 397 2687 759 
Q 2956 1122 2956 1747 
Q 2956 2369 2687 2733 
Q 2419 3097 1959 3097 
z
M 1959 3584 
Q 2709 3584 3137 3096 
Q 3566 2609 3566 1747 
Q 3566 888 3137 398 
Q 2709 -91 1959 -91 
Q 1206 -91 779 398 
Q 353 888 353 1747 
Q 353 2609 779 3096 
Q 1206 3584 1959 3584 
z
" transform="scale(0.015625)"/>
       <path id="DejaVuSans-6d" d="M 3328 2828 
Q 3544 3216 3844 3400 
Q 4144 3584 4550 3584 
Q 5097 3584 5394 3201 
Q 5691 2819 5691 2113 
L 5691 0 
L 5113 0 
L 5113 2094 
Q 5113 2597 4934 2840 
Q 4756 3084 4391 3084 
Q 3944 3084 3684 2787 
Q 3425 2491 3425 1978 
L 3425 0 
L 2847 0 
L 2847 2094 
Q 2847 2600 2669 2842 
Q 2491 3084 2119 3084 
Q 1678 3084 1418 2786 
Q 1159 2488 1159 1978 
L 1159 0 
L 581 0 
L 581 3500 
L 1159 3500 
L 1159 2956 
Q 1356 3278 1631 3431 
Q 1906 3584 2284 3584 
Q 2666 3584 2933 3390 
Q 3200 3197 3328 2828 
z
" transform="scale(0.015625)"/>
       <path id="DejaVuSans-6c" d="M 603 4863 
L 1178 4863 
L 1178 0 
L 603 0 
L 603 4863 
z
" transform="scale(0.015625)"/>
       <path id="DejaVuSans-69" d="M 603 3500 
L 1178 3500 
L 1178 0 
L 603 0 
L 603 3500 
z
M 603 4863 
L 1178 4863 
L 1178 4134 
L 603 4134 
L 603 4863 
z
" transform="scale(0.015625)"/>
       <path id="DejaVuSans-7a" d="M 353 3500 
L 3084 3500 
L 3084 2975 
L 922 459 
L 3084 459 
L 3084 0 
L 275 0 
L 275 525 
L 2438 3041 
L 353 3041 
L 353 3500 
z
" transform="scale(0.015625)"/>
       <path id="DejaVuSans-64" d="M 2906 2969 
L 2906 4863 
L 3481 4863 
L 3481 0 
L 2906 0 
L 2906 525 
Q 2725 213 2448 61 
Q 2172 -91 1784 -91 
Q 1150 -91 751 415 
Q 353 922 353 1747 
Q 353 2572 751 3078 
Q 1150 3584 1784 3584 
Q 2172 3584 2448 3432 
Q 2725 3281 2906 2969 
z
M 947 1747 
Q 947 1113 1208 752 
Q 1469 391 1925 391 
Q 2381 391 2643 752 
Q 2906 1113 2906 1747 
Q 2906 2381 2643 2742 
Q 2381 3103 1925 3103 
Q 1469 3103 1208 2742 
Q 947 2381 947 1747 
z
" transform="scale(0.015625)"/>
       <path id="DejaVuSans-20" transform="scale(0.015625)"/>
       <path id="DejaVuSans-43" d="M 4122 4306 
L 4122 3641 
Q 3803 3938 3442 4084 
Q 3081 4231 2675 4231 
Q 1875 4231 1450 3742 
Q 1025 3253 1025 2328 
Q 1025 1406 1450 917 
Q 1875 428 2675 428 
Q 3081 428 3442 575 
Q 3803 722 4122 1019 
L 4122 359 
Q 3791 134 3420 21 
Q 3050 -91 2638 -91 
Q 1578 -91 968 557 
Q 359 1206 359 2328 
Q 359 3453 968 4101 
Q 1578 4750 2638 4750 
Q 3056 4750 3426 4639 
Q 3797 4528 4122 4306 
z
" transform="scale(0.015625)"/>
       <path id="DejaVuSans-75" d="M 544 1381 
L 544 3500 
L 1119 3500 
L 1119 1403 
Q 1119 906 1312 657 
Q 1506 409 1894 409 
Q 2359 409 2629 706 
Q 2900 1003 2900 1516 
L 2900 3500 
L 3475 3500 
L 3475 0 
L 2900 0 
L 2900 538 
Q 2691 219 2414 64 
Q 2138 -91 1772 -91 
Q 1169 -91 856 284 
Q 544 659 544 1381 
z
M 1991 3584 
L 1991 3584 
z
" transform="scale(0.015625)"/>
       <path id="DejaVuSans-6e" d="M 3513 2113 
L 3513 0 
L 2938 0 
L 2938 2094 
Q 2938 2591 2744 2837 
Q 2550 3084 2163 3084 
Q 1697 3084 1428 2787 
Q 1159 2491 1159 1978 
L 1159 0 
L 581 0 
L 581 3500 
L 1159 3500 
L 1159 2956 
Q 1366 3272 1645 3428 
Q 1925 3584 2291 3584 
Q 2894 3584 3203 3211 
Q 3513 2838 3513 2113 
z
" transform="scale(0.015625)"/>
       <path id="DejaVuSans-74" d="M 1172 4494 
L 1172 3500 
L 2356 3500 
L 2356 3053 
L 1172 3053 
L 1172 1153 
Q 1172 725 1289 603 
Q 1406 481 1766 481 
L 2356 481 
L 2356 0 
L 1766 0 
Q 1100 0 847 248 
Q 594 497 594 1153 
L 594 3053 
L 172 3053 
L 172 3500 
L 594 3500 
L 594 4494 
L 1172 4494 
z
" transform="scale(0.015625)"/>
      </defs>
      <use xlink:href="#DejaVuSans-4e"/>
      <use xlink:href="#DejaVuSans-6f" x="74.804688"/>
      <use xlink:href="#DejaVuSans-72" x="135.986328"/>
      <use xlink:href="#DejaVuSans-6d" x="175.349609"/>
      <use xlink:href="#DejaVuSans-61" x="272.761719"/>
      <use xlink:href="#DejaVuSans-6c" x="334.041016"/>
      <use xlink:href="#DejaVuSans-69" x="361.824219"/>
      <use xlink:href="#DejaVuSans-7a" x="389.607422"/>
      <use xlink:href="#DejaVuSans-65" x="442.097656"/>
      <use xlink:href="#DejaVuSans-64" x="503.621094"/>
      <use xlink:href="#DejaVuSans-20" x="567.097656"/>
      <use xlink:href="#DejaVuSans-43" x="598.884766"/>
      <use xlink:href="#DejaVuSans-6f" x="668.708984"/>
      <use xlink:href="#DejaVuSans-75" x="729.890625"/>
      <use xlink:href="#DejaVuSans-6e" x="793.269531"/>
      <use xlink:href="#DejaVuSans-74" x="856.648438"/>
      <use xlink:href="#DejaVuSans-73" x="895.857422"/>
     </g>
    </g>
   </g>
   <g id="LineCollection_1">
    <path d="M 73.832727 234.357452 
L 398.487273 234.357452 
" clip-path="url(#p13bbc1ffdc)" style="fill: none; stroke: #808080; stroke-opacity: 0.6; stroke-width: 1.5"/>
   </g>
   <g id="patch_128">
    <path d="M 57.6 307.584 
L 57.6 41.472 
" style="fill: none; stroke: #000000; stroke-width: 0.8; stroke-linejoin: miter; stroke-linecap: square"/>
   </g>
   <g id="patch_129">
    <path d="M 414.72 307.584 
L 414.72 41.472 
" style="fill: none; stroke: #000000; stroke-width: 0.8; stroke-linejoin: miter; stroke-linecap: square"/>
   </g>
   <g id="patch_130">
    <path d="M 57.6 307.584 
L 414.72 307.584 
" style="fill: none; stroke: #000000; stroke-width: 0.8; stroke-linejoin: miter; stroke-linecap: square"/>
   </g>
   <g id="patch_131">
    <path d="M 57.6 41.472 
L 414.72 41.472 
" style="fill: none; stroke: #000000; stroke-width: 0.8; stroke-linejoin: miter; stroke-linecap: square"/>
   </g>
   <g id="text_17">
    <!-- Percent of Volumes Containing Maps per Year -->
    <g transform="translate(100.022813 35.472) scale(0.12 -0.12)">
     <defs>
      <path id="DejaVuSans-50" d="M 1259 4147 
L 1259 2394 
L 2053 2394 
Q 2494 2394 2734 2622 
Q 2975 2850 2975 3272 
Q 2975 3691 2734 3919 
Q 2494 4147 2053 4147 
L 1259 4147 
z
M 628 4666 
L 2053 4666 
Q 2838 4666 3239 4311 
Q 3641 3956 3641 3272 
Q 3641 2581 3239 2228 
Q 2838 1875 2053 1875 
L 1259 1875 
L 1259 0 
L 628 0 
L 628 4666 
z
" transform="scale(0.015625)"/>
      <path id="DejaVuSans-63" d="M 3122 3366 
L 3122 2828 
Q 2878 2963 2633 3030 
Q 2388 3097 2138 3097 
Q 1578 3097 1268 2742 
Q 959 2388 959 1747 
Q 959 1106 1268 751 
Q 1578 397 2138 397 
Q 2388 397 2633 464 
Q 2878 531 3122 666 
L 3122 134 
Q 2881 22 2623 -34 
Q 2366 -91 2075 -91 
Q 1284 -91 818 406 
Q 353 903 353 1747 
Q 353 2603 823 3093 
Q 1294 3584 2113 3584 
Q 2378 3584 2631 3529 
Q 2884 3475 3122 3366 
z
" transform="scale(0.015625)"/>
      <path id="DejaVuSans-66" d="M 2375 4863 
L 2375 4384 
L 1825 4384 
Q 1516 4384 1395 4259 
Q 1275 4134 1275 3809 
L 1275 3500 
L 2222 3500 
L 2222 3053 
L 1275 3053 
L 1275 0 
L 697 0 
L 697 3053 
L 147 3053 
L 147 3500 
L 697 3500 
L 697 3744 
Q 697 4328 969 4595 
Q 1241 4863 1831 4863 
L 2375 4863 
z
" transform="scale(0.015625)"/>
      <path id="DejaVuSans-56" d="M 1831 0 
L 50 4666 
L 709 4666 
L 2188 738 
L 3669 4666 
L 4325 4666 
L 2547 0 
L 1831 0 
z
" transform="scale(0.015625)"/>
      <path id="DejaVuSans-67" d="M 2906 1791 
Q 2906 2416 2648 2759 
Q 2391 3103 1925 3103 
Q 1463 3103 1205 2759 
Q 947 2416 947 1791 
Q 947 1169 1205 825 
Q 1463 481 1925 481 
Q 2391 481 2648 825 
Q 2906 1169 2906 1791 
z
M 3481 434 
Q 3481 -459 3084 -895 
Q 2688 -1331 1869 -1331 
Q 1566 -1331 1297 -1286 
Q 1028 -1241 775 -1147 
L 775 -588 
Q 1028 -725 1275 -790 
Q 1522 -856 1778 -856 
Q 2344 -856 2625 -561 
Q 2906 -266 2906 331 
L 2906 616 
Q 2728 306 2450 153 
Q 2172 0 1784 0 
Q 1141 0 747 490 
Q 353 981 353 1791 
Q 353 2603 747 3093 
Q 1141 3584 1784 3584 
Q 2172 3584 2450 3431 
Q 2728 3278 2906 2969 
L 2906 3500 
L 3481 3500 
L 3481 434 
z
" transform="scale(0.015625)"/>
      <path id="DejaVuSans-4d" d="M 628 4666 
L 1569 4666 
L 2759 1491 
L 3956 4666 
L 4897 4666 
L 4897 0 
L 4281 0 
L 4281 4097 
L 3078 897 
L 2444 897 
L 1241 4097 
L 1241 0 
L 628 0 
L 628 4666 
z
" transform="scale(0.015625)"/>
      <path id="DejaVuSans-70" d="M 1159 525 
L 1159 -1331 
L 581 -1331 
L 581 3500 
L 1159 3500 
L 1159 2969 
Q 1341 3281 1617 3432 
Q 1894 3584 2278 3584 
Q 2916 3584 3314 3078 
Q 3713 2572 3713 1747 
Q 3713 922 3314 415 
Q 2916 -91 2278 -91 
Q 1894 -91 1617 61 
Q 1341 213 1159 525 
z
M 3116 1747 
Q 3116 2381 2855 2742 
Q 2594 3103 2138 3103 
Q 1681 3103 1420 2742 
Q 1159 2381 1159 1747 
Q 1159 1113 1420 752 
Q 1681 391 2138 391 
Q 2594 391 2855 752 
Q 3116 1113 3116 1747 
z
" transform="scale(0.015625)"/>
     </defs>
     <use xlink:href="#DejaVuSans-50"/>
     <use xlink:href="#DejaVuSans-65" x="56.677734"/>
     <use xlink:href="#DejaVuSans-72" x="118.201172"/>
     <use xlink:href="#DejaVuSans-63" x="157.064453"/>
     <use xlink:href="#DejaVuSans-65" x="212.044922"/>
     <use xlink:href="#DejaVuSans-6e" x="273.568359"/>
     <use xlink:href="#DejaVuSans-74" x="336.947266"/>
     <use xlink:href="#DejaVuSans-20" x="376.15625"/>
     <use xlink:href="#DejaVuSans-6f" x="407.943359"/>
     <use xlink:href="#DejaVuSans-66" x="469.125"/>
     <use xlink:href="#DejaVuSans-20" x="504.330078"/>
     <use xlink:href="#DejaVuSans-56" x="536.117188"/>
     <use xlink:href="#DejaVuSans-6f" x="596.775391"/>
     <use xlink:href="#DejaVuSans-6c" x="657.957031"/>
     <use xlink:href="#DejaVuSans-75" x="685.740234"/>
     <use xlink:href="#DejaVuSans-6d" x="749.119141"/>
     <use xlink:href="#DejaVuSans-65" x="846.53125"/>
     <use xlink:href="#DejaVuSans-73" x="908.054688"/>
     <use xlink:href="#DejaVuSans-20" x="960.154297"/>
     <use xlink:href="#DejaVuSans-43" x="991.941406"/>
     <use xlink:href="#DejaVuSans-6f" x="1061.765625"/>
     <use xlink:href="#DejaVuSans-6e" x="1122.947266"/>
     <use xlink:href="#DejaVuSans-74" x="1186.326172"/>
     <use xlink:href="#DejaVuSans-61" x="1225.535156"/>
     <use xlink:href="#DejaVuSans-69" x="1286.814453"/>
     <use xlink:href="#DejaVuSans-6e" x="1314.597656"/>
     <use xlink:href="#DejaVuSans-69" x="1377.976562"/>
     <use xlink:href="#DejaVuSans-6e" x="1405.759766"/>
     <use xlink:href="#DejaVuSans-67" x="1469.138672"/>
     <use xlink:href="#DejaVuSans-20" x="1532.615234"/>
     <use xlink:href="#DejaVuSans-4d" x="1564.402344"/>
     <use xlink:href="#DejaVuSans-61" x="1650.681641"/>
     <use xlink:href="#DejaVuSans-70" x="1711.960938"/>
     <use xlink:href="#DejaVuSans-73" x="1775.4375"/>
     <use xlink:href="#DejaVuSans-20" x="1827.537109"/>
     <use xlink:href="#DejaVuSans-70" x="1859.324219"/>
     <use xlink:href="#DejaVuSans-65" x="1922.800781"/>
     <use xlink:href="#DejaVuSans-72" x="1984.324219"/>
     <use xlink:href="#DejaVuSans-20" x="2025.4375"/>
     <use xlink:href="#DejaVuSans-59" x="2057.224609"/>
     <use xlink:href="#DejaVuSans-65" x="2105.058594"/>
     <use xlink:href="#DejaVuSans-61" x="2166.582031"/>
     <use xlink:href="#DejaVuSans-72" x="2227.861328"/>
    </g>
   </g>
   <g id="legend_1">
    <g id="patch_132">
     <path d="M 64.6 78.82825 
L 273.767187 78.82825 
Q 275.767187 78.82825 275.767187 76.82825 
L 275.767187 48.472 
Q 275.767187 46.472 273.767187 46.472 
L 64.6 46.472 
Q 62.6 46.472 62.6 48.472 
L 62.6 76.82825 
Q 62.6 78.82825 64.6 78.82825 
z
" style="fill: #ffffff; opacity: 0.8; stroke: #cccccc; stroke-linejoin: miter"/>
    </g>
    <g id="line2d_22">
     <path d="M 66.6 54.570437 
L 86.6 54.570437 
" style="fill: none; stroke: #808080; stroke-opacity: 0.6; stroke-width: 1.5"/>
    </g>
    <g id="text_18">
     <!-- mean: 0.93%, CI: +/- 0.31 -->
     <g transform="translate(94.6 58.070437) scale(0.1 -0.1)">
      <defs>
       <path id="DejaVuSans-3a" d="M 750 794 
L 1409 794 
L 1409 0 
L 750 0 
L 750 794 
z
M 750 3309 
L 1409 3309 
L 1409 2516 
L 750 2516 
L 750 3309 
z
" transform="scale(0.015625)"/>
       <path id="DejaVuSans-25" d="M 4653 2053 
Q 4381 2053 4226 1822 
Q 4072 1591 4072 1178 
Q 4072 772 4226 539 
Q 4381 306 4653 306 
Q 4919 306 5073 539 
Q 5228 772 5228 1178 
Q 5228 1588 5073 1820 
Q 4919 2053 4653 2053 
z
M 4653 2450 
Q 5147 2450 5437 2106 
Q 5728 1763 5728 1178 
Q 5728 594 5436 251 
Q 5144 -91 4653 -91 
Q 4153 -91 3862 251 
Q 3572 594 3572 1178 
Q 3572 1766 3864 2108 
Q 4156 2450 4653 2450 
z
M 1428 4353 
Q 1159 4353 1004 4120 
Q 850 3888 850 3481 
Q 850 3069 1003 2837 
Q 1156 2606 1428 2606 
Q 1700 2606 1854 2837 
Q 2009 3069 2009 3481 
Q 2009 3884 1853 4118 
Q 1697 4353 1428 4353 
z
M 4250 4750 
L 4750 4750 
L 1831 -91 
L 1331 -91 
L 4250 4750 
z
M 1428 4750 
Q 1922 4750 2215 4408 
Q 2509 4066 2509 3481 
Q 2509 2891 2217 2550 
Q 1925 2209 1428 2209 
Q 931 2209 642 2551 
Q 353 2894 353 3481 
Q 353 4063 643 4406 
Q 934 4750 1428 4750 
z
" transform="scale(0.015625)"/>
       <path id="DejaVuSans-2c" d="M 750 794 
L 1409 794 
L 1409 256 
L 897 -744 
L 494 -744 
L 750 256 
L 750 794 
z
" transform="scale(0.015625)"/>
       <path id="DejaVuSans-49" d="M 628 4666 
L 1259 4666 
L 1259 0 
L 628 0 
L 628 4666 
z
" transform="scale(0.015625)"/>
       <path id="DejaVuSans-2b" d="M 2944 4013 
L 2944 2272 
L 4684 2272 
L 4684 1741 
L 2944 1741 
L 2944 0 
L 2419 0 
L 2419 1741 
L 678 1741 
L 678 2272 
L 2419 2272 
L 2419 4013 
L 2944 4013 
z
" transform="scale(0.015625)"/>
       <path id="DejaVuSans-2f" d="M 1625 4666 
L 2156 4666 
L 531 -594 
L 0 -594 
L 1625 4666 
z
" transform="scale(0.015625)"/>
       <path id="DejaVuSans-2d" d="M 313 2009 
L 1997 2009 
L 1997 1497 
L 313 1497 
L 313 2009 
z
" transform="scale(0.015625)"/>
      </defs>
      <use xlink:href="#DejaVuSans-6d"/>
      <use xlink:href="#DejaVuSans-65" x="97.412109"/>
      <use xlink:href="#DejaVuSans-61" x="158.935547"/>
      <use xlink:href="#DejaVuSans-6e" x="220.214844"/>
      <use xlink:href="#DejaVuSans-3a" x="283.59375"/>
      <use xlink:href="#DejaVuSans-20" x="317.285156"/>
      <use xlink:href="#DejaVuSans-30" x="349.072266"/>
      <use xlink:href="#DejaVuSans-2e" x="412.695312"/>
      <use xlink:href="#DejaVuSans-39" x="444.482422"/>
      <use xlink:href="#DejaVuSans-33" x="508.105469"/>
      <use xlink:href="#DejaVuSans-25" x="571.728516"/>
      <use xlink:href="#DejaVuSans-2c" x="666.748047"/>
      <use xlink:href="#DejaVuSans-20" x="698.535156"/>
      <use xlink:href="#DejaVuSans-43" x="730.322266"/>
      <use xlink:href="#DejaVuSans-49" x="800.146484"/>
      <use xlink:href="#DejaVuSans-3a" x="829.638672"/>
      <use xlink:href="#DejaVuSans-20" x="863.330078"/>
      <use xlink:href="#DejaVuSans-2b" x="895.117188"/>
      <use xlink:href="#DejaVuSans-2f" x="978.90625"/>
      <use xlink:href="#DejaVuSans-2d" x="1012.597656"/>
      <use xlink:href="#DejaVuSans-20" x="1048.681641"/>
      <use xlink:href="#DejaVuSans-30" x="1080.46875"/>
      <use xlink:href="#DejaVuSans-2e" x="1144.091797"/>
      <use xlink:href="#DejaVuSans-33" x="1175.878906"/>
      <use xlink:href="#DejaVuSans-31" x="1239.501953"/>
     </g>
    </g>
    <g id="patch_133">
     <path d="M 66.6 72.748562 
L 86.6 72.748562 
L 86.6 65.748562 
L 66.6 65.748562 
z
" style="fill: #ff0000"/>
    </g>
    <g id="text_19">
     <!-- % of vols containing maps per year -->
     <g transform="translate(94.6 72.748562) scale(0.1 -0.1)">
      <defs>
       <path id="DejaVuSans-76" d="M 191 3500 
L 800 3500 
L 1894 563 
L 2988 3500 
L 3597 3500 
L 2284 0 
L 1503 0 
L 191 3500 
z
" transform="scale(0.015625)"/>
       <path id="DejaVuSans-79" d="M 2059 -325 
Q 1816 -950 1584 -1140 
Q 1353 -1331 966 -1331 
L 506 -1331 
L 506 -850 
L 844 -850 
Q 1081 -850 1212 -737 
Q 1344 -625 1503 -206 
L 1606 56 
L 191 3500 
L 800 3500 
L 1894 763 
L 2988 3500 
L 3597 3500 
L 2059 -325 
z
" transform="scale(0.015625)"/>
      </defs>
      <use xlink:href="#DejaVuSans-25"/>
      <use xlink:href="#DejaVuSans-20" x="95.019531"/>
      <use xlink:href="#DejaVuSans-6f" x="126.806641"/>
      <use xlink:href="#DejaVuSans-66" x="187.988281"/>
      <use xlink:href="#DejaVuSans-20" x="223.193359"/>
      <use xlink:href="#DejaVuSans-76" x="254.980469"/>
      <use xlink:href="#DejaVuSans-6f" x="314.160156"/>
      <use xlink:href="#DejaVuSans-6c" x="375.341797"/>
      <use xlink:href="#DejaVuSans-73" x="403.125"/>
      <use xlink:href="#DejaVuSans-20" x="455.224609"/>
      <use xlink:href="#DejaVuSans-63" x="487.011719"/>
      <use xlink:href="#DejaVuSans-6f" x="541.992188"/>
      <use xlink:href="#DejaVuSans-6e" x="603.173828"/>
      <use xlink:href="#DejaVuSans-74" x="666.552734"/>
      <use xlink:href="#DejaVuSans-61" x="705.761719"/>
      <use xlink:href="#DejaVuSans-69" x="767.041016"/>
      <use xlink:href="#DejaVuSans-6e" x="794.824219"/>
      <use xlink:href="#DejaVuSans-69" x="858.203125"/>
      <use xlink:href="#DejaVuSans-6e" x="885.986328"/>
      <use xlink:href="#DejaVuSans-67" x="949.365234"/>
      <use xlink:href="#DejaVuSans-20" x="1012.841797"/>
      <use xlink:href="#DejaVuSans-6d" x="1044.628906"/>
      <use xlink:href="#DejaVuSans-61" x="1142.041016"/>
      <use xlink:href="#DejaVuSans-70" x="1203.320312"/>
      <use xlink:href="#DejaVuSans-73" x="1266.796875"/>
      <use xlink:href="#DejaVuSans-20" x="1318.896484"/>
      <use xlink:href="#DejaVuSans-70" x="1350.683594"/>
      <use xlink:href="#DejaVuSans-65" x="1414.160156"/>
      <use xlink:href="#DejaVuSans-72" x="1475.683594"/>
      <use xlink:href="#DejaVuSans-20" x="1516.796875"/>
      <use xlink:href="#DejaVuSans-79" x="1548.583984"/>
      <use xlink:href="#DejaVuSans-65" x="1607.763672"/>
      <use xlink:href="#DejaVuSans-61" x="1669.287109"/>
      <use xlink:href="#DejaVuSans-72" x="1730.566406"/>
     </g>
    </g>
   </g>
  </g>
 </g>
 <defs>
  <clipPath id="p13bbc1ffdc">
   <rect x="57.6" y="41.472" width="357.12" height="266.112"/>
  </clipPath>
 </defs>
</svg>
