<?xml version="1.0" encoding="utf-8" standalone="no"?>
<!DOCTYPE svg PUBLIC "-//W3C//DTD SVG 1.1//EN"
  "http://www.w3.org/Graphics/SVG/1.1/DTD/svg11.dtd">
<svg xmlns:xlink="http://www.w3.org/1999/xlink" width="460.8pt" height="345.6pt" viewBox="0 0 460.8 345.6" xmlns="http://www.w3.org/2000/svg" version="1.1">
 <metadata>
  <rdf:RDF xmlns:dc="http://purl.org/dc/elements/1.1/" xmlns:cc="http://creativecommons.org/ns#" xmlns:rdf="http://www.w3.org/1999/02/22-rdf-syntax-ns#">
   <cc:Work>
    <dc:type rdf:resource="http://purl.org/dc/dcmitype/StillImage"/>
    <dc:date>2025-07-14T13:05:01.725649</dc:date>
    <dc:format>image/svg+xml</dc:format>
    <dc:creator>
     <cc:Agent>
      <dc:title>Matplotlib v3.9.2, https://matplotlib.org/</dc:title>
     </cc:Agent>
    </dc:creator>
   </cc:Work>
  </rdf:RDF>
 </metadata>
 <defs>
  <style type="text/css">*{stroke-linejoin: round; stroke-linecap: butt}</style>
 </defs>
 <g id="figure_1">
  <g id="patch_1">
   <path d="M 0 345.6 
L 460.8 345.6 
L 460.8 0 
L 0 0 
z
" style="fill: #ffffff"/>
  </g>
  <g id="axes_1">
   <g id="patch_2">
    <path d="M 57.6 307.584 
L 414.72 307.584 
L 414.72 41.472 
L 57.6 41.472 
z
" style="fill: #ffffff"/>
   </g>
   <g id="patch_3">
    <path d="M 73.832727 307.584 
L 74.914909 307.584 
L 74.914909 307.584 
L 73.832727 307.584 
z
" clip-path="url(#pf3ae569488)" style="fill: #0000ff"/>
   </g>
   <g id="patch_4">
    <path d="M 74.914909 307.584 
L 75.997091 307.584 
L 75.997091 307.584 
L 74.914909 307.584 
z
" clip-path="url(#pf3ae569488)" style="fill: #0000ff"/>
   </g>
   <g id="patch_5">
    <path d="M 75.997091 307.584 
L 77.079273 307.584 
L 77.079273 307.584 
L 75.997091 307.584 
z
" clip-path="url(#pf3ae569488)" style="fill: #0000ff"/>
   </g>
   <g id="patch_6">
    <path d="M 77.079273 307.584 
L 78.161455 307.584 
L 78.161455 307.232 
L 77.079273 307.232 
z
" clip-path="url(#pf3ae569488)" style="fill: #0000ff"/>
   </g>
   <g id="patch_7">
    <path d="M 78.161455 307.584 
L 79.243636 307.584 
L 79.243636 307.584 
L 78.161455 307.584 
z
" clip-path="url(#pf3ae569488)" style="fill: #0000ff"/>
   </g>
   <g id="patch_8">
    <path d="M 79.243636 307.584 
L 80.325818 307.584 
L 80.325818 307.584 
L 79.243636 307.584 
z
" clip-path="url(#pf3ae569488)" style="fill: #0000ff"/>
   </g>
   <g id="patch_9">
    <path d="M 80.325818 307.584 
L 81.408 307.584 
L 81.408 307.584 
L 80.325818 307.584 
z
" clip-path="url(#pf3ae569488)" style="fill: #0000ff"/>
   </g>
   <g id="patch_10">
    <path d="M 81.408 307.584 
L 82.490182 307.584 
L 82.490182 307.584 
L 81.408 307.584 
z
" clip-path="url(#pf3ae569488)" style="fill: #0000ff"/>
   </g>
   <g id="patch_11">
    <path d="M 82.490182 307.584 
L 83.572364 307.584 
L 83.572364 307.114667 
L 82.490182 307.114667 
z
" clip-path="url(#pf3ae569488)" style="fill: #0000ff"/>
   </g>
   <g id="patch_12">
    <path d="M 83.572364 307.584 
L 84.654545 307.584 
L 84.654545 307.349333 
L 83.572364 307.349333 
z
" clip-path="url(#pf3ae569488)" style="fill: #0000ff"/>
   </g>
   <g id="patch_13">
    <path d="M 84.654545 307.584 
L 85.736727 307.584 
L 85.736727 307.584 
L 84.654545 307.584 
z
" clip-path="url(#pf3ae569488)" style="fill: #0000ff"/>
   </g>
   <g id="patch_14">
    <path d="M 85.736727 307.584 
L 86.818909 307.584 
L 86.818909 307.584 
L 85.736727 307.584 
z
" clip-path="url(#pf3ae569488)" style="fill: #0000ff"/>
   </g>
   <g id="patch_15">
    <path d="M 86.818909 307.584 
L 87.901091 307.584 
L 87.901091 307.584 
L 86.818909 307.584 
z
" clip-path="url(#pf3ae569488)" style="fill: #0000ff"/>
   </g>
   <g id="patch_16">
    <path d="M 87.901091 307.584 
L 88.983273 307.584 
L 88.983273 307.584 
L 87.901091 307.584 
z
" clip-path="url(#pf3ae569488)" style="fill: #0000ff"/>
   </g>
   <g id="patch_17">
    <path d="M 88.983273 307.584 
L 90.065455 307.584 
L 90.065455 307.584 
L 88.983273 307.584 
z
" clip-path="url(#pf3ae569488)" style="fill: #0000ff"/>
   </g>
   <g id="patch_18">
    <path d="M 90.065455 307.584 
L 91.147636 307.584 
L 91.147636 307.349333 
L 90.065455 307.349333 
z
" clip-path="url(#pf3ae569488)" style="fill: #0000ff"/>
   </g>
   <g id="patch_19">
    <path d="M 91.147636 307.584 
L 92.229818 307.584 
L 92.229818 307.584 
L 91.147636 307.584 
z
" clip-path="url(#pf3ae569488)" style="fill: #0000ff"/>
   </g>
   <g id="patch_20">
    <path d="M 92.229818 307.584 
L 93.312 307.584 
L 93.312 307.466667 
L 92.229818 307.466667 
z
" clip-path="url(#pf3ae569488)" style="fill: #0000ff"/>
   </g>
   <g id="patch_21">
    <path d="M 93.312 307.584 
L 94.394182 307.584 
L 94.394182 307.584 
L 93.312 307.584 
z
" clip-path="url(#pf3ae569488)" style="fill: #0000ff"/>
   </g>
   <g id="patch_22">
    <path d="M 94.394182 307.584 
L 95.476364 307.584 
L 95.476364 306.997333 
L 94.394182 306.997333 
z
" clip-path="url(#pf3ae569488)" style="fill: #0000ff"/>
   </g>
   <g id="patch_23">
    <path d="M 95.476364 307.584 
L 96.558545 307.584 
L 96.558545 306.997333 
L 95.476364 306.997333 
z
" clip-path="url(#pf3ae569488)" style="fill: #0000ff"/>
   </g>
   <g id="patch_24">
    <path d="M 96.558545 307.584 
L 97.640727 307.584 
L 97.640727 307.466667 
L 96.558545 307.466667 
z
" clip-path="url(#pf3ae569488)" style="fill: #0000ff"/>
   </g>
   <g id="patch_25">
    <path d="M 97.640727 307.584 
L 98.722909 307.584 
L 98.722909 306.997333 
L 97.640727 306.997333 
z
" clip-path="url(#pf3ae569488)" style="fill: #0000ff"/>
   </g>
   <g id="patch_26">
    <path d="M 98.722909 307.584 
L 99.805091 307.584 
L 99.805091 307.584 
L 98.722909 307.584 
z
" clip-path="url(#pf3ae569488)" style="fill: #0000ff"/>
   </g>
   <g id="patch_27">
    <path d="M 99.805091 307.584 
L 100.887273 307.584 
L 100.887273 307.584 
L 99.805091 307.584 
z
" clip-path="url(#pf3ae569488)" style="fill: #0000ff"/>
   </g>
   <g id="patch_28">
    <path d="M 100.887273 307.584 
L 101.969455 307.584 
L 101.969455 307.466667 
L 100.887273 307.466667 
z
" clip-path="url(#pf3ae569488)" style="fill: #0000ff"/>
   </g>
   <g id="patch_29">
    <path d="M 101.969455 307.584 
L 103.051636 307.584 
L 103.051636 305.824 
L 101.969455 305.824 
z
" clip-path="url(#pf3ae569488)" style="fill: #0000ff"/>
   </g>
   <g id="patch_30">
    <path d="M 103.051636 307.584 
L 104.133818 307.584 
L 104.133818 306.645333 
L 103.051636 306.645333 
z
" clip-path="url(#pf3ae569488)" style="fill: #0000ff"/>
   </g>
   <g id="patch_31">
    <path d="M 104.133818 307.584 
L 105.216 307.584 
L 105.216 307.466667 
L 104.133818 307.466667 
z
" clip-path="url(#pf3ae569488)" style="fill: #0000ff"/>
   </g>
   <g id="patch_32">
    <path d="M 105.216 307.584 
L 106.298182 307.584 
L 106.298182 307.114667 
L 105.216 307.114667 
z
" clip-path="url(#pf3ae569488)" style="fill: #0000ff"/>
   </g>
   <g id="patch_33">
    <path d="M 106.298182 307.584 
L 107.380364 307.584 
L 107.380364 307.466667 
L 106.298182 307.466667 
z
" clip-path="url(#pf3ae569488)" style="fill: #0000ff"/>
   </g>
   <g id="patch_34">
    <path d="M 107.380364 307.584 
L 108.462545 307.584 
L 108.462545 307.584 
L 107.380364 307.584 
z
" clip-path="url(#pf3ae569488)" style="fill: #0000ff"/>
   </g>
   <g id="patch_35">
    <path d="M 108.462545 307.584 
L 109.544727 307.584 
L 109.544727 307.232 
L 108.462545 307.232 
z
" clip-path="url(#pf3ae569488)" style="fill: #0000ff"/>
   </g>
   <g id="patch_36">
    <path d="M 109.544727 307.584 
L 110.626909 307.584 
L 110.626909 307.232 
L 109.544727 307.232 
z
" clip-path="url(#pf3ae569488)" style="fill: #0000ff"/>
   </g>
   <g id="patch_37">
    <path d="M 110.626909 307.584 
L 111.709091 307.584 
L 111.709091 307.584 
L 110.626909 307.584 
z
" clip-path="url(#pf3ae569488)" style="fill: #0000ff"/>
   </g>
   <g id="patch_38">
    <path d="M 111.709091 307.584 
L 112.791273 307.584 
L 112.791273 307.232 
L 111.709091 307.232 
z
" clip-path="url(#pf3ae569488)" style="fill: #0000ff"/>
   </g>
   <g id="patch_39">
    <path d="M 112.791273 307.584 
L 113.873455 307.584 
L 113.873455 306.293333 
L 112.791273 306.293333 
z
" clip-path="url(#pf3ae569488)" style="fill: #0000ff"/>
   </g>
   <g id="patch_40">
    <path d="M 113.873455 307.584 
L 114.955636 307.584 
L 114.955636 307.584 
L 113.873455 307.584 
z
" clip-path="url(#pf3ae569488)" style="fill: #0000ff"/>
   </g>
   <g id="patch_41">
    <path d="M 114.955636 307.584 
L 116.037818 307.584 
L 116.037818 307.584 
L 114.955636 307.584 
z
" clip-path="url(#pf3ae569488)" style="fill: #0000ff"/>
   </g>
   <g id="patch_42">
    <path d="M 116.037818 307.584 
L 117.12 307.584 
L 117.12 306.762667 
L 116.037818 306.762667 
z
" clip-path="url(#pf3ae569488)" style="fill: #0000ff"/>
   </g>
   <g id="patch_43">
    <path d="M 117.12 307.584 
L 118.202182 307.584 
L 118.202182 307.349333 
L 117.12 307.349333 
z
" clip-path="url(#pf3ae569488)" style="fill: #0000ff"/>
   </g>
   <g id="patch_44">
    <path d="M 118.202182 307.584 
L 119.284364 307.584 
L 119.284364 307.114667 
L 118.202182 307.114667 
z
" clip-path="url(#pf3ae569488)" style="fill: #0000ff"/>
   </g>
   <g id="patch_45">
    <path d="M 119.284364 307.584 
L 120.366545 307.584 
L 120.366545 307.466667 
L 119.284364 307.466667 
z
" clip-path="url(#pf3ae569488)" style="fill: #0000ff"/>
   </g>
   <g id="patch_46">
    <path d="M 120.366545 307.584 
L 121.448727 307.584 
L 121.448727 306.997333 
L 120.366545 306.997333 
z
" clip-path="url(#pf3ae569488)" style="fill: #0000ff"/>
   </g>
   <g id="patch_47">
    <path d="M 121.448727 307.584 
L 122.530909 307.584 
L 122.530909 307.584 
L 121.448727 307.584 
z
" clip-path="url(#pf3ae569488)" style="fill: #0000ff"/>
   </g>
   <g id="patch_48">
    <path d="M 122.530909 307.584 
L 123.613091 307.584 
L 123.613091 307.349333 
L 122.530909 307.349333 
z
" clip-path="url(#pf3ae569488)" style="fill: #0000ff"/>
   </g>
   <g id="patch_49">
    <path d="M 123.613091 307.584 
L 124.695273 307.584 
L 124.695273 307.584 
L 123.613091 307.584 
z
" clip-path="url(#pf3ae569488)" style="fill: #0000ff"/>
   </g>
   <g id="patch_50">
    <path d="M 124.695273 307.584 
L 125.777455 307.584 
L 125.777455 307.232 
L 124.695273 307.232 
z
" clip-path="url(#pf3ae569488)" style="fill: #0000ff"/>
   </g>
   <g id="patch_51">
    <path d="M 125.777455 307.584 
L 126.859636 307.584 
L 126.859636 307.466667 
L 125.777455 307.466667 
z
" clip-path="url(#pf3ae569488)" style="fill: #0000ff"/>
   </g>
   <g id="patch_52">
    <path d="M 126.859636 307.584 
L 127.941818 307.584 
L 127.941818 306.176 
L 126.859636 306.176 
z
" clip-path="url(#pf3ae569488)" style="fill: #0000ff"/>
   </g>
   <g id="patch_53">
    <path d="M 127.941818 307.584 
L 129.024 307.584 
L 129.024 307.349333 
L 127.941818 307.349333 
z
" clip-path="url(#pf3ae569488)" style="fill: #0000ff"/>
   </g>
   <g id="patch_54">
    <path d="M 129.024 307.584 
L 130.106182 307.584 
L 130.106182 306.293333 
L 129.024 306.293333 
z
" clip-path="url(#pf3ae569488)" style="fill: #0000ff"/>
   </g>
   <g id="patch_55">
    <path d="M 130.106182 307.584 
L 131.188364 307.584 
L 131.188364 306.293333 
L 130.106182 306.293333 
z
" clip-path="url(#pf3ae569488)" style="fill: #0000ff"/>
   </g>
   <g id="patch_56">
    <path d="M 131.188364 307.584 
L 132.270545 307.584 
L 132.270545 306.293333 
L 131.188364 306.293333 
z
" clip-path="url(#pf3ae569488)" style="fill: #0000ff"/>
   </g>
   <g id="patch_57">
    <path d="M 132.270545 307.584 
L 133.352727 307.584 
L 133.352727 306.997333 
L 132.270545 306.997333 
z
" clip-path="url(#pf3ae569488)" style="fill: #0000ff"/>
   </g>
   <g id="patch_58">
    <path d="M 133.352727 307.584 
L 134.434909 307.584 
L 134.434909 306.176 
L 133.352727 306.176 
z
" clip-path="url(#pf3ae569488)" style="fill: #0000ff"/>
   </g>
   <g id="patch_59">
    <path d="M 134.434909 307.584 
L 135.517091 307.584 
L 135.517091 306.997333 
L 134.434909 306.997333 
z
" clip-path="url(#pf3ae569488)" style="fill: #0000ff"/>
   </g>
   <g id="patch_60">
    <path d="M 135.517091 307.584 
L 136.599273 307.584 
L 136.599273 307.584 
L 135.517091 307.584 
z
" clip-path="url(#pf3ae569488)" style="fill: #0000ff"/>
   </g>
   <g id="patch_61">
    <path d="M 136.599273 307.584 
L 137.681455 307.584 
L 137.681455 307.114667 
L 136.599273 307.114667 
z
" clip-path="url(#pf3ae569488)" style="fill: #0000ff"/>
   </g>
   <g id="patch_62">
    <path d="M 137.681455 307.584 
L 138.763636 307.584 
L 138.763636 306.997333 
L 137.681455 306.997333 
z
" clip-path="url(#pf3ae569488)" style="fill: #0000ff"/>
   </g>
   <g id="patch_63">
    <path d="M 138.763636 307.584 
L 139.845818 307.584 
L 139.845818 306.88 
L 138.763636 306.88 
z
" clip-path="url(#pf3ae569488)" style="fill: #0000ff"/>
   </g>
   <g id="patch_64">
    <path d="M 139.845818 307.584 
L 140.928 307.584 
L 140.928 305.824 
L 139.845818 305.824 
z
" clip-path="url(#pf3ae569488)" style="fill: #0000ff"/>
   </g>
   <g id="patch_65">
    <path d="M 140.928 307.584 
L 142.010182 307.584 
L 142.010182 306.762667 
L 140.928 306.762667 
z
" clip-path="url(#pf3ae569488)" style="fill: #0000ff"/>
   </g>
   <g id="patch_66">
    <path d="M 142.010182 307.584 
L 143.092364 307.584 
L 143.092364 306.997333 
L 142.010182 306.997333 
z
" clip-path="url(#pf3ae569488)" style="fill: #0000ff"/>
   </g>
   <g id="patch_67">
    <path d="M 143.092364 307.584 
L 144.174545 307.584 
L 144.174545 306.645333 
L 143.092364 306.645333 
z
" clip-path="url(#pf3ae569488)" style="fill: #0000ff"/>
   </g>
   <g id="patch_68">
    <path d="M 144.174545 307.584 
L 145.256727 307.584 
L 145.256727 306.762667 
L 144.174545 306.762667 
z
" clip-path="url(#pf3ae569488)" style="fill: #0000ff"/>
   </g>
   <g id="patch_69">
    <path d="M 145.256727 307.584 
L 146.338909 307.584 
L 146.338909 306.058667 
L 145.256727 306.058667 
z
" clip-path="url(#pf3ae569488)" style="fill: #0000ff"/>
   </g>
   <g id="patch_70">
    <path d="M 146.338909 307.584 
L 147.421091 307.584 
L 147.421091 306.88 
L 146.338909 306.88 
z
" clip-path="url(#pf3ae569488)" style="fill: #0000ff"/>
   </g>
   <g id="patch_71">
    <path d="M 147.421091 307.584 
L 148.503273 307.584 
L 148.503273 306.762667 
L 147.421091 306.762667 
z
" clip-path="url(#pf3ae569488)" style="fill: #0000ff"/>
   </g>
   <g id="patch_72">
    <path d="M 148.503273 307.584 
L 149.585455 307.584 
L 149.585455 306.645333 
L 148.503273 306.645333 
z
" clip-path="url(#pf3ae569488)" style="fill: #0000ff"/>
   </g>
   <g id="patch_73">
    <path d="M 149.585455 307.584 
L 150.667636 307.584 
L 150.667636 306.293333 
L 149.585455 306.293333 
z
" clip-path="url(#pf3ae569488)" style="fill: #0000ff"/>
   </g>
   <g id="patch_74">
    <path d="M 150.667636 307.584 
L 151.749818 307.584 
L 151.749818 305.237333 
L 150.667636 305.237333 
z
" clip-path="url(#pf3ae569488)" style="fill: #0000ff"/>
   </g>
   <g id="patch_75">
    <path d="M 151.749818 307.584 
L 152.832 307.584 
L 152.832 306.88 
L 151.749818 306.88 
z
" clip-path="url(#pf3ae569488)" style="fill: #0000ff"/>
   </g>
   <g id="patch_76">
    <path d="M 152.832 307.584 
L 153.914182 307.584 
L 153.914182 306.997333 
L 152.832 306.997333 
z
" clip-path="url(#pf3ae569488)" style="fill: #0000ff"/>
   </g>
   <g id="patch_77">
    <path d="M 153.914182 307.584 
L 154.996364 307.584 
L 154.996364 305.12 
L 153.914182 305.12 
z
" clip-path="url(#pf3ae569488)" style="fill: #0000ff"/>
   </g>
   <g id="patch_78">
    <path d="M 154.996364 307.584 
L 156.078545 307.584 
L 156.078545 306.293333 
L 154.996364 306.293333 
z
" clip-path="url(#pf3ae569488)" style="fill: #0000ff"/>
   </g>
   <g id="patch_79">
    <path d="M 156.078545 307.584 
L 157.160727 307.584 
L 157.160727 306.997333 
L 156.078545 306.997333 
z
" clip-path="url(#pf3ae569488)" style="fill: #0000ff"/>
   </g>
   <g id="patch_80">
    <path d="M 157.160727 307.584 
L 158.242909 307.584 
L 158.242909 305.12 
L 157.160727 305.12 
z
" clip-path="url(#pf3ae569488)" style="fill: #0000ff"/>
   </g>
   <g id="patch_81">
    <path d="M 158.242909 307.584 
L 159.325091 307.584 
L 159.325091 306.410667 
L 158.242909 306.410667 
z
" clip-path="url(#pf3ae569488)" style="fill: #0000ff"/>
   </g>
   <g id="patch_82">
    <path d="M 159.325091 307.584 
L 160.407273 307.584 
L 160.407273 307.114667 
L 159.325091 307.114667 
z
" clip-path="url(#pf3ae569488)" style="fill: #0000ff"/>
   </g>
   <g id="patch_83">
    <path d="M 160.407273 307.584 
L 161.489455 307.584 
L 161.489455 306.176 
L 160.407273 306.176 
z
" clip-path="url(#pf3ae569488)" style="fill: #0000ff"/>
   </g>
   <g id="patch_84">
    <path d="M 161.489455 307.584 
L 162.571636 307.584 
L 162.571636 306.176 
L 161.489455 306.176 
z
" clip-path="url(#pf3ae569488)" style="fill: #0000ff"/>
   </g>
   <g id="patch_85">
    <path d="M 162.571636 307.584 
L 163.653818 307.584 
L 163.653818 306.997333 
L 162.571636 306.997333 
z
" clip-path="url(#pf3ae569488)" style="fill: #0000ff"/>
   </g>
   <g id="patch_86">
    <path d="M 163.653818 307.584 
L 164.736 307.584 
L 164.736 305.706667 
L 163.653818 305.706667 
z
" clip-path="url(#pf3ae569488)" style="fill: #0000ff"/>
   </g>
   <g id="patch_87">
    <path d="M 164.736 307.584 
L 165.818182 307.584 
L 165.818182 305.12 
L 164.736 305.12 
z
" clip-path="url(#pf3ae569488)" style="fill: #0000ff"/>
   </g>
   <g id="patch_88">
    <path d="M 165.818182 307.584 
L 166.900364 307.584 
L 166.900364 305.589333 
L 165.818182 305.589333 
z
" clip-path="url(#pf3ae569488)" style="fill: #0000ff"/>
   </g>
   <g id="patch_89">
    <path d="M 166.900364 307.584 
L 167.982545 307.584 
L 167.982545 305.706667 
L 166.900364 305.706667 
z
" clip-path="url(#pf3ae569488)" style="fill: #0000ff"/>
   </g>
   <g id="patch_90">
    <path d="M 167.982545 307.584 
L 169.064727 307.584 
L 169.064727 305.941333 
L 167.982545 305.941333 
z
" clip-path="url(#pf3ae569488)" style="fill: #0000ff"/>
   </g>
   <g id="patch_91">
    <path d="M 169.064727 307.584 
L 170.146909 307.584 
L 170.146909 305.824 
L 169.064727 305.824 
z
" clip-path="url(#pf3ae569488)" style="fill: #0000ff"/>
   </g>
   <g id="patch_92">
    <path d="M 170.146909 307.584 
L 171.229091 307.584 
L 171.229091 304.885333 
L 170.146909 304.885333 
z
" clip-path="url(#pf3ae569488)" style="fill: #0000ff"/>
   </g>
   <g id="patch_93">
    <path d="M 171.229091 307.584 
L 172.311273 307.584 
L 172.311273 305.12 
L 171.229091 305.12 
z
" clip-path="url(#pf3ae569488)" style="fill: #0000ff"/>
   </g>
   <g id="patch_94">
    <path d="M 172.311273 307.584 
L 173.393455 307.584 
L 173.393455 304.533333 
L 172.311273 304.533333 
z
" clip-path="url(#pf3ae569488)" style="fill: #0000ff"/>
   </g>
   <g id="patch_95">
    <path d="M 173.393455 307.584 
L 174.475636 307.584 
L 174.475636 303.125333 
L 173.393455 303.125333 
z
" clip-path="url(#pf3ae569488)" style="fill: #0000ff"/>
   </g>
   <g id="patch_96">
    <path d="M 174.475636 307.584 
L 175.557818 307.584 
L 175.557818 304.416 
L 174.475636 304.416 
z
" clip-path="url(#pf3ae569488)" style="fill: #0000ff"/>
   </g>
   <g id="patch_97">
    <path d="M 175.557818 307.584 
L 176.64 307.584 
L 176.64 304.885333 
L 175.557818 304.885333 
z
" clip-path="url(#pf3ae569488)" style="fill: #0000ff"/>
   </g>
   <g id="patch_98">
    <path d="M 176.64 307.584 
L 177.722182 307.584 
L 177.722182 304.064 
L 176.64 304.064 
z
" clip-path="url(#pf3ae569488)" style="fill: #0000ff"/>
   </g>
   <g id="patch_99">
    <path d="M 177.722182 307.584 
L 178.804364 307.584 
L 178.804364 303.477333 
L 177.722182 303.477333 
z
" clip-path="url(#pf3ae569488)" style="fill: #0000ff"/>
   </g>
   <g id="patch_100">
    <path d="M 178.804364 307.584 
L 179.886545 307.584 
L 179.886545 303.712 
L 178.804364 303.712 
z
" clip-path="url(#pf3ae569488)" style="fill: #0000ff"/>
   </g>
   <g id="patch_101">
    <path d="M 179.886545 307.584 
L 180.968727 307.584 
L 180.968727 303.477333 
L 179.886545 303.477333 
z
" clip-path="url(#pf3ae569488)" style="fill: #0000ff"/>
   </g>
   <g id="patch_102">
    <path d="M 180.968727 307.584 
L 182.050909 307.584 
L 182.050909 302.069333 
L 180.968727 302.069333 
z
" clip-path="url(#pf3ae569488)" style="fill: #0000ff"/>
   </g>
   <g id="patch_103">
    <path d="M 182.050909 307.584 
L 183.133091 307.584 
L 183.133091 300.544 
L 182.050909 300.544 
z
" clip-path="url(#pf3ae569488)" style="fill: #0000ff"/>
   </g>
   <g id="patch_104">
    <path d="M 183.133091 307.584 
L 184.215273 307.584 
L 184.215273 299.605333 
L 183.133091 299.605333 
z
" clip-path="url(#pf3ae569488)" style="fill: #0000ff"/>
   </g>
   <g id="patch_105">
    <path d="M 184.215273 307.584 
L 185.297455 307.584 
L 185.297455 303.008 
L 184.215273 303.008 
z
" clip-path="url(#pf3ae569488)" style="fill: #0000ff"/>
   </g>
   <g id="patch_106">
    <path d="M 185.297455 307.584 
L 186.379636 307.584 
L 186.379636 301.365333 
L 185.297455 301.365333 
z
" clip-path="url(#pf3ae569488)" style="fill: #0000ff"/>
   </g>
   <g id="patch_107">
    <path d="M 186.379636 307.584 
L 187.461818 307.584 
L 187.461818 299.957333 
L 186.379636 299.957333 
z
" clip-path="url(#pf3ae569488)" style="fill: #0000ff"/>
   </g>
   <g id="patch_108">
    <path d="M 187.461818 307.584 
L 188.544 307.584 
L 188.544 303.242667 
L 187.461818 303.242667 
z
" clip-path="url(#pf3ae569488)" style="fill: #0000ff"/>
   </g>
   <g id="patch_109">
    <path d="M 188.544 307.584 
L 189.626182 307.584 
L 189.626182 300.074667 
L 188.544 300.074667 
z
" clip-path="url(#pf3ae569488)" style="fill: #0000ff"/>
   </g>
   <g id="patch_110">
    <path d="M 189.626182 307.584 
L 190.708364 307.584 
L 190.708364 294.912 
L 189.626182 294.912 
z
" clip-path="url(#pf3ae569488)" style="fill: #0000ff"/>
   </g>
   <g id="patch_111">
    <path d="M 190.708364 307.584 
L 191.790545 307.584 
L 191.790545 295.146667 
L 190.708364 295.146667 
z
" clip-path="url(#pf3ae569488)" style="fill: #0000ff"/>
   </g>
   <g id="patch_112">
    <path d="M 191.790545 307.584 
L 192.872727 307.584 
L 192.872727 293.504 
L 191.790545 293.504 
z
" clip-path="url(#pf3ae569488)" style="fill: #0000ff"/>
   </g>
   <g id="patch_113">
    <path d="M 192.872727 307.584 
L 193.954909 307.584 
L 193.954909 291.744 
L 192.872727 291.744 
z
" clip-path="url(#pf3ae569488)" style="fill: #0000ff"/>
   </g>
   <g id="patch_114">
    <path d="M 193.954909 307.584 
L 195.037091 307.584 
L 195.037091 291.978667 
L 193.954909 291.978667 
z
" clip-path="url(#pf3ae569488)" style="fill: #0000ff"/>
   </g>
   <g id="patch_115">
    <path d="M 195.037091 307.584 
L 196.119273 307.584 
L 196.119273 295.146667 
L 195.037091 295.146667 
z
" clip-path="url(#pf3ae569488)" style="fill: #0000ff"/>
   </g>
   <g id="patch_116">
    <path d="M 196.119273 307.584 
L 197.201455 307.584 
L 197.201455 297.728 
L 196.119273 297.728 
z
" clip-path="url(#pf3ae569488)" style="fill: #0000ff"/>
   </g>
   <g id="patch_117">
    <path d="M 197.201455 307.584 
L 198.283636 307.584 
L 198.283636 294.677333 
L 197.201455 294.677333 
z
" clip-path="url(#pf3ae569488)" style="fill: #0000ff"/>
   </g>
   <g id="patch_118">
    <path d="M 198.283636 307.584 
L 199.365818 307.584 
L 199.365818 294.794667 
L 198.283636 294.794667 
z
" clip-path="url(#pf3ae569488)" style="fill: #0000ff"/>
   </g>
   <g id="patch_119">
    <path d="M 199.365818 307.584 
L 200.448 307.584 
L 200.448 295.029333 
L 199.365818 295.029333 
z
" clip-path="url(#pf3ae569488)" style="fill: #0000ff"/>
   </g>
   <g id="patch_120">
    <path d="M 200.448 307.584 
L 201.530182 307.584 
L 201.530182 295.498667 
L 200.448 295.498667 
z
" clip-path="url(#pf3ae569488)" style="fill: #0000ff"/>
   </g>
   <g id="patch_121">
    <path d="M 201.530182 307.584 
L 202.612364 307.584 
L 202.612364 293.269333 
L 201.530182 293.269333 
z
" clip-path="url(#pf3ae569488)" style="fill: #0000ff"/>
   </g>
   <g id="patch_122">
    <path d="M 202.612364 307.584 
L 203.694545 307.584 
L 203.694545 297.728 
L 202.612364 297.728 
z
" clip-path="url(#pf3ae569488)" style="fill: #0000ff"/>
   </g>
   <g id="patch_123">
    <path d="M 203.694545 307.584 
L 204.776727 307.584 
L 204.776727 283.061333 
L 203.694545 283.061333 
z
" clip-path="url(#pf3ae569488)" style="fill: #0000ff"/>
   </g>
   <g id="patch_124">
    <path d="M 204.776727 307.584 
L 205.858909 307.584 
L 205.858909 286.698667 
L 204.776727 286.698667 
z
" clip-path="url(#pf3ae569488)" style="fill: #0000ff"/>
   </g>
   <g id="patch_125">
    <path d="M 205.858909 307.584 
L 206.941091 307.584 
L 206.941091 286.464 
L 205.858909 286.464 
z
" clip-path="url(#pf3ae569488)" style="fill: #0000ff"/>
   </g>
   <g id="patch_126">
    <path d="M 206.941091 307.584 
L 208.023273 307.584 
L 208.023273 284.469333 
L 206.941091 284.469333 
z
" clip-path="url(#pf3ae569488)" style="fill: #0000ff"/>
   </g>
   <g id="patch_127">
    <path d="M 208.023273 307.584 
L 209.105455 307.584 
L 209.105455 281.184 
L 208.023273 281.184 
z
" clip-path="url(#pf3ae569488)" style="fill: #0000ff"/>
   </g>
   <g id="patch_128">
    <path d="M 209.105455 307.584 
L 210.187636 307.584 
L 210.187636 272.736 
L 209.105455 272.736 
z
" clip-path="url(#pf3ae569488)" style="fill: #0000ff"/>
   </g>
   <g id="patch_129">
    <path d="M 210.187636 307.584 
L 211.269818 307.584 
L 211.269818 282.005333 
L 210.187636 282.005333 
z
" clip-path="url(#pf3ae569488)" style="fill: #0000ff"/>
   </g>
   <g id="patch_130">
    <path d="M 211.269818 307.584 
L 212.352 307.584 
L 212.352 277.312 
L 211.269818 277.312 
z
" clip-path="url(#pf3ae569488)" style="fill: #0000ff"/>
   </g>
   <g id="patch_131">
    <path d="M 212.352 307.584 
L 213.434182 307.584 
L 213.434182 280.48 
L 212.352 280.48 
z
" clip-path="url(#pf3ae569488)" style="fill: #0000ff"/>
   </g>
   <g id="patch_132">
    <path d="M 213.434182 307.584 
L 214.516364 307.584 
L 214.516364 266.165333 
L 213.434182 266.165333 
z
" clip-path="url(#pf3ae569488)" style="fill: #0000ff"/>
   </g>
   <g id="patch_133">
    <path d="M 214.516364 307.584 
L 215.598545 307.584 
L 215.598545 272.853333 
L 214.516364 272.853333 
z
" clip-path="url(#pf3ae569488)" style="fill: #0000ff"/>
   </g>
   <g id="patch_134">
    <path d="M 215.598545 307.584 
L 216.680727 307.584 
L 216.680727 278.837333 
L 215.598545 278.837333 
z
" clip-path="url(#pf3ae569488)" style="fill: #0000ff"/>
   </g>
   <g id="patch_135">
    <path d="M 216.680727 307.584 
L 217.762909 307.584 
L 217.762909 268.864 
L 216.680727 268.864 
z
" clip-path="url(#pf3ae569488)" style="fill: #0000ff"/>
   </g>
   <g id="patch_136">
    <path d="M 217.762909 307.584 
L 218.845091 307.584 
L 218.845091 272.736 
L 217.762909 272.736 
z
" clip-path="url(#pf3ae569488)" style="fill: #0000ff"/>
   </g>
   <g id="patch_137">
    <path d="M 218.845091 307.584 
L 219.927273 307.584 
L 219.927273 272.736 
L 218.845091 272.736 
z
" clip-path="url(#pf3ae569488)" style="fill: #0000ff"/>
   </g>
   <g id="patch_138">
    <path d="M 219.927273 307.584 
L 221.009455 307.584 
L 221.009455 271.328 
L 219.927273 271.328 
z
" clip-path="url(#pf3ae569488)" style="fill: #0000ff"/>
   </g>
   <g id="patch_139">
    <path d="M 221.009455 307.584 
L 222.091636 307.584 
L 222.091636 273.088 
L 221.009455 273.088 
z
" clip-path="url(#pf3ae569488)" style="fill: #0000ff"/>
   </g>
   <g id="patch_140">
    <path d="M 222.091636 307.584 
L 223.173818 307.584 
L 223.173818 274.026667 
L 222.091636 274.026667 
z
" clip-path="url(#pf3ae569488)" style="fill: #0000ff"/>
   </g>
   <g id="patch_141">
    <path d="M 223.173818 307.584 
L 224.256 307.584 
L 224.256 282.709333 
L 223.173818 282.709333 
z
" clip-path="url(#pf3ae569488)" style="fill: #0000ff"/>
   </g>
   <g id="patch_142">
    <path d="M 224.256 307.584 
L 225.338182 307.584 
L 225.338182 276.021333 
L 224.256 276.021333 
z
" clip-path="url(#pf3ae569488)" style="fill: #0000ff"/>
   </g>
   <g id="patch_143">
    <path d="M 225.338182 307.584 
L 226.420364 307.584 
L 226.420364 273.909333 
L 225.338182 273.909333 
z
" clip-path="url(#pf3ae569488)" style="fill: #0000ff"/>
   </g>
   <g id="patch_144">
    <path d="M 226.420364 307.584 
L 227.502545 307.584 
L 227.502545 273.909333 
L 226.420364 273.909333 
z
" clip-path="url(#pf3ae569488)" style="fill: #0000ff"/>
   </g>
   <g id="patch_145">
    <path d="M 227.502545 307.584 
L 228.584727 307.584 
L 228.584727 276.256 
L 227.502545 276.256 
z
" clip-path="url(#pf3ae569488)" style="fill: #0000ff"/>
   </g>
   <g id="patch_146">
    <path d="M 228.584727 307.584 
L 229.666909 307.584 
L 229.666909 275.786667 
L 228.584727 275.786667 
z
" clip-path="url(#pf3ae569488)" style="fill: #0000ff"/>
   </g>
   <g id="patch_147">
    <path d="M 229.666909 307.584 
L 230.749091 307.584 
L 230.749091 265.461333 
L 229.666909 265.461333 
z
" clip-path="url(#pf3ae569488)" style="fill: #0000ff"/>
   </g>
   <g id="patch_148">
    <path d="M 230.749091 307.584 
L 231.831273 307.584 
L 231.831273 273.792 
L 230.749091 273.792 
z
" clip-path="url(#pf3ae569488)" style="fill: #0000ff"/>
   </g>
   <g id="patch_149">
    <path d="M 231.831273 307.584 
L 232.913455 307.584 
L 232.913455 280.362667 
L 231.831273 280.362667 
z
" clip-path="url(#pf3ae569488)" style="fill: #0000ff"/>
   </g>
   <g id="patch_150">
    <path d="M 232.913455 307.584 
L 233.995636 307.584 
L 233.995636 278.837333 
L 232.913455 278.837333 
z
" clip-path="url(#pf3ae569488)" style="fill: #0000ff"/>
   </g>
   <g id="patch_151">
    <path d="M 233.995636 307.584 
L 235.077818 307.584 
L 235.077818 275.2 
L 233.995636 275.2 
z
" clip-path="url(#pf3ae569488)" style="fill: #0000ff"/>
   </g>
   <g id="patch_152">
    <path d="M 235.077818 307.584 
L 236.16 307.584 
L 236.16 280.597333 
L 235.077818 280.597333 
z
" clip-path="url(#pf3ae569488)" style="fill: #0000ff"/>
   </g>
   <g id="patch_153">
    <path d="M 236.16 307.584 
L 237.242182 307.584 
L 237.242182 270.976 
L 236.16 270.976 
z
" clip-path="url(#pf3ae569488)" style="fill: #0000ff"/>
   </g>
   <g id="patch_154">
    <path d="M 237.242182 307.584 
L 238.324364 307.584 
L 238.324364 277.194667 
L 237.242182 277.194667 
z
" clip-path="url(#pf3ae569488)" style="fill: #0000ff"/>
   </g>
   <g id="patch_155">
    <path d="M 238.324364 307.584 
L 239.406545 307.584 
L 239.406545 262.762667 
L 238.324364 262.762667 
z
" clip-path="url(#pf3ae569488)" style="fill: #0000ff"/>
   </g>
   <g id="patch_156">
    <path d="M 239.406545 307.584 
L 240.488727 307.584 
L 240.488727 267.925333 
L 239.406545 267.925333 
z
" clip-path="url(#pf3ae569488)" style="fill: #0000ff"/>
   </g>
   <g id="patch_157">
    <path d="M 240.488727 307.584 
L 241.570909 307.584 
L 241.570909 262.88 
L 240.488727 262.88 
z
" clip-path="url(#pf3ae569488)" style="fill: #0000ff"/>
   </g>
   <g id="patch_158">
    <path d="M 241.570909 307.584 
L 242.653091 307.584 
L 242.653091 260.885333 
L 241.570909 260.885333 
z
" clip-path="url(#pf3ae569488)" style="fill: #0000ff"/>
   </g>
   <g id="patch_159">
    <path d="M 242.653091 307.584 
L 243.735273 307.584 
L 243.735273 257.482667 
L 242.653091 257.482667 
z
" clip-path="url(#pf3ae569488)" style="fill: #0000ff"/>
   </g>
   <g id="patch_160">
    <path d="M 243.735273 307.584 
L 244.817455 307.584 
L 244.817455 251.498667 
L 243.735273 251.498667 
z
" clip-path="url(#pf3ae569488)" style="fill: #0000ff"/>
   </g>
   <g id="patch_161">
    <path d="M 244.817455 307.584 
L 245.899636 307.584 
L 245.899636 265.930667 
L 244.817455 265.930667 
z
" clip-path="url(#pf3ae569488)" style="fill: #0000ff"/>
   </g>
   <g id="patch_162">
    <path d="M 245.899636 307.584 
L 246.981818 307.584 
L 246.981818 255.253333 
L 245.899636 255.253333 
z
" clip-path="url(#pf3ae569488)" style="fill: #0000ff"/>
   </g>
   <g id="patch_163">
    <path d="M 246.981818 307.584 
L 248.064 307.584 
L 248.064 262.645333 
L 246.981818 262.645333 
z
" clip-path="url(#pf3ae569488)" style="fill: #0000ff"/>
   </g>
   <g id="patch_164">
    <path d="M 248.064 307.584 
L 249.146182 307.584 
L 249.146182 283.530667 
L 248.064 283.530667 
z
" clip-path="url(#pf3ae569488)" style="fill: #0000ff"/>
   </g>
   <g id="patch_165">
    <path d="M 249.146182 307.584 
L 250.228364 307.584 
L 250.228364 276.373333 
L 249.146182 276.373333 
z
" clip-path="url(#pf3ae569488)" style="fill: #0000ff"/>
   </g>
   <g id="patch_166">
    <path d="M 250.228364 307.584 
L 251.310545 307.584 
L 251.310545 269.685333 
L 250.228364 269.685333 
z
" clip-path="url(#pf3ae569488)" style="fill: #0000ff"/>
   </g>
   <g id="patch_167">
    <path d="M 251.310545 307.584 
L 252.392727 307.584 
L 252.392727 255.253333 
L 251.310545 255.253333 
z
" clip-path="url(#pf3ae569488)" style="fill: #0000ff"/>
   </g>
   <g id="patch_168">
    <path d="M 252.392727 307.584 
L 253.474909 307.584 
L 253.474909 259.125333 
L 252.392727 259.125333 
z
" clip-path="url(#pf3ae569488)" style="fill: #0000ff"/>
   </g>
   <g id="patch_169">
    <path d="M 253.474909 307.584 
L 254.557091 307.584 
L 254.557091 254.901333 
L 253.474909 254.901333 
z
" clip-path="url(#pf3ae569488)" style="fill: #0000ff"/>
   </g>
   <g id="patch_170">
    <path d="M 254.557091 307.584 
L 255.639273 307.584 
L 255.639273 259.242667 
L 254.557091 259.242667 
z
" clip-path="url(#pf3ae569488)" style="fill: #0000ff"/>
   </g>
   <g id="patch_171">
    <path d="M 255.639273 307.584 
L 256.721455 307.584 
L 256.721455 253.258667 
L 255.639273 253.258667 
z
" clip-path="url(#pf3ae569488)" style="fill: #0000ff"/>
   </g>
   <g id="patch_172">
    <path d="M 256.721455 307.584 
L 257.803636 307.584 
L 257.803636 257.952 
L 256.721455 257.952 
z
" clip-path="url(#pf3ae569488)" style="fill: #0000ff"/>
   </g>
   <g id="patch_173">
    <path d="M 257.803636 307.584 
L 258.885818 307.584 
L 258.885818 262.762667 
L 257.803636 262.762667 
z
" clip-path="url(#pf3ae569488)" style="fill: #0000ff"/>
   </g>
   <g id="patch_174">
    <path d="M 258.885818 307.584 
L 259.968 307.584 
L 259.968 249.856 
L 258.885818 249.856 
z
" clip-path="url(#pf3ae569488)" style="fill: #0000ff"/>
   </g>
   <g id="patch_175">
    <path d="M 259.968 307.584 
L 261.050182 307.584 
L 261.050182 248.682667 
L 259.968 248.682667 
z
" clip-path="url(#pf3ae569488)" style="fill: #0000ff"/>
   </g>
   <g id="patch_176">
    <path d="M 261.050182 307.584 
L 262.132364 307.584 
L 262.132364 257.248 
L 261.050182 257.248 
z
" clip-path="url(#pf3ae569488)" style="fill: #0000ff"/>
   </g>
   <g id="patch_177">
    <path d="M 262.132364 307.584 
L 263.214545 307.584 
L 263.214545 250.325333 
L 262.132364 250.325333 
z
" clip-path="url(#pf3ae569488)" style="fill: #0000ff"/>
   </g>
   <g id="patch_178">
    <path d="M 263.214545 307.584 
L 264.296727 307.584 
L 264.296727 252.32 
L 263.214545 252.32 
z
" clip-path="url(#pf3ae569488)" style="fill: #0000ff"/>
   </g>
   <g id="patch_179">
    <path d="M 264.296727 307.584 
L 265.378909 307.584 
L 265.378909 251.616 
L 264.296727 251.616 
z
" clip-path="url(#pf3ae569488)" style="fill: #0000ff"/>
   </g>
   <g id="patch_180">
    <path d="M 265.378909 307.584 
L 266.461091 307.584 
L 266.461091 250.090667 
L 265.378909 250.090667 
z
" clip-path="url(#pf3ae569488)" style="fill: #0000ff"/>
   </g>
   <g id="patch_181">
    <path d="M 266.461091 307.584 
L 267.543273 307.584 
L 267.543273 256.896 
L 266.461091 256.896 
z
" clip-path="url(#pf3ae569488)" style="fill: #0000ff"/>
   </g>
   <g id="patch_182">
    <path d="M 267.543273 307.584 
L 268.625455 307.584 
L 268.625455 262.762667 
L 267.543273 262.762667 
z
" clip-path="url(#pf3ae569488)" style="fill: #0000ff"/>
   </g>
   <g id="patch_183">
    <path d="M 268.625455 307.584 
L 269.707636 307.584 
L 269.707636 243.52 
L 268.625455 243.52 
z
" clip-path="url(#pf3ae569488)" style="fill: #0000ff"/>
   </g>
   <g id="patch_184">
    <path d="M 269.707636 307.584 
L 270.789818 307.584 
L 270.789818 241.642667 
L 269.707636 241.642667 
z
" clip-path="url(#pf3ae569488)" style="fill: #0000ff"/>
   </g>
   <g id="patch_185">
    <path d="M 270.789818 307.584 
L 271.872 307.584 
L 271.872 233.312 
L 270.789818 233.312 
z
" clip-path="url(#pf3ae569488)" style="fill: #0000ff"/>
   </g>
   <g id="patch_186">
    <path d="M 271.872 307.584 
L 272.954182 307.584 
L 272.954182 216.768 
L 271.872 216.768 
z
" clip-path="url(#pf3ae569488)" style="fill: #0000ff"/>
   </g>
   <g id="patch_187">
    <path d="M 272.954182 307.584 
L 274.036364 307.584 
L 274.036364 222.4 
L 272.954182 222.4 
z
" clip-path="url(#pf3ae569488)" style="fill: #0000ff"/>
   </g>
   <g id="patch_188">
    <path d="M 274.036364 307.584 
L 275.118545 307.584 
L 275.118545 231.552 
L 274.036364 231.552 
z
" clip-path="url(#pf3ae569488)" style="fill: #0000ff"/>
   </g>
   <g id="patch_189">
    <path d="M 275.118545 307.584 
L 276.200727 307.584 
L 276.200727 220.053333 
L 275.118545 220.053333 
z
" clip-path="url(#pf3ae569488)" style="fill: #0000ff"/>
   </g>
   <g id="patch_190">
    <path d="M 276.200727 307.584 
L 277.282909 307.584 
L 277.282909 216.298667 
L 276.200727 216.298667 
z
" clip-path="url(#pf3ae569488)" style="fill: #0000ff"/>
   </g>
   <g id="patch_191">
    <path d="M 277.282909 307.584 
L 278.365091 307.584 
L 278.365091 207.733333 
L 277.282909 207.733333 
z
" clip-path="url(#pf3ae569488)" style="fill: #0000ff"/>
   </g>
   <g id="patch_192">
    <path d="M 278.365091 307.584 
L 279.447273 307.584 
L 279.447273 204.213333 
L 278.365091 204.213333 
z
" clip-path="url(#pf3ae569488)" style="fill: #0000ff"/>
   </g>
   <g id="patch_193">
    <path d="M 279.447273 307.584 
L 280.529455 307.584 
L 280.529455 192.362667 
L 279.447273 192.362667 
z
" clip-path="url(#pf3ae569488)" style="fill: #0000ff"/>
   </g>
   <g id="patch_194">
    <path d="M 280.529455 307.584 
L 281.611636 307.584 
L 281.611636 187.669333 
L 280.529455 187.669333 
z
" clip-path="url(#pf3ae569488)" style="fill: #0000ff"/>
   </g>
   <g id="patch_195">
    <path d="M 281.611636 307.584 
L 282.693818 307.584 
L 282.693818 162.090667 
L 281.611636 162.090667 
z
" clip-path="url(#pf3ae569488)" style="fill: #0000ff"/>
   </g>
   <g id="patch_196">
    <path d="M 282.693818 307.584 
L 283.776 307.584 
L 283.776 146.72 
L 282.693818 146.72 
z
" clip-path="url(#pf3ae569488)" style="fill: #0000ff"/>
   </g>
   <g id="patch_197">
    <path d="M 283.776 307.584 
L 284.858182 307.584 
L 284.858182 142.496 
L 283.776 142.496 
z
" clip-path="url(#pf3ae569488)" style="fill: #0000ff"/>
   </g>
   <g id="patch_198">
    <path d="M 284.858182 307.584 
L 285.940364 307.584 
L 285.940364 115.157333 
L 284.858182 115.157333 
z
" clip-path="url(#pf3ae569488)" style="fill: #0000ff"/>
   </g>
   <g id="patch_199">
    <path d="M 285.940364 307.584 
L 287.022545 307.584 
L 287.022545 119.733333 
L 285.940364 119.733333 
z
" clip-path="url(#pf3ae569488)" style="fill: #0000ff"/>
   </g>
   <g id="patch_200">
    <path d="M 287.022545 307.584 
L 288.104727 307.584 
L 288.104727 150.474667 
L 287.022545 150.474667 
z
" clip-path="url(#pf3ae569488)" style="fill: #0000ff"/>
   </g>
   <g id="patch_201">
    <path d="M 288.104727 307.584 
L 289.186909 307.584 
L 289.186909 119.968 
L 288.104727 119.968 
z
" clip-path="url(#pf3ae569488)" style="fill: #0000ff"/>
   </g>
   <g id="patch_202">
    <path d="M 289.186909 307.584 
L 290.269091 307.584 
L 290.269091 92.512 
L 289.186909 92.512 
z
" clip-path="url(#pf3ae569488)" style="fill: #0000ff"/>
   </g>
   <g id="patch_203">
    <path d="M 290.269091 307.584 
L 291.351273 307.584 
L 291.351273 54.144 
L 290.269091 54.144 
z
" clip-path="url(#pf3ae569488)" style="fill: #0000ff"/>
   </g>
   <g id="patch_204">
    <path d="M 291.351273 307.584 
L 292.433455 307.584 
L 292.433455 94.272 
L 291.351273 94.272 
z
" clip-path="url(#pf3ae569488)" style="fill: #0000ff"/>
   </g>
   <g id="patch_205">
    <path d="M 292.433455 307.584 
L 293.515636 307.584 
L 293.515636 98.965333 
L 292.433455 98.965333 
z
" clip-path="url(#pf3ae569488)" style="fill: #0000ff"/>
   </g>
   <g id="patch_206">
    <path d="M 293.515636 307.584 
L 294.597818 307.584 
L 294.597818 96.970667 
L 293.515636 96.970667 
z
" clip-path="url(#pf3ae569488)" style="fill: #0000ff"/>
   </g>
   <g id="patch_207">
    <path d="M 294.597818 307.584 
L 295.68 307.584 
L 295.68 117.034667 
L 294.597818 117.034667 
z
" clip-path="url(#pf3ae569488)" style="fill: #0000ff"/>
   </g>
   <g id="patch_208">
    <path d="M 295.68 307.584 
L 296.762182 307.584 
L 296.762182 132.874667 
L 295.68 132.874667 
z
" clip-path="url(#pf3ae569488)" style="fill: #0000ff"/>
   </g>
   <g id="patch_209">
    <path d="M 296.762182 307.584 
L 297.844364 307.584 
L 297.844364 96.384 
L 296.762182 96.384 
z
" clip-path="url(#pf3ae569488)" style="fill: #0000ff"/>
   </g>
   <g id="patch_210">
    <path d="M 297.844364 307.584 
L 298.926545 307.584 
L 298.926545 112.810667 
L 297.844364 112.810667 
z
" clip-path="url(#pf3ae569488)" style="fill: #0000ff"/>
   </g>
   <g id="patch_211">
    <path d="M 298.926545 307.584 
L 300.008727 307.584 
L 300.008727 129.472 
L 298.926545 129.472 
z
" clip-path="url(#pf3ae569488)" style="fill: #0000ff"/>
   </g>
   <g id="patch_212">
    <path d="M 300.008727 307.584 
L 301.090909 307.584 
L 301.090909 114.570667 
L 300.008727 114.570667 
z
" clip-path="url(#pf3ae569488)" style="fill: #0000ff"/>
   </g>
   <g id="patch_213">
    <path d="M 301.090909 307.584 
L 302.173091 307.584 
L 302.173091 104.832 
L 301.090909 104.832 
z
" clip-path="url(#pf3ae569488)" style="fill: #0000ff"/>
   </g>
   <g id="patch_214">
    <path d="M 302.173091 307.584 
L 303.255273 307.584 
L 303.255273 113.045333 
L 302.173091 113.045333 
z
" clip-path="url(#pf3ae569488)" style="fill: #0000ff"/>
   </g>
   <g id="patch_215">
    <path d="M 303.255273 307.584 
L 304.337455 307.584 
L 304.337455 94.272 
L 303.255273 94.272 
z
" clip-path="url(#pf3ae569488)" style="fill: #0000ff"/>
   </g>
   <g id="patch_216">
    <path d="M 304.337455 307.584 
L 305.419636 307.584 
L 305.419636 104.832 
L 304.337455 104.832 
z
" clip-path="url(#pf3ae569488)" style="fill: #0000ff"/>
   </g>
   <g id="patch_217">
    <path d="M 305.419636 307.584 
L 306.501818 307.584 
L 306.501818 144.138667 
L 305.419636 144.138667 
z
" clip-path="url(#pf3ae569488)" style="fill: #0000ff"/>
   </g>
   <g id="patch_218">
    <path d="M 306.501818 307.584 
L 307.584 307.584 
L 307.584 156.693333 
L 306.501818 156.693333 
z
" clip-path="url(#pf3ae569488)" style="fill: #0000ff"/>
   </g>
   <g id="patch_219">
    <path d="M 307.584 307.584 
L 308.666182 307.584 
L 308.666182 145.898667 
L 307.584 145.898667 
z
" clip-path="url(#pf3ae569488)" style="fill: #0000ff"/>
   </g>
   <g id="patch_220">
    <path d="M 308.666182 307.584 
L 309.748364 307.584 
L 309.748364 138.741333 
L 308.666182 138.741333 
z
" clip-path="url(#pf3ae569488)" style="fill: #0000ff"/>
   </g>
   <g id="patch_221">
    <path d="M 309.748364 307.584 
L 310.830545 307.584 
L 310.830545 168.309333 
L 309.748364 168.309333 
z
" clip-path="url(#pf3ae569488)" style="fill: #0000ff"/>
   </g>
   <g id="patch_222">
    <path d="M 310.830545 307.584 
L 311.912727 307.584 
L 311.912727 131.701333 
L 310.830545 131.701333 
z
" clip-path="url(#pf3ae569488)" style="fill: #0000ff"/>
   </g>
   <g id="patch_223">
    <path d="M 311.912727 307.584 
L 312.994909 307.584 
L 312.994909 105.888 
L 311.912727 105.888 
z
" clip-path="url(#pf3ae569488)" style="fill: #0000ff"/>
   </g>
   <g id="patch_224">
    <path d="M 312.994909 307.584 
L 314.077091 307.584 
L 314.077091 146.485333 
L 312.994909 146.485333 
z
" clip-path="url(#pf3ae569488)" style="fill: #0000ff"/>
   </g>
   <g id="patch_225">
    <path d="M 314.077091 307.584 
L 315.159273 307.584 
L 315.159273 87.114667 
L 314.077091 87.114667 
z
" clip-path="url(#pf3ae569488)" style="fill: #0000ff"/>
   </g>
   <g id="patch_226">
    <path d="M 315.159273 307.584 
L 316.241455 307.584 
L 316.241455 238.592 
L 315.159273 238.592 
z
" clip-path="url(#pf3ae569488)" style="fill: #0000ff"/>
   </g>
   <g id="patch_227">
    <path d="M 316.241455 307.584 
L 317.323636 307.584 
L 317.323636 252.437333 
L 316.241455 252.437333 
z
" clip-path="url(#pf3ae569488)" style="fill: #0000ff"/>
   </g>
   <g id="patch_228">
    <path d="M 317.323636 307.584 
L 318.405818 307.584 
L 318.405818 241.994667 
L 317.323636 241.994667 
z
" clip-path="url(#pf3ae569488)" style="fill: #0000ff"/>
   </g>
   <g id="patch_229">
    <path d="M 318.405818 307.584 
L 319.488 307.584 
L 319.488 247.04 
L 318.405818 247.04 
z
" clip-path="url(#pf3ae569488)" style="fill: #0000ff"/>
   </g>
   <g id="patch_230">
    <path d="M 319.488 307.584 
L 320.570182 307.584 
L 320.570182 246.453333 
L 319.488 246.453333 
z
" clip-path="url(#pf3ae569488)" style="fill: #0000ff"/>
   </g>
   <g id="patch_231">
    <path d="M 320.570182 307.584 
L 321.652364 307.584 
L 321.652364 243.872 
L 320.570182 243.872 
z
" clip-path="url(#pf3ae569488)" style="fill: #0000ff"/>
   </g>
   <g id="patch_232">
    <path d="M 321.652364 307.584 
L 322.734545 307.584 
L 322.734545 236.597333 
L 321.652364 236.597333 
z
" clip-path="url(#pf3ae569488)" style="fill: #0000ff"/>
   </g>
   <g id="patch_233">
    <path d="M 322.734545 307.584 
L 323.816727 307.584 
L 323.816727 303.712 
L 322.734545 303.712 
z
" clip-path="url(#pf3ae569488)" style="fill: #0000ff"/>
   </g>
   <g id="patch_234">
    <path d="M 323.816727 307.584 
L 324.898909 307.584 
L 324.898909 304.650667 
L 323.816727 304.650667 
z
" clip-path="url(#pf3ae569488)" style="fill: #0000ff"/>
   </g>
   <g id="patch_235">
    <path d="M 324.898909 307.584 
L 325.981091 307.584 
L 325.981091 303.594667 
L 324.898909 303.594667 
z
" clip-path="url(#pf3ae569488)" style="fill: #0000ff"/>
   </g>
   <g id="patch_236">
    <path d="M 325.981091 307.584 
L 327.063273 307.584 
L 327.063273 305.472 
L 325.981091 305.472 
z
" clip-path="url(#pf3ae569488)" style="fill: #0000ff"/>
   </g>
   <g id="patch_237">
    <path d="M 327.063273 307.584 
L 328.145455 307.584 
L 328.145455 304.181333 
L 327.063273 304.181333 
z
" clip-path="url(#pf3ae569488)" style="fill: #0000ff"/>
   </g>
   <g id="patch_238">
    <path d="M 328.145455 307.584 
L 329.227636 307.584 
L 329.227636 304.298667 
L 328.145455 304.298667 
z
" clip-path="url(#pf3ae569488)" style="fill: #0000ff"/>
   </g>
   <g id="patch_239">
    <path d="M 329.227636 307.584 
L 330.309818 307.584 
L 330.309818 304.885333 
L 329.227636 304.885333 
z
" clip-path="url(#pf3ae569488)" style="fill: #0000ff"/>
   </g>
   <g id="patch_240">
    <path d="M 330.309818 307.584 
L 331.392 307.584 
L 331.392 304.298667 
L 330.309818 304.298667 
z
" clip-path="url(#pf3ae569488)" style="fill: #0000ff"/>
   </g>
   <g id="patch_241">
    <path d="M 331.392 307.584 
L 332.474182 307.584 
L 332.474182 305.002667 
L 331.392 305.002667 
z
" clip-path="url(#pf3ae569488)" style="fill: #0000ff"/>
   </g>
   <g id="patch_242">
    <path d="M 332.474182 307.584 
L 333.556364 307.584 
L 333.556364 305.002667 
L 332.474182 305.002667 
z
" clip-path="url(#pf3ae569488)" style="fill: #0000ff"/>
   </g>
   <g id="patch_243">
    <path d="M 333.556364 307.584 
L 334.638545 307.584 
L 334.638545 304.064 
L 333.556364 304.064 
z
" clip-path="url(#pf3ae569488)" style="fill: #0000ff"/>
   </g>
   <g id="patch_244">
    <path d="M 334.638545 307.584 
L 335.720727 307.584 
L 335.720727 305.589333 
L 334.638545 305.589333 
z
" clip-path="url(#pf3ae569488)" style="fill: #0000ff"/>
   </g>
   <g id="patch_245">
    <path d="M 335.720727 307.584 
L 336.802909 307.584 
L 336.802909 305.002667 
L 335.720727 305.002667 
z
" clip-path="url(#pf3ae569488)" style="fill: #0000ff"/>
   </g>
   <g id="patch_246">
    <path d="M 336.802909 307.584 
L 337.885091 307.584 
L 337.885091 304.416 
L 336.802909 304.416 
z
" clip-path="url(#pf3ae569488)" style="fill: #0000ff"/>
   </g>
   <g id="patch_247">
    <path d="M 337.885091 307.584 
L 338.967273 307.584 
L 338.967273 305.237333 
L 337.885091 305.237333 
z
" clip-path="url(#pf3ae569488)" style="fill: #0000ff"/>
   </g>
   <g id="patch_248">
    <path d="M 338.967273 307.584 
L 340.049455 307.584 
L 340.049455 306.293333 
L 338.967273 306.293333 
z
" clip-path="url(#pf3ae569488)" style="fill: #0000ff"/>
   </g>
   <g id="patch_249">
    <path d="M 340.049455 307.584 
L 341.131636 307.584 
L 341.131636 305.472 
L 340.049455 305.472 
z
" clip-path="url(#pf3ae569488)" style="fill: #0000ff"/>
   </g>
   <g id="patch_250">
    <path d="M 341.131636 307.584 
L 342.213818 307.584 
L 342.213818 305.706667 
L 341.131636 305.706667 
z
" clip-path="url(#pf3ae569488)" style="fill: #0000ff"/>
   </g>
   <g id="patch_251">
    <path d="M 342.213818 307.584 
L 343.296 307.584 
L 343.296 305.589333 
L 342.213818 305.589333 
z
" clip-path="url(#pf3ae569488)" style="fill: #0000ff"/>
   </g>
   <g id="patch_252">
    <path d="M 343.296 307.584 
L 344.378182 307.584 
L 344.378182 306.645333 
L 343.296 306.645333 
z
" clip-path="url(#pf3ae569488)" style="fill: #0000ff"/>
   </g>
   <g id="patch_253">
    <path d="M 344.378182 307.584 
L 345.460364 307.584 
L 345.460364 306.293333 
L 344.378182 306.293333 
z
" clip-path="url(#pf3ae569488)" style="fill: #0000ff"/>
   </g>
   <g id="patch_254">
    <path d="M 345.460364 307.584 
L 346.542545 307.584 
L 346.542545 303.946667 
L 345.460364 303.946667 
z
" clip-path="url(#pf3ae569488)" style="fill: #0000ff"/>
   </g>
   <g id="patch_255">
    <path d="M 346.542545 307.584 
L 347.624727 307.584 
L 347.624727 303.712 
L 346.542545 303.712 
z
" clip-path="url(#pf3ae569488)" style="fill: #0000ff"/>
   </g>
   <g id="patch_256">
    <path d="M 347.624727 307.584 
L 348.706909 307.584 
L 348.706909 304.298667 
L 347.624727 304.298667 
z
" clip-path="url(#pf3ae569488)" style="fill: #0000ff"/>
   </g>
   <g id="patch_257">
    <path d="M 348.706909 307.584 
L 349.789091 307.584 
L 349.789091 305.12 
L 348.706909 305.12 
z
" clip-path="url(#pf3ae569488)" style="fill: #0000ff"/>
   </g>
   <g id="patch_258">
    <path d="M 349.789091 307.584 
L 350.871273 307.584 
L 350.871273 305.941333 
L 349.789091 305.941333 
z
" clip-path="url(#pf3ae569488)" style="fill: #0000ff"/>
   </g>
   <g id="patch_259">
    <path d="M 350.871273 307.584 
L 351.953455 307.584 
L 351.953455 306.058667 
L 350.871273 306.058667 
z
" clip-path="url(#pf3ae569488)" style="fill: #0000ff"/>
   </g>
   <g id="patch_260">
    <path d="M 351.953455 307.584 
L 353.035636 307.584 
L 353.035636 305.472 
L 351.953455 305.472 
z
" clip-path="url(#pf3ae569488)" style="fill: #0000ff"/>
   </g>
   <g id="patch_261">
    <path d="M 353.035636 307.584 
L 354.117818 307.584 
L 354.117818 306.176 
L 353.035636 306.176 
z
" clip-path="url(#pf3ae569488)" style="fill: #0000ff"/>
   </g>
   <g id="patch_262">
    <path d="M 354.117818 307.584 
L 355.2 307.584 
L 355.2 304.064 
L 354.117818 304.064 
z
" clip-path="url(#pf3ae569488)" style="fill: #0000ff"/>
   </g>
   <g id="patch_263">
    <path d="M 355.2 307.584 
L 356.282182 307.584 
L 356.282182 303.36 
L 355.2 303.36 
z
" clip-path="url(#pf3ae569488)" style="fill: #0000ff"/>
   </g>
   <g id="patch_264">
    <path d="M 356.282182 307.584 
L 357.364364 307.584 
L 357.364364 303.946667 
L 356.282182 303.946667 
z
" clip-path="url(#pf3ae569488)" style="fill: #0000ff"/>
   </g>
   <g id="patch_265">
    <path d="M 357.364364 307.584 
L 358.446545 307.584 
L 358.446545 303.946667 
L 357.364364 303.946667 
z
" clip-path="url(#pf3ae569488)" style="fill: #0000ff"/>
   </g>
   <g id="patch_266">
    <path d="M 358.446545 307.584 
L 359.528727 307.584 
L 359.528727 303.477333 
L 358.446545 303.477333 
z
" clip-path="url(#pf3ae569488)" style="fill: #0000ff"/>
   </g>
   <g id="patch_267">
    <path d="M 359.528727 307.584 
L 360.610909 307.584 
L 360.610909 307.349333 
L 359.528727 307.349333 
z
" clip-path="url(#pf3ae569488)" style="fill: #0000ff"/>
   </g>
   <g id="patch_268">
    <path d="M 360.610909 307.584 
L 361.693091 307.584 
L 361.693091 306.88 
L 360.610909 306.88 
z
" clip-path="url(#pf3ae569488)" style="fill: #0000ff"/>
   </g>
   <g id="patch_269">
    <path d="M 361.693091 307.584 
L 362.775273 307.584 
L 362.775273 307.466667 
L 361.693091 307.466667 
z
" clip-path="url(#pf3ae569488)" style="fill: #0000ff"/>
   </g>
   <g id="patch_270">
    <path d="M 362.775273 307.584 
L 363.857455 307.584 
L 363.857455 302.421333 
L 362.775273 302.421333 
z
" clip-path="url(#pf3ae569488)" style="fill: #0000ff"/>
   </g>
   <g id="patch_271">
    <path d="M 363.857455 307.584 
L 364.939636 307.584 
L 364.939636 304.650667 
L 363.857455 304.650667 
z
" clip-path="url(#pf3ae569488)" style="fill: #0000ff"/>
   </g>
   <g id="patch_272">
    <path d="M 364.939636 307.584 
L 366.021818 307.584 
L 366.021818 301.6 
L 364.939636 301.6 
z
" clip-path="url(#pf3ae569488)" style="fill: #0000ff"/>
   </g>
   <g id="patch_273">
    <path d="M 366.021818 307.584 
L 367.104 307.584 
L 367.104 300.661333 
L 366.021818 300.661333 
z
" clip-path="url(#pf3ae569488)" style="fill: #0000ff"/>
   </g>
   <g id="patch_274">
    <path d="M 367.104 307.584 
L 368.186182 307.584 
L 368.186182 305.354667 
L 367.104 305.354667 
z
" clip-path="url(#pf3ae569488)" style="fill: #0000ff"/>
   </g>
   <g id="patch_275">
    <path d="M 368.186182 307.584 
L 369.268364 307.584 
L 369.268364 303.125333 
L 368.186182 303.125333 
z
" clip-path="url(#pf3ae569488)" style="fill: #0000ff"/>
   </g>
   <g id="patch_276">
    <path d="M 369.268364 307.584 
L 370.350545 307.584 
L 370.350545 306.410667 
L 369.268364 306.410667 
z
" clip-path="url(#pf3ae569488)" style="fill: #0000ff"/>
   </g>
   <g id="patch_277">
    <path d="M 370.350545 307.584 
L 371.432727 307.584 
L 371.432727 304.768 
L 370.350545 304.768 
z
" clip-path="url(#pf3ae569488)" style="fill: #0000ff"/>
   </g>
   <g id="patch_278">
    <path d="M 371.432727 307.584 
L 372.514909 307.584 
L 372.514909 306.410667 
L 371.432727 306.410667 
z
" clip-path="url(#pf3ae569488)" style="fill: #0000ff"/>
   </g>
   <g id="patch_279">
    <path d="M 372.514909 307.584 
L 373.597091 307.584 
L 373.597091 306.645333 
L 372.514909 306.645333 
z
" clip-path="url(#pf3ae569488)" style="fill: #0000ff"/>
   </g>
   <g id="patch_280">
    <path d="M 373.597091 307.584 
L 374.679273 307.584 
L 374.679273 307.114667 
L 373.597091 307.114667 
z
" clip-path="url(#pf3ae569488)" style="fill: #0000ff"/>
   </g>
   <g id="patch_281">
    <path d="M 374.679273 307.584 
L 375.761455 307.584 
L 375.761455 307.584 
L 374.679273 307.584 
z
" clip-path="url(#pf3ae569488)" style="fill: #0000ff"/>
   </g>
   <g id="patch_282">
    <path d="M 375.761455 307.584 
L 376.843636 307.584 
L 376.843636 306.997333 
L 375.761455 306.997333 
z
" clip-path="url(#pf3ae569488)" style="fill: #0000ff"/>
   </g>
   <g id="patch_283">
    <path d="M 376.843636 307.584 
L 377.925818 307.584 
L 377.925818 306.762667 
L 376.843636 306.762667 
z
" clip-path="url(#pf3ae569488)" style="fill: #0000ff"/>
   </g>
   <g id="patch_284">
    <path d="M 377.925818 307.584 
L 379.008 307.584 
L 379.008 306.762667 
L 377.925818 306.762667 
z
" clip-path="url(#pf3ae569488)" style="fill: #0000ff"/>
   </g>
   <g id="patch_285">
    <path d="M 379.008 307.584 
L 380.090182 307.584 
L 380.090182 307.584 
L 379.008 307.584 
z
" clip-path="url(#pf3ae569488)" style="fill: #0000ff"/>
   </g>
   <g id="patch_286">
    <path d="M 380.090182 307.584 
L 381.172364 307.584 
L 381.172364 307.349333 
L 380.090182 307.349333 
z
" clip-path="url(#pf3ae569488)" style="fill: #0000ff"/>
   </g>
   <g id="patch_287">
    <path d="M 381.172364 307.584 
L 382.254545 307.584 
L 382.254545 307.466667 
L 381.172364 307.466667 
z
" clip-path="url(#pf3ae569488)" style="fill: #0000ff"/>
   </g>
   <g id="patch_288">
    <path d="M 382.254545 307.584 
L 383.336727 307.584 
L 383.336727 307.466667 
L 382.254545 307.466667 
z
" clip-path="url(#pf3ae569488)" style="fill: #0000ff"/>
   </g>
   <g id="patch_289">
    <path d="M 383.336727 307.584 
L 384.418909 307.584 
L 384.418909 307.349333 
L 383.336727 307.349333 
z
" clip-path="url(#pf3ae569488)" style="fill: #0000ff"/>
   </g>
   <g id="patch_290">
    <path d="M 384.418909 307.584 
L 385.501091 307.584 
L 385.501091 307.584 
L 384.418909 307.584 
z
" clip-path="url(#pf3ae569488)" style="fill: #0000ff"/>
   </g>
   <g id="patch_291">
    <path d="M 385.501091 307.584 
L 386.583273 307.584 
L 386.583273 307.114667 
L 385.501091 307.114667 
z
" clip-path="url(#pf3ae569488)" style="fill: #0000ff"/>
   </g>
   <g id="patch_292">
    <path d="M 386.583273 307.584 
L 387.665455 307.584 
L 387.665455 307.584 
L 386.583273 307.584 
z
" clip-path="url(#pf3ae569488)" style="fill: #0000ff"/>
   </g>
   <g id="patch_293">
    <path d="M 387.665455 307.584 
L 388.747636 307.584 
L 388.747636 307.584 
L 387.665455 307.584 
z
" clip-path="url(#pf3ae569488)" style="fill: #0000ff"/>
   </g>
   <g id="patch_294">
    <path d="M 388.747636 307.584 
L 389.829818 307.584 
L 389.829818 307.466667 
L 388.747636 307.466667 
z
" clip-path="url(#pf3ae569488)" style="fill: #0000ff"/>
   </g>
   <g id="patch_295">
    <path d="M 389.829818 307.584 
L 390.912 307.584 
L 390.912 307.466667 
L 389.829818 307.466667 
z
" clip-path="url(#pf3ae569488)" style="fill: #0000ff"/>
   </g>
   <g id="patch_296">
    <path d="M 390.912 307.584 
L 391.994182 307.584 
L 391.994182 307.466667 
L 390.912 307.466667 
z
" clip-path="url(#pf3ae569488)" style="fill: #0000ff"/>
   </g>
   <g id="patch_297">
    <path d="M 391.994182 307.584 
L 393.076364 307.584 
L 393.076364 307.584 
L 391.994182 307.584 
z
" clip-path="url(#pf3ae569488)" style="fill: #0000ff"/>
   </g>
   <g id="patch_298">
    <path d="M 393.076364 307.584 
L 394.158545 307.584 
L 394.158545 307.584 
L 393.076364 307.584 
z
" clip-path="url(#pf3ae569488)" style="fill: #0000ff"/>
   </g>
   <g id="patch_299">
    <path d="M 394.158545 307.584 
L 395.240727 307.584 
L 395.240727 307.584 
L 394.158545 307.584 
z
" clip-path="url(#pf3ae569488)" style="fill: #0000ff"/>
   </g>
   <g id="patch_300">
    <path d="M 395.240727 307.584 
L 396.322909 307.584 
L 396.322909 307.584 
L 395.240727 307.584 
z
" clip-path="url(#pf3ae569488)" style="fill: #0000ff"/>
   </g>
   <g id="patch_301">
    <path d="M 396.322909 307.584 
L 397.405091 307.584 
L 397.405091 307.584 
L 396.322909 307.584 
z
" clip-path="url(#pf3ae569488)" style="fill: #0000ff"/>
   </g>
   <g id="patch_302">
    <path d="M 397.405091 307.584 
L 398.487273 307.584 
L 398.487273 307.114667 
L 397.405091 307.114667 
z
" clip-path="url(#pf3ae569488)" style="fill: #0000ff"/>
   </g>
   <g id="matplotlib.axis_1">
    <g id="xtick_1">
     <g id="line2d_1">
      <defs>
       <path id="m6cbc2e5dab" d="M 0 0 
L 0 3.5 
" style="stroke: #000000; stroke-width: 0.8"/>
      </defs>
      <g>
       <use xlink:href="#m6cbc2e5dab" x="73.832727" y="307.584" style="stroke: #000000; stroke-width: 0.8"/>
      </g>
     </g>
     <g id="text_1">
      <!-- 1700 -->
      <g transform="translate(61.107727 322.182437) scale(0.1 -0.1)">
       <defs>
        <path id="DejaVuSans-31" d="M 794 531 
L 1825 531 
L 1825 4091 
L 703 3866 
L 703 4441 
L 1819 4666 
L 2450 4666 
L 2450 531 
L 3481 531 
L 3481 0 
L 794 0 
L 794 531 
z
" transform="scale(0.015625)"/>
        <path id="DejaVuSans-37" d="M 525 4666 
L 3525 4666 
L 3525 4397 
L 1831 0 
L 1172 0 
L 2766 4134 
L 525 4134 
L 525 4666 
z
" transform="scale(0.015625)"/>
        <path id="DejaVuSans-30" d="M 2034 4250 
Q 1547 4250 1301 3770 
Q 1056 3291 1056 2328 
Q 1056 1369 1301 889 
Q 1547 409 2034 409 
Q 2525 409 2770 889 
Q 3016 1369 3016 2328 
Q 3016 3291 2770 3770 
Q 2525 4250 2034 4250 
z
M 2034 4750 
Q 2819 4750 3233 4129 
Q 3647 3509 3647 2328 
Q 3647 1150 3233 529 
Q 2819 -91 2034 -91 
Q 1250 -91 836 529 
Q 422 1150 422 2328 
Q 422 3509 836 4129 
Q 1250 4750 2034 4750 
z
" transform="scale(0.015625)"/>
       </defs>
       <use xlink:href="#DejaVuSans-31"/>
       <use xlink:href="#DejaVuSans-37" x="63.623047"/>
       <use xlink:href="#DejaVuSans-30" x="127.246094"/>
       <use xlink:href="#DejaVuSans-30" x="190.869141"/>
      </g>
     </g>
    </g>
    <g id="xtick_2">
     <g id="line2d_2">
      <g>
       <use xlink:href="#m6cbc2e5dab" x="127.941818" y="307.584" style="stroke: #000000; stroke-width: 0.8"/>
      </g>
     </g>
     <g id="text_2">
      <!-- 1750 -->
      <g transform="translate(115.216818 322.182437) scale(0.1 -0.1)">
       <defs>
        <path id="DejaVuSans-35" d="M 691 4666 
L 3169 4666 
L 3169 4134 
L 1269 4134 
L 1269 2991 
Q 1406 3038 1543 3061 
Q 1681 3084 1819 3084 
Q 2600 3084 3056 2656 
Q 3513 2228 3513 1497 
Q 3513 744 3044 326 
Q 2575 -91 1722 -91 
Q 1428 -91 1123 -41 
Q 819 9 494 109 
L 494 744 
Q 775 591 1075 516 
Q 1375 441 1709 441 
Q 2250 441 2565 725 
Q 2881 1009 2881 1497 
Q 2881 1984 2565 2268 
Q 2250 2553 1709 2553 
Q 1456 2553 1204 2497 
Q 953 2441 691 2322 
L 691 4666 
z
" transform="scale(0.015625)"/>
       </defs>
       <use xlink:href="#DejaVuSans-31"/>
       <use xlink:href="#DejaVuSans-37" x="63.623047"/>
       <use xlink:href="#DejaVuSans-35" x="127.246094"/>
       <use xlink:href="#DejaVuSans-30" x="190.869141"/>
      </g>
     </g>
    </g>
    <g id="xtick_3">
     <g id="line2d_3">
      <g>
       <use xlink:href="#m6cbc2e5dab" x="182.050909" y="307.584" style="stroke: #000000; stroke-width: 0.8"/>
      </g>
     </g>
     <g id="text_3">
      <!-- 1800 -->
      <g transform="translate(169.325909 322.182437) scale(0.1 -0.1)">
       <defs>
        <path id="DejaVuSans-38" d="M 2034 2216 
Q 1584 2216 1326 1975 
Q 1069 1734 1069 1313 
Q 1069 891 1326 650 
Q 1584 409 2034 409 
Q 2484 409 2743 651 
Q 3003 894 3003 1313 
Q 3003 1734 2745 1975 
Q 2488 2216 2034 2216 
z
M 1403 2484 
Q 997 2584 770 2862 
Q 544 3141 544 3541 
Q 544 4100 942 4425 
Q 1341 4750 2034 4750 
Q 2731 4750 3128 4425 
Q 3525 4100 3525 3541 
Q 3525 3141 3298 2862 
Q 3072 2584 2669 2484 
Q 3125 2378 3379 2068 
Q 3634 1759 3634 1313 
Q 3634 634 3220 271 
Q 2806 -91 2034 -91 
Q 1263 -91 848 271 
Q 434 634 434 1313 
Q 434 1759 690 2068 
Q 947 2378 1403 2484 
z
M 1172 3481 
Q 1172 3119 1398 2916 
Q 1625 2713 2034 2713 
Q 2441 2713 2670 2916 
Q 2900 3119 2900 3481 
Q 2900 3844 2670 4047 
Q 2441 4250 2034 4250 
Q 1625 4250 1398 4047 
Q 1172 3844 1172 3481 
z
" transform="scale(0.015625)"/>
       </defs>
       <use xlink:href="#DejaVuSans-31"/>
       <use xlink:href="#DejaVuSans-38" x="63.623047"/>
       <use xlink:href="#DejaVuSans-30" x="127.246094"/>
       <use xlink:href="#DejaVuSans-30" x="190.869141"/>
      </g>
     </g>
    </g>
    <g id="xtick_4">
     <g id="line2d_4">
      <g>
       <use xlink:href="#m6cbc2e5dab" x="236.16" y="307.584" style="stroke: #000000; stroke-width: 0.8"/>
      </g>
     </g>
     <g id="text_4">
      <!-- 1850 -->
      <g transform="translate(223.435 322.182437) scale(0.1 -0.1)">
       <use xlink:href="#DejaVuSans-31"/>
       <use xlink:href="#DejaVuSans-38" x="63.623047"/>
       <use xlink:href="#DejaVuSans-35" x="127.246094"/>
       <use xlink:href="#DejaVuSans-30" x="190.869141"/>
      </g>
     </g>
    </g>
    <g id="xtick_5">
     <g id="line2d_5">
      <g>
       <use xlink:href="#m6cbc2e5dab" x="290.269091" y="307.584" style="stroke: #000000; stroke-width: 0.8"/>
      </g>
     </g>
     <g id="text_5">
      <!-- 1900 -->
      <g transform="translate(277.544091 322.182437) scale(0.1 -0.1)">
       <defs>
        <path id="DejaVuSans-39" d="M 703 97 
L 703 672 
Q 941 559 1184 500 
Q 1428 441 1663 441 
Q 2288 441 2617 861 
Q 2947 1281 2994 2138 
Q 2813 1869 2534 1725 
Q 2256 1581 1919 1581 
Q 1219 1581 811 2004 
Q 403 2428 403 3163 
Q 403 3881 828 4315 
Q 1253 4750 1959 4750 
Q 2769 4750 3195 4129 
Q 3622 3509 3622 2328 
Q 3622 1225 3098 567 
Q 2575 -91 1691 -91 
Q 1453 -91 1209 -44 
Q 966 3 703 97 
z
M 1959 2075 
Q 2384 2075 2632 2365 
Q 2881 2656 2881 3163 
Q 2881 3666 2632 3958 
Q 2384 4250 1959 4250 
Q 1534 4250 1286 3958 
Q 1038 3666 1038 3163 
Q 1038 2656 1286 2365 
Q 1534 2075 1959 2075 
z
" transform="scale(0.015625)"/>
       </defs>
       <use xlink:href="#DejaVuSans-31"/>
       <use xlink:href="#DejaVuSans-39" x="63.623047"/>
       <use xlink:href="#DejaVuSans-30" x="127.246094"/>
       <use xlink:href="#DejaVuSans-30" x="190.869141"/>
      </g>
     </g>
    </g>
    <g id="xtick_6">
     <g id="line2d_6">
      <g>
       <use xlink:href="#m6cbc2e5dab" x="344.378182" y="307.584" style="stroke: #000000; stroke-width: 0.8"/>
      </g>
     </g>
     <g id="text_6">
      <!-- 1950 -->
      <g transform="translate(331.653182 322.182437) scale(0.1 -0.1)">
       <use xlink:href="#DejaVuSans-31"/>
       <use xlink:href="#DejaVuSans-39" x="63.623047"/>
       <use xlink:href="#DejaVuSans-35" x="127.246094"/>
       <use xlink:href="#DejaVuSans-30" x="190.869141"/>
      </g>
     </g>
    </g>
    <g id="xtick_7">
     <g id="line2d_7">
      <g>
       <use xlink:href="#m6cbc2e5dab" x="398.487273" y="307.584" style="stroke: #000000; stroke-width: 0.8"/>
      </g>
     </g>
     <g id="text_7">
      <!-- 2000 -->
      <g transform="translate(385.762273 322.182437) scale(0.1 -0.1)">
       <defs>
        <path id="DejaVuSans-32" d="M 1228 531 
L 3431 531 
L 3431 0 
L 469 0 
L 469 531 
Q 828 903 1448 1529 
Q 2069 2156 2228 2338 
Q 2531 2678 2651 2914 
Q 2772 3150 2772 3378 
Q 2772 3750 2511 3984 
Q 2250 4219 1831 4219 
Q 1534 4219 1204 4116 
Q 875 4013 500 3803 
L 500 4441 
Q 881 4594 1212 4672 
Q 1544 4750 1819 4750 
Q 2544 4750 2975 4387 
Q 3406 4025 3406 3419 
Q 3406 3131 3298 2873 
Q 3191 2616 2906 2266 
Q 2828 2175 2409 1742 
Q 1991 1309 1228 531 
z
" transform="scale(0.015625)"/>
       </defs>
       <use xlink:href="#DejaVuSans-32"/>
       <use xlink:href="#DejaVuSans-30" x="63.623047"/>
       <use xlink:href="#DejaVuSans-30" x="127.246094"/>
       <use xlink:href="#DejaVuSans-30" x="190.869141"/>
      </g>
     </g>
    </g>
    <g id="xtick_8">
     <g id="line2d_8">
      <defs>
       <path id="m7450f92210" d="M 0 0 
L 0 2 
" style="stroke: #000000; stroke-width: 0.6"/>
      </defs>
      <g>
       <use xlink:href="#m7450f92210" x="100.887273" y="307.584" style="stroke: #000000; stroke-width: 0.6"/>
      </g>
     </g>
    </g>
    <g id="xtick_9">
     <g id="line2d_9">
      <g>
       <use xlink:href="#m7450f92210" x="154.996364" y="307.584" style="stroke: #000000; stroke-width: 0.6"/>
      </g>
     </g>
    </g>
    <g id="xtick_10">
     <g id="line2d_10">
      <g>
       <use xlink:href="#m7450f92210" x="209.105455" y="307.584" style="stroke: #000000; stroke-width: 0.6"/>
      </g>
     </g>
    </g>
    <g id="xtick_11">
     <g id="line2d_11">
      <g>
       <use xlink:href="#m7450f92210" x="263.214545" y="307.584" style="stroke: #000000; stroke-width: 0.6"/>
      </g>
     </g>
    </g>
    <g id="xtick_12">
     <g id="line2d_12">
      <g>
       <use xlink:href="#m7450f92210" x="317.323636" y="307.584" style="stroke: #000000; stroke-width: 0.6"/>
      </g>
     </g>
    </g>
    <g id="xtick_13">
     <g id="line2d_13">
      <g>
       <use xlink:href="#m7450f92210" x="371.432727" y="307.584" style="stroke: #000000; stroke-width: 0.6"/>
      </g>
     </g>
    </g>
   </g>
   <g id="matplotlib.axis_2">
    <g id="ytick_1">
     <g id="line2d_14">
      <defs>
       <path id="mcf2e2accd4" d="M 0 0 
L -3.5 0 
" style="stroke: #000000; stroke-width: 0.8"/>
      </defs>
      <g>
       <use xlink:href="#mcf2e2accd4" x="57.6" y="307.584" style="stroke: #000000; stroke-width: 0.8"/>
      </g>
     </g>
     <g id="text_8">
      <!-- 0 -->
      <g transform="translate(44.2375 311.383219) scale(0.1 -0.1)">
       <use xlink:href="#DejaVuSans-30"/>
      </g>
     </g>
    </g>
    <g id="ytick_2">
     <g id="line2d_15">
      <g>
       <use xlink:href="#mcf2e2accd4" x="57.6" y="248.917333" style="stroke: #000000; stroke-width: 0.8"/>
      </g>
     </g>
     <g id="text_9">
      <!-- 500 -->
      <g transform="translate(31.5125 252.716552) scale(0.1 -0.1)">
       <use xlink:href="#DejaVuSans-35"/>
       <use xlink:href="#DejaVuSans-30" x="63.623047"/>
       <use xlink:href="#DejaVuSans-30" x="127.246094"/>
      </g>
     </g>
    </g>
    <g id="ytick_3">
     <g id="line2d_16">
      <g>
       <use xlink:href="#mcf2e2accd4" x="57.6" y="190.250667" style="stroke: #000000; stroke-width: 0.8"/>
      </g>
     </g>
     <g id="text_10">
      <!-- 1000 -->
      <g transform="translate(25.15 194.049885) scale(0.1 -0.1)">
       <use xlink:href="#DejaVuSans-31"/>
       <use xlink:href="#DejaVuSans-30" x="63.623047"/>
       <use xlink:href="#DejaVuSans-30" x="127.246094"/>
       <use xlink:href="#DejaVuSans-30" x="190.869141"/>
      </g>
     </g>
    </g>
    <g id="ytick_4">
     <g id="line2d_17">
      <g>
       <use xlink:href="#mcf2e2accd4" x="57.6" y="131.584" style="stroke: #000000; stroke-width: 0.8"/>
      </g>
     </g>
     <g id="text_11">
      <!-- 1500 -->
      <g transform="translate(25.15 135.383219) scale(0.1 -0.1)">
       <use xlink:href="#DejaVuSans-31"/>
       <use xlink:href="#DejaVuSans-35" x="63.623047"/>
       <use xlink:href="#DejaVuSans-30" x="127.246094"/>
       <use xlink:href="#DejaVuSans-30" x="190.869141"/>
      </g>
     </g>
    </g>
    <g id="ytick_5">
     <g id="line2d_18">
      <g>
       <use xlink:href="#mcf2e2accd4" x="57.6" y="72.917333" style="stroke: #000000; stroke-width: 0.8"/>
      </g>
     </g>
     <g id="text_12">
      <!-- 2000 -->
      <g transform="translate(25.15 76.716552) scale(0.1 -0.1)">
       <use xlink:href="#DejaVuSans-32"/>
       <use xlink:href="#DejaVuSans-30" x="63.623047"/>
       <use xlink:href="#DejaVuSans-30" x="127.246094"/>
       <use xlink:href="#DejaVuSans-30" x="190.869141"/>
      </g>
     </g>
    </g>
   </g>
   <g id="line2d_19">
    <path d="M 320.570182 307.584 
L 320.570182 41.472 
" clip-path="url(#pf3ae569488)" style="fill: none; stroke: #000000; stroke-width: 1.5; stroke-linecap: square"/>
   </g>
   <g id="patch_303">
    <path d="M 57.6 307.584 
L 57.6 41.472 
" style="fill: none; stroke: #000000; stroke-width: 0.8; stroke-linejoin: miter; stroke-linecap: square"/>
   </g>
   <g id="patch_304">
    <path d="M 414.72 307.584 
L 414.72 41.472 
" style="fill: none; stroke: #000000; stroke-width: 0.8; stroke-linejoin: miter; stroke-linecap: square"/>
   </g>
   <g id="patch_305">
    <path d="M 57.6 307.584 
L 414.72 307.584 
" style="fill: none; stroke: #000000; stroke-width: 0.8; stroke-linejoin: miter; stroke-linecap: square"/>
   </g>
   <g id="patch_306">
    <path d="M 57.6 41.472 
L 414.72 41.472 
" style="fill: none; stroke: #000000; stroke-width: 0.8; stroke-linejoin: miter; stroke-linecap: square"/>
   </g>
   <g id="text_13">
    <!-- Frequency of all Volumes -->
    <g transform="translate(161.207812 35.472) scale(0.12 -0.12)">
     <defs>
      <path id="DejaVuSans-46" d="M 628 4666 
L 3309 4666 
L 3309 4134 
L 1259 4134 
L 1259 2759 
L 3109 2759 
L 3109 2228 
L 1259 2228 
L 1259 0 
L 628 0 
L 628 4666 
z
" transform="scale(0.015625)"/>
      <path id="DejaVuSans-72" d="M 2631 2963 
Q 2534 3019 2420 3045 
Q 2306 3072 2169 3072 
Q 1681 3072 1420 2755 
Q 1159 2438 1159 1844 
L 1159 0 
L 581 0 
L 581 3500 
L 1159 3500 
L 1159 2956 
Q 1341 3275 1631 3429 
Q 1922 3584 2338 3584 
Q 2397 3584 2469 3576 
Q 2541 3569 2628 3553 
L 2631 2963 
z
" transform="scale(0.015625)"/>
      <path id="DejaVuSans-65" d="M 3597 1894 
L 3597 1613 
L 953 1613 
Q 991 1019 1311 708 
Q 1631 397 2203 397 
Q 2534 397 2845 478 
Q 3156 559 3463 722 
L 3463 178 
Q 3153 47 2828 -22 
Q 2503 -91 2169 -91 
Q 1331 -91 842 396 
Q 353 884 353 1716 
Q 353 2575 817 3079 
Q 1281 3584 2069 3584 
Q 2775 3584 3186 3129 
Q 3597 2675 3597 1894 
z
M 3022 2063 
Q 3016 2534 2758 2815 
Q 2500 3097 2075 3097 
Q 1594 3097 1305 2825 
Q 1016 2553 972 2059 
L 3022 2063 
z
" transform="scale(0.015625)"/>
      <path id="DejaVuSans-71" d="M 947 1747 
Q 947 1113 1208 752 
Q 1469 391 1925 391 
Q 2381 391 2643 752 
Q 2906 1113 2906 1747 
Q 2906 2381 2643 2742 
Q 2381 3103 1925 3103 
Q 1469 3103 1208 2742 
Q 947 2381 947 1747 
z
M 2906 525 
Q 2725 213 2448 61 
Q 2172 -91 1784 -91 
Q 1150 -91 751 415 
Q 353 922 353 1747 
Q 353 2572 751 3078 
Q 1150 3584 1784 3584 
Q 2172 3584 2448 3432 
Q 2725 3281 2906 2969 
L 2906 3500 
L 3481 3500 
L 3481 -1331 
L 2906 -1331 
L 2906 525 
z
" transform="scale(0.015625)"/>
      <path id="DejaVuSans-75" d="M 544 1381 
L 544 3500 
L 1119 3500 
L 1119 1403 
Q 1119 906 1312 657 
Q 1506 409 1894 409 
Q 2359 409 2629 706 
Q 2900 1003 2900 1516 
L 2900 3500 
L 3475 3500 
L 3475 0 
L 2900 0 
L 2900 538 
Q 2691 219 2414 64 
Q 2138 -91 1772 -91 
Q 1169 -91 856 284 
Q 544 659 544 1381 
z
M 1991 3584 
L 1991 3584 
z
" transform="scale(0.015625)"/>
      <path id="DejaVuSans-6e" d="M 3513 2113 
L 3513 0 
L 2938 0 
L 2938 2094 
Q 2938 2591 2744 2837 
Q 2550 3084 2163 3084 
Q 1697 3084 1428 2787 
Q 1159 2491 1159 1978 
L 1159 0 
L 581 0 
L 581 3500 
L 1159 3500 
L 1159 2956 
Q 1366 3272 1645 3428 
Q 1925 3584 2291 3584 
Q 2894 3584 3203 3211 
Q 3513 2838 3513 2113 
z
" transform="scale(0.015625)"/>
      <path id="DejaVuSans-63" d="M 3122 3366 
L 3122 2828 
Q 2878 2963 2633 3030 
Q 2388 3097 2138 3097 
Q 1578 3097 1268 2742 
Q 959 2388 959 1747 
Q 959 1106 1268 751 
Q 1578 397 2138 397 
Q 2388 397 2633 464 
Q 2878 531 3122 666 
L 3122 134 
Q 2881 22 2623 -34 
Q 2366 -91 2075 -91 
Q 1284 -91 818 406 
Q 353 903 353 1747 
Q 353 2603 823 3093 
Q 1294 3584 2113 3584 
Q 2378 3584 2631 3529 
Q 2884 3475 3122 3366 
z
" transform="scale(0.015625)"/>
      <path id="DejaVuSans-79" d="M 2059 -325 
Q 1816 -950 1584 -1140 
Q 1353 -1331 966 -1331 
L 506 -1331 
L 506 -850 
L 844 -850 
Q 1081 -850 1212 -737 
Q 1344 -625 1503 -206 
L 1606 56 
L 191 3500 
L 800 3500 
L 1894 763 
L 2988 3500 
L 3597 3500 
L 2059 -325 
z
" transform="scale(0.015625)"/>
      <path id="DejaVuSans-20" transform="scale(0.015625)"/>
      <path id="DejaVuSans-6f" d="M 1959 3097 
Q 1497 3097 1228 2736 
Q 959 2375 959 1747 
Q 959 1119 1226 758 
Q 1494 397 1959 397 
Q 2419 397 2687 759 
Q 2956 1122 2956 1747 
Q 2956 2369 2687 2733 
Q 2419 3097 1959 3097 
z
M 1959 3584 
Q 2709 3584 3137 3096 
Q 3566 2609 3566 1747 
Q 3566 888 3137 398 
Q 2709 -91 1959 -91 
Q 1206 -91 779 398 
Q 353 888 353 1747 
Q 353 2609 779 3096 
Q 1206 3584 1959 3584 
z
" transform="scale(0.015625)"/>
      <path id="DejaVuSans-66" d="M 2375 4863 
L 2375 4384 
L 1825 4384 
Q 1516 4384 1395 4259 
Q 1275 4134 1275 3809 
L 1275 3500 
L 2222 3500 
L 2222 3053 
L 1275 3053 
L 1275 0 
L 697 0 
L 697 3053 
L 147 3053 
L 147 3500 
L 697 3500 
L 697 3744 
Q 697 4328 969 4595 
Q 1241 4863 1831 4863 
L 2375 4863 
z
" transform="scale(0.015625)"/>
      <path id="DejaVuSans-61" d="M 2194 1759 
Q 1497 1759 1228 1600 
Q 959 1441 959 1056 
Q 959 750 1161 570 
Q 1363 391 1709 391 
Q 2188 391 2477 730 
Q 2766 1069 2766 1631 
L 2766 1759 
L 2194 1759 
z
M 3341 1997 
L 3341 0 
L 2766 0 
L 2766 531 
Q 2569 213 2275 61 
Q 1981 -91 1556 -91 
Q 1019 -91 701 211 
Q 384 513 384 1019 
Q 384 1609 779 1909 
Q 1175 2209 1959 2209 
L 2766 2209 
L 2766 2266 
Q 2766 2663 2505 2880 
Q 2244 3097 1772 3097 
Q 1472 3097 1187 3025 
Q 903 2953 641 2809 
L 641 3341 
Q 956 3463 1253 3523 
Q 1550 3584 1831 3584 
Q 2591 3584 2966 3190 
Q 3341 2797 3341 1997 
z
" transform="scale(0.015625)"/>
      <path id="DejaVuSans-6c" d="M 603 4863 
L 1178 4863 
L 1178 0 
L 603 0 
L 603 4863 
z
" transform="scale(0.015625)"/>
      <path id="DejaVuSans-56" d="M 1831 0 
L 50 4666 
L 709 4666 
L 2188 738 
L 3669 4666 
L 4325 4666 
L 2547 0 
L 1831 0 
z
" transform="scale(0.015625)"/>
      <path id="DejaVuSans-6d" d="M 3328 2828 
Q 3544 3216 3844 3400 
Q 4144 3584 4550 3584 
Q 5097 3584 5394 3201 
Q 5691 2819 5691 2113 
L 5691 0 
L 5113 0 
L 5113 2094 
Q 5113 2597 4934 2840 
Q 4756 3084 4391 3084 
Q 3944 3084 3684 2787 
Q 3425 2491 3425 1978 
L 3425 0 
L 2847 0 
L 2847 2094 
Q 2847 2600 2669 2842 
Q 2491 3084 2119 3084 
Q 1678 3084 1418 2786 
Q 1159 2488 1159 1978 
L 1159 0 
L 581 0 
L 581 3500 
L 1159 3500 
L 1159 2956 
Q 1356 3278 1631 3431 
Q 1906 3584 2284 3584 
Q 2666 3584 2933 3390 
Q 3200 3197 3328 2828 
z
" transform="scale(0.015625)"/>
      <path id="DejaVuSans-73" d="M 2834 3397 
L 2834 2853 
Q 2591 2978 2328 3040 
Q 2066 3103 1784 3103 
Q 1356 3103 1142 2972 
Q 928 2841 928 2578 
Q 928 2378 1081 2264 
Q 1234 2150 1697 2047 
L 1894 2003 
Q 2506 1872 2764 1633 
Q 3022 1394 3022 966 
Q 3022 478 2636 193 
Q 2250 -91 1575 -91 
Q 1294 -91 989 -36 
Q 684 19 347 128 
L 347 722 
Q 666 556 975 473 
Q 1284 391 1588 391 
Q 1994 391 2212 530 
Q 2431 669 2431 922 
Q 2431 1156 2273 1281 
Q 2116 1406 1581 1522 
L 1381 1569 
Q 847 1681 609 1914 
Q 372 2147 372 2553 
Q 372 3047 722 3315 
Q 1072 3584 1716 3584 
Q 2034 3584 2315 3537 
Q 2597 3491 2834 3397 
z
" transform="scale(0.015625)"/>
     </defs>
     <use xlink:href="#DejaVuSans-46"/>
     <use xlink:href="#DejaVuSans-72" x="50.269531"/>
     <use xlink:href="#DejaVuSans-65" x="89.132812"/>
     <use xlink:href="#DejaVuSans-71" x="150.65625"/>
     <use xlink:href="#DejaVuSans-75" x="214.132812"/>
     <use xlink:href="#DejaVuSans-65" x="277.511719"/>
     <use xlink:href="#DejaVuSans-6e" x="339.035156"/>
     <use xlink:href="#DejaVuSans-63" x="402.414062"/>
     <use xlink:href="#DejaVuSans-79" x="457.394531"/>
     <use xlink:href="#DejaVuSans-20" x="516.574219"/>
     <use xlink:href="#DejaVuSans-6f" x="548.361328"/>
     <use xlink:href="#DejaVuSans-66" x="609.542969"/>
     <use xlink:href="#DejaVuSans-20" x="644.748047"/>
     <use xlink:href="#DejaVuSans-61" x="676.535156"/>
     <use xlink:href="#DejaVuSans-6c" x="737.814453"/>
     <use xlink:href="#DejaVuSans-6c" x="765.597656"/>
     <use xlink:href="#DejaVuSans-20" x="793.380859"/>
     <use xlink:href="#DejaVuSans-56" x="825.167969"/>
     <use xlink:href="#DejaVuSans-6f" x="885.826172"/>
     <use xlink:href="#DejaVuSans-6c" x="947.007812"/>
     <use xlink:href="#DejaVuSans-75" x="974.791016"/>
     <use xlink:href="#DejaVuSans-6d" x="1038.169922"/>
     <use xlink:href="#DejaVuSans-65" x="1135.582031"/>
     <use xlink:href="#DejaVuSans-73" x="1197.105469"/>
    </g>
   </g>
   <g id="legend_1">
    <g id="patch_307">
     <path d="M 64.6 78.82825 
L 231.904687 78.82825 
Q 233.904687 78.82825 233.904687 76.82825 
L 233.904687 48.472 
Q 233.904687 46.472 231.904687 46.472 
L 64.6 46.472 
Q 62.6 46.472 62.6 48.472 
L 62.6 76.82825 
Q 62.6 78.82825 64.6 78.82825 
z
" style="fill: #ffffff; opacity: 0.8; stroke: #cccccc; stroke-linejoin: miter"/>
    </g>
    <g id="patch_308">
     <path d="M 66.6 58.070437 
L 86.6 58.070437 
L 86.6 51.070437 
L 66.6 51.070437 
z
" style="fill: #0000ff"/>
    </g>
    <g id="text_14">
     <!-- Total Volumes per Year -->
     <g transform="translate(94.6 58.070437) scale(0.1 -0.1)">
      <defs>
       <path id="DejaVuSans-54" d="M -19 4666 
L 3928 4666 
L 3928 4134 
L 2272 4134 
L 2272 0 
L 1638 0 
L 1638 4134 
L -19 4134 
L -19 4666 
z
" transform="scale(0.015625)"/>
       <path id="DejaVuSans-74" d="M 1172 4494 
L 1172 3500 
L 2356 3500 
L 2356 3053 
L 1172 3053 
L 1172 1153 
Q 1172 725 1289 603 
Q 1406 481 1766 481 
L 2356 481 
L 2356 0 
L 1766 0 
Q 1100 0 847 248 
Q 594 497 594 1153 
L 594 3053 
L 172 3053 
L 172 3500 
L 594 3500 
L 594 4494 
L 1172 4494 
z
" transform="scale(0.015625)"/>
       <path id="DejaVuSans-70" d="M 1159 525 
L 1159 -1331 
L 581 -1331 
L 581 3500 
L 1159 3500 
L 1159 2969 
Q 1341 3281 1617 3432 
Q 1894 3584 2278 3584 
Q 2916 3584 3314 3078 
Q 3713 2572 3713 1747 
Q 3713 922 3314 415 
Q 2916 -91 2278 -91 
Q 1894 -91 1617 61 
Q 1341 213 1159 525 
z
M 3116 1747 
Q 3116 2381 2855 2742 
Q 2594 3103 2138 3103 
Q 1681 3103 1420 2742 
Q 1159 2381 1159 1747 
Q 1159 1113 1420 752 
Q 1681 391 2138 391 
Q 2594 391 2855 752 
Q 3116 1113 3116 1747 
z
" transform="scale(0.015625)"/>
       <path id="DejaVuSans-59" d="M -13 4666 
L 666 4666 
L 1959 2747 
L 3244 4666 
L 3922 4666 
L 2272 2222 
L 2272 0 
L 1638 0 
L 1638 2222 
L -13 4666 
z
" transform="scale(0.015625)"/>
      </defs>
      <use xlink:href="#DejaVuSans-54"/>
      <use xlink:href="#DejaVuSans-6f" x="44.083984"/>
      <use xlink:href="#DejaVuSans-74" x="105.265625"/>
      <use xlink:href="#DejaVuSans-61" x="144.474609"/>
      <use xlink:href="#DejaVuSans-6c" x="205.753906"/>
      <use xlink:href="#DejaVuSans-20" x="233.537109"/>
      <use xlink:href="#DejaVuSans-56" x="265.324219"/>
      <use xlink:href="#DejaVuSans-6f" x="325.982422"/>
      <use xlink:href="#DejaVuSans-6c" x="387.164062"/>
      <use xlink:href="#DejaVuSans-75" x="414.947266"/>
      <use xlink:href="#DejaVuSans-6d" x="478.326172"/>
      <use xlink:href="#DejaVuSans-65" x="575.738281"/>
      <use xlink:href="#DejaVuSans-73" x="637.261719"/>
      <use xlink:href="#DejaVuSans-20" x="689.361328"/>
      <use xlink:href="#DejaVuSans-70" x="721.148438"/>
      <use xlink:href="#DejaVuSans-65" x="784.625"/>
      <use xlink:href="#DejaVuSans-72" x="846.148438"/>
      <use xlink:href="#DejaVuSans-20" x="887.261719"/>
      <use xlink:href="#DejaVuSans-59" x="919.048828"/>
      <use xlink:href="#DejaVuSans-65" x="966.882812"/>
      <use xlink:href="#DejaVuSans-61" x="1028.40625"/>
      <use xlink:href="#DejaVuSans-72" x="1089.685547"/>
     </g>
    </g>
    <g id="line2d_20">
     <path d="M 66.6 69.248562 
L 76.6 69.248562 
L 86.6 69.248562 
" style="fill: none; stroke: #000000; stroke-width: 1.5; stroke-linecap: square"/>
    </g>
    <g id="text_15">
     <!-- Public Domain cutoff: 1928 -->
     <g transform="translate(94.6 72.748562) scale(0.1 -0.1)">
      <defs>
       <path id="DejaVuSans-50" d="M 1259 4147 
L 1259 2394 
L 2053 2394 
Q 2494 2394 2734 2622 
Q 2975 2850 2975 3272 
Q 2975 3691 2734 3919 
Q 2494 4147 2053 4147 
L 1259 4147 
z
M 628 4666 
L 2053 4666 
Q 2838 4666 3239 4311 
Q 3641 3956 3641 3272 
Q 3641 2581 3239 2228 
Q 2838 1875 2053 1875 
L 1259 1875 
L 1259 0 
L 628 0 
L 628 4666 
z
" transform="scale(0.015625)"/>
       <path id="DejaVuSans-62" d="M 3116 1747 
Q 3116 2381 2855 2742 
Q 2594 3103 2138 3103 
Q 1681 3103 1420 2742 
Q 1159 2381 1159 1747 
Q 1159 1113 1420 752 
Q 1681 391 2138 391 
Q 2594 391 2855 752 
Q 3116 1113 3116 1747 
z
M 1159 2969 
Q 1341 3281 1617 3432 
Q 1894 3584 2278 3584 
Q 2916 3584 3314 3078 
Q 3713 2572 3713 1747 
Q 3713 922 3314 415 
Q 2916 -91 2278 -91 
Q 1894 -91 1617 61 
Q 1341 213 1159 525 
L 1159 0 
L 581 0 
L 581 4863 
L 1159 4863 
L 1159 2969 
z
" transform="scale(0.015625)"/>
       <path id="DejaVuSans-69" d="M 603 3500 
L 1178 3500 
L 1178 0 
L 603 0 
L 603 3500 
z
M 603 4863 
L 1178 4863 
L 1178 4134 
L 603 4134 
L 603 4863 
z
" transform="scale(0.015625)"/>
       <path id="DejaVuSans-44" d="M 1259 4147 
L 1259 519 
L 2022 519 
Q 2988 519 3436 956 
Q 3884 1394 3884 2338 
Q 3884 3275 3436 3711 
Q 2988 4147 2022 4147 
L 1259 4147 
z
M 628 4666 
L 1925 4666 
Q 3281 4666 3915 4102 
Q 4550 3538 4550 2338 
Q 4550 1131 3912 565 
Q 3275 0 1925 0 
L 628 0 
L 628 4666 
z
" transform="scale(0.015625)"/>
       <path id="DejaVuSans-3a" d="M 750 794 
L 1409 794 
L 1409 0 
L 750 0 
L 750 794 
z
M 750 3309 
L 1409 3309 
L 1409 2516 
L 750 2516 
L 750 3309 
z
" transform="scale(0.015625)"/>
      </defs>
      <use xlink:href="#DejaVuSans-50"/>
      <use xlink:href="#DejaVuSans-75" x="58.552734"/>
      <use xlink:href="#DejaVuSans-62" x="121.931641"/>
      <use xlink:href="#DejaVuSans-6c" x="185.408203"/>
      <use xlink:href="#DejaVuSans-69" x="213.191406"/>
      <use xlink:href="#DejaVuSans-63" x="240.974609"/>
      <use xlink:href="#DejaVuSans-20" x="295.955078"/>
      <use xlink:href="#DejaVuSans-44" x="327.742188"/>
      <use xlink:href="#DejaVuSans-6f" x="404.744141"/>
      <use xlink:href="#DejaVuSans-6d" x="465.925781"/>
      <use xlink:href="#DejaVuSans-61" x="563.337891"/>
      <use xlink:href="#DejaVuSans-69" x="624.617188"/>
      <use xlink:href="#DejaVuSans-6e" x="652.400391"/>
      <use xlink:href="#DejaVuSans-20" x="715.779297"/>
      <use xlink:href="#DejaVuSans-63" x="747.566406"/>
      <use xlink:href="#DejaVuSans-75" x="802.546875"/>
      <use xlink:href="#DejaVuSans-74" x="865.925781"/>
      <use xlink:href="#DejaVuSans-6f" x="905.134766"/>
      <use xlink:href="#DejaVuSans-66" x="966.316406"/>
      <use xlink:href="#DejaVuSans-66" x="1001.521484"/>
      <use xlink:href="#DejaVuSans-3a" x="1033.101562"/>
      <use xlink:href="#DejaVuSans-20" x="1066.792969"/>
      <use xlink:href="#DejaVuSans-31" x="1098.580078"/>
      <use xlink:href="#DejaVuSans-39" x="1162.203125"/>
      <use xlink:href="#DejaVuSans-32" x="1225.826172"/>
      <use xlink:href="#DejaVuSans-38" x="1289.449219"/>
     </g>
    </g>
   </g>
  </g>
 </g>
 <defs>
  <clipPath id="pf3ae569488">
   <rect x="57.6" y="41.472" width="357.12" height="266.112"/>
  </clipPath>
 </defs>
</svg>
