<svg width="1758" height="2170" xmlns="http://www.w3.org/2000/svg" xmlns:xlink="http://www.w3.org/1999/xlink" xml:space="preserve" overflow="hidden"><g transform="translate(-472 -96)"><path d="M500.5 1070.34C500.5 978.195 575.195 903.5 667.337 903.5L1997.66 903.5C2089.8 903.5 2164.5 978.195 2164.5 1070.34L2164.5 1737.66C2164.5 1829.8 2089.8 1904.5 1997.66 1904.5L667.337 1904.5C575.195 1904.5 500.5 1829.8 500.5 1737.66Z" stroke="#172C51" stroke-width="4.58333" stroke-miterlimit="8" fill="#F8CBAD" fill-rule="evenodd"/><path d="M500.5 517.668C500.5 486.647 525.647 461.5 556.667 461.5L2108.33 461.5C2139.35 461.5 2164.5 486.647 2164.5 517.668L2164.5 742.332C2164.5 773.353 2139.35 798.5 2108.33 798.5L556.667 798.5C525.647 798.5 500.5 773.353 500.5 742.332Z" stroke="#172C51" stroke-width="4.58333" stroke-miterlimit="8" fill="#B4C7E7" fill-rule="evenodd"/><path d="M1364.5 544.334C1364.5 520.677 1383.68 501.5 1407.33 501.5L1665.67 501.5C1689.32 501.5 1708.5 520.677 1708.5 544.334L1708.5 715.666C1708.5 739.323 1689.32 758.5 1665.67 758.5L1407.33 758.5C1383.68 758.5 1364.5 739.323 1364.5 715.666Z" stroke="#172C51" stroke-width="4.58333" stroke-miterlimit="8" fill="#4472C4" fill-rule="evenodd"/><text fill="#FFFFFF" font-family="Calibri,Calibri_MSFontService,sans-serif" font-weight="400" font-size="48" transform="matrix(1 0 0 1 1419.6 588)">EfficientNet</text><text fill="#FFFFFF" font-family="Calibri,Calibri_MSFontService,sans-serif" font-weight="400" font-size="48" transform="matrix(1 0 0 1 1478.32 646)">_v2_L </text><text fill="#FFFFFF" font-family="Calibri,Calibri_MSFontService,sans-serif" font-weight="400" font-size="48" transform="matrix(1 0 0 1 1412.43 704)">(1028x1028)</text><path d="M566.5 544.334C566.5 520.677 585.677 501.5 609.334 501.5L867.666 501.5C891.323 501.5 910.5 520.677 910.5 544.334L910.5 715.666C910.5 739.323 891.323 758.5 867.666 758.5L609.334 758.5C585.677 758.5 566.5 739.323 566.5 715.666Z" stroke="#172C51" stroke-width="4.58333" stroke-miterlimit="8" fill="#4472C4" fill-rule="evenodd"/><text fill="#FFFFFF" font-family="Calibri,Calibri_MSFontService,sans-serif" font-weight="400" font-size="48" transform="matrix(1 0 0 1 621.661 588)">EfficientNet</text><text fill="#FFFFFF" font-family="Calibri,Calibri_MSFontService,sans-serif" font-weight="400" font-size="48" transform="matrix(1 0 0 1 700.724 646)">_b0 </text><text fill="#FFFFFF" font-family="Calibri,Calibri_MSFontService,sans-serif" font-weight="400" font-size="48" transform="matrix(1 0 0 1 639.124 704)">(512x512)</text><path d="M965.5 544.334C965.5 520.677 984.678 501.5 1008.33 501.5L1266.67 501.5C1290.32 501.5 1309.5 520.677 1309.5 544.334L1309.5 715.666C1309.5 739.323 1290.32 758.5 1266.67 758.5L1008.33 758.5C984.678 758.5 965.5 739.323 965.5 715.666Z" stroke="#172C51" stroke-width="4.58333" stroke-miterlimit="8" fill="#4472C4" fill-rule="evenodd"/><text fill="#FFFFFF" font-family="Calibri,Calibri_MSFontService,sans-serif" font-weight="400" font-size="48" transform="matrix(1 0 0 1 1020.63 588)">EfficientNet</text><text fill="#FFFFFF" font-family="Calibri,Calibri_MSFontService,sans-serif" font-weight="400" font-size="48" transform="matrix(1 0 0 1 1099.69 646)">_b7 </text><text fill="#FFFFFF" font-family="Calibri,Calibri_MSFontService,sans-serif" font-weight="400" font-size="48" transform="matrix(1 0 0 1 1038.09 704)">(768x768)</text><path d="M965.5 141.334C965.5 117.678 984.678 98.5002 1008.33 98.5002L1266.67 98.5002C1290.32 98.5002 1309.5 117.678 1309.5 141.334L1309.5 312.666C1309.5 336.323 1290.32 355.5 1266.67 355.5L1008.33 355.5C984.678 355.5 965.5 336.323 965.5 312.666Z" stroke="#172C51" stroke-width="4.58333" stroke-miterlimit="8" fill="#ED7D31" fill-rule="evenodd"/><text font-family="Calibri,Calibri_MSFontService,sans-serif" font-weight="400" font-size="55" transform="matrix(1 0 0 1 1024.87 211)">32M page </text><text font-family="Calibri,Calibri_MSFontService,sans-serif" font-weight="400" font-size="55" transform="matrix(1 0 0 1 1075.86 277)">scans</text><path d="M1137.99 352.31 1529.52 495.705 1527.55 501.084 1136.02 357.69ZM1497.22 466.997 1535.96 501.114 1484.35 502.138C1482.77 502.169 1481.46 500.912 1481.43 499.33 1481.4 497.749 1482.65 496.441 1484.23 496.409L1528.48 495.532 1526.65 500.546 1493.43 471.297C1492.24 470.251 1492.13 468.441 1493.17 467.254 1494.22 466.067 1496.03 465.952 1497.22 466.997Z"/><path d="M1139.86 355 1139.86 493.209 1134.14 493.209 1134.14 355ZM1155.71 452.997 1137 501.113 1118.29 452.997C1117.72 451.523 1118.45 449.863 1119.92 449.289 1121.39 448.716 1123.06 449.446 1123.63 450.921L1139.67 492.171 1134.33 492.171 1150.37 450.921C1150.95 449.446 1152.61 448.716 1154.08 449.289 1155.55 449.863 1156.29 451.523 1155.71 452.997Z"/><path d="M0.985122-2.68986 392.522 140.704 390.552 146.084-0.985122 2.68986ZM360.217 111.997 398.963 146.114 347.347 147.137C345.765 147.169 344.458 145.912 344.426 144.33 344.395 142.748 345.652 141.441 347.234 141.409L391.484 140.532 389.648 145.546 356.431 116.297C355.243 115.251 355.128 113.441 356.174 112.254 357.219 111.066 359.029 110.951 360.217 111.997Z" transform="matrix(-1 0 0 1 1136.97 355)"/><path d="M1139.86 758 1139.87 962.574 1134.14 962.574 1134.14 758ZM1155.71 922.362 1137 970.477 1118.29 922.362C1117.72 920.888 1118.45 919.227 1119.92 918.654 1121.4 918.081 1123.06 918.811 1123.63 920.286L1139.67 961.536 1134.33 961.536 1150.37 920.286C1150.95 918.811 1152.61 918.081 1154.08 918.654 1155.55 919.227 1156.29 920.888 1155.71 922.362Z"/><text font-family="Calibri,Calibri_MSFontService,sans-serif" font-weight="400" font-size="55" transform="matrix(1 0 0 1 1848.72 580)">Primary </text><text font-family="Calibri,Calibri_MSFontService,sans-serif" font-weight="400" font-size="55" transform="matrix(1 0 0 1 1790.32 646)">Classification </text><text font-family="Calibri,Calibri_MSFontService,sans-serif" font-weight="400" font-size="55" transform="matrix(1 0 0 1 1827.08 712)">Ensemble</text><text font-family="Calibri,Calibri_MSFontService,sans-serif" font-weight="400" font-size="55" transform="matrix(1 0 0 1 1682.84 1024)">Total of 584,143 </text><text font-family="Calibri,Calibri_MSFontService,sans-serif" font-weight="400" font-size="55" transform="matrix(1 0 0 1 1714.94 1090)">unique pages</text><path d="M634.5 1059.34C634.5 1010.83 673.825 971.5 722.335 971.5L1475.66 971.5C1524.17 971.5 1563.5 1010.83 1563.5 1059.34L1563.5 1410.66C1563.5 1459.17 1524.17 1498.5 1475.66 1498.5L722.335 1498.5C673.825 1498.5 634.5 1459.17 634.5 1410.66Z" stroke="#172C51" stroke-width="4.58333" stroke-miterlimit="8" fill="#ED7D31" fill-rule="evenodd" fill-opacity="0.501961"/><path d="M566.5 1391.17C566.5 1341.09 607.094 1300.5 657.169 1300.5L1235.83 1300.5C1285.91 1300.5 1326.5 1341.09 1326.5 1391.17L1326.5 1753.83C1326.5 1803.91 1285.91 1844.5 1235.83 1844.5L657.169 1844.5C607.094 1844.5 566.5 1803.91 566.5 1753.83Z" stroke="#172C51" stroke-width="4.58333" stroke-miterlimit="8" fill="#ED7D31" fill-rule="evenodd" fill-opacity="0.501961"/><path d="M991.5 1269.17C991.5 1219.09 1032.09 1178.5 1082.17 1178.5L1628.83 1178.5C1678.91 1178.5 1719.5 1219.09 1719.5 1269.17L1719.5 1631.83C1719.5 1681.91 1678.91 1722.5 1628.83 1722.5L1082.17 1722.5C1032.09 1722.5 991.5 1681.91 991.5 1631.83Z" stroke="#172C51" stroke-width="4.58333" stroke-miterlimit="8" fill="#ED7D31" fill-rule="evenodd" fill-opacity="0.501961"/><text font-family="Calibri,Calibri_MSFontService,sans-serif" font-weight="400" font-size="73" transform="matrix(1 0 0 1 930.935 1105)">265,407</text><path d="M1538.81 757.463 1617.35 1169.17 1611.72 1170.24 1533.19 758.537ZM1625.38 1126.7 1616.02 1177.47 1588.62 1133.71C1587.78 1132.37 1588.19 1130.6 1589.53 1129.76 1590.87 1128.93 1592.64 1129.33 1593.48 1130.67L1616.96 1168.19 1611.72 1169.19 1619.75 1125.66C1620.03 1124.11 1621.53 1123.08 1623.08 1123.36 1624.64 1123.65 1625.67 1125.14 1625.38 1126.7Z"/><path d="M2.81397-0.53611 104.519 533.302 98.8915 534.375-2.81397 0.53611ZM112.562 490.842 103.186 541.609 75.8002 497.846C74.961 496.505 75.3678 494.737 76.709 493.898 78.0501 493.059 79.8176 493.466 80.6569 494.807L104.135 532.326 98.8897 533.325 106.928 489.802C107.215 488.246 108.71 487.218 110.265 487.505 111.821 487.792 112.849 489.286 112.562 490.842Z" transform="matrix(-1 0 0 1 737.186 758)"/><text font-family="Calibri,Calibri_MSFontService,sans-serif" font-weight="700" font-size="73" transform="matrix(1 0 0 1 1024.43 1420)">41,270</text><text font-family="Calibri,Calibri_MSFontService,sans-serif" font-weight="400" font-size="73" transform="matrix(1 0 0 1 1190.65 1273)">47,352</text><text font-family="Calibri,Calibri_MSFontService,sans-serif" font-weight="400" font-size="73" transform="matrix(1 0 0 1 1384.73 1649)">93,060</text><text font-family="Calibri,Calibri_MSFontService,sans-serif" font-weight="400" font-size="73" transform="matrix(1 0 0 1 1022.39 1649)">10,537</text><text font-family="Calibri,Calibri_MSFontService,sans-serif" font-weight="400" font-size="73" transform="matrix(1 0 0 1 702.453 1420)">48,628</text><text font-family="Calibri,Calibri_MSFontService,sans-serif" font-weight="400" font-size="73" transform="matrix(1 0 0 1 667.491 1686)">77,889</text><path d="M474.5 2049.33C474.5 2025.68 493.677 2006.5 517.334 2006.5L775.666 2006.5C799.323 2006.5 818.5 2025.68 818.5 2049.33L818.5 2220.67C818.5 2244.32 799.323 2263.5 775.666 2263.5L517.334 2263.5C493.677 2263.5 474.5 2244.32 474.5 2220.67Z" stroke="#172C51" stroke-width="4.58333" stroke-miterlimit="8" fill="#4472C4" fill-rule="evenodd"/><text fill="#FFFFFF" font-family="Calibri,Calibri_MSFontService,sans-serif" font-weight="400" font-size="64" transform="matrix(1 0 0 1 590.99 2156)">CLIP</text><path d="M944.5 2049.33C944.5 2025.68 963.678 2006.5 987.334 2006.5L1245.67 2006.5C1269.32 2006.5 1288.5 2025.68 1288.5 2049.33L1288.5 2220.67C1288.5 2244.32 1269.32 2263.5 1245.67 2263.5L987.334 2263.5C963.678 2263.5 944.5 2244.32 944.5 2220.67Z" stroke="#172C51" stroke-width="4.58333" stroke-miterlimit="8" fill="#ED7D31" fill-rule="evenodd"/><text font-family="Calibri,Calibri_MSFontService,sans-serif" font-weight="400" font-size="64" transform="matrix(1 0 0 1 1026.02 2156)">15,298</text><path d="M1413.5 2049.33C1413.5 2025.68 1432.68 2006.5 1456.33 2006.5L1714.67 2006.5C1738.32 2006.5 1757.5 2025.68 1757.5 2049.33L1757.5 2220.67C1757.5 2244.32 1738.32 2263.5 1714.67 2263.5L1456.33 2263.5C1432.68 2263.5 1413.5 2244.32 1413.5 2220.67Z" stroke="#172C51" stroke-width="4.58333" stroke-miterlimit="8" fill="#4472C4" fill-rule="evenodd"/><text fill="#FFFFFF" font-family="Calibri,Calibri_MSFontService,sans-serif" font-weight="400" font-size="55" transform="matrix(1 0 0 1 1504.01 2119)">Human </text><text fill="#FFFFFF" font-family="Calibri,Calibri_MSFontService,sans-serif" font-weight="400" font-size="55" transform="matrix(1 0 0 1 1459.62 2185)">Annotation</text><path d="M1882.5 2049.33C1882.5 2025.68 1901.68 2006.5 1925.33 2006.5L2184.67 2006.5C2208.32 2006.5 2227.5 2025.68 2227.5 2049.33L2227.5 2220.67C2227.5 2244.32 2208.32 2263.5 2184.67 2263.5L1925.33 2263.5C1901.68 2263.5 1882.5 2244.32 1882.5 2220.67Z" stroke="#172C51" stroke-width="4.58333" stroke-miterlimit="8" fill="#ED7D31" fill-rule="evenodd"/><text font-family="Calibri,Calibri_MSFontService,sans-serif" font-weight="400" font-size="64" transform="matrix(1 0 0 1 1981.15 2156)">2,622</text><path d="M0.421055-2.83347 678.632 97.9491 677.79 103.616-0.421055 2.83347ZM641.183 76.3632 686.025 101.944 635.682 113.38C634.139 113.73 632.604 112.764 632.254 111.221 631.903 109.678 632.87 108.143 634.413 107.793L677.573 97.9886 676.788 103.27 638.344 81.3396C636.97 80.5557 636.491 78.8062 637.275 77.432 638.059 76.0578 639.808 75.5793 641.183 76.3632Z" transform="matrix(-1 0 0 1 1332.03 1904)"/><path d="M8.25569e-06-2.86458 117.317-2.86425 117.317 2.86492-8.25569e-06 2.86458ZM77.1056-18.7112 125.221 0.000360726 77.1055 18.7117C75.631 19.2851 73.9708 18.5546 73.3974 17.0801 72.824 15.6056 73.5545 13.9455 75.029 13.3721L116.279-2.66947 116.279 2.67014 75.0291-13.3716C73.5546-13.9451 72.8241-15.6052 73.3975-17.0797 73.9709-18.5542 75.6311-19.2847 77.1056-18.7112Z" transform="matrix(1 0 0 -1 818 2134)"/><path d="M1288 2131.14 1405.32 2131.14 1405.32 2136.86 1288 2136.86ZM1365.11 2115.29 1413.22 2134 1365.11 2152.71C1363.63 2153.29 1361.97 2152.55 1361.4 2151.08 1360.82 2149.61 1361.55 2147.95 1363.03 2147.37L1404.28 2131.33 1404.28 2136.67 1363.03 2120.63C1361.55 2120.05 1360.82 2118.39 1361.4 2116.92 1361.97 2115.45 1363.63 2114.72 1365.11 2115.29Z"/><path d="M1757 2131.14 1874.32 2131.14 1874.32 2136.86 1757 2136.86ZM1834.11 2115.29 1882.22 2134 1834.1 2152.71C1832.63 2153.29 1830.97 2152.55 1830.4 2151.08 1829.82 2149.61 1830.55 2147.95 1832.03 2147.37L1873.28 2131.33 1873.28 2136.67 1832.03 2120.63C1830.55 2120.05 1829.82 2118.39 1830.4 2116.92 1830.97 2115.45 1832.63 2114.72 1834.11 2115.29Z"/></g></svg>